<?xml version="1.0" encoding="utf-8"?>
<!-- Generator: Adobe Illustrator 21.1.0, SVG Export Plug-In . SVG Version: 6.00 Build 0)  -->
<svg version="1.1" id="Calque_1" xmlns="http://www.w3.org/2000/svg" xmlns:xlink="http://www.w3.org/1999/xlink" x="0px" y="0px"
	 viewBox="0 0 921.7 750.2" style="enable-background:new 0 0 921.7 750.2;" xml:space="preserve">
<style type="text/css">
	.st0{fill:#E2EAF6;}
	.st1{fill:#C3D6EC;}
	.st2{fill:#DEDEDE;}
	.st3{enable-background:new    ;}
	.st4{fill:#666666;}
	.st5{display:none;}
	.st6{display:inline;}
	.st7{fill:none;stroke:#6A6A69;stroke-width:2;stroke-miterlimit:10;}
	.st8{fill:#6A6A69;}
	.st9{fill:#5799CC;}
	.st10{fill:#333333;}
	.st11{font-family:'HelveticaNeue';}
	.st12{font-size:26px;}
	.st13{fill:#CBCCCC;stroke:#000000;stroke-miterlimit:10;}
	.st14{fill:none;stroke:#FFFFFF;stroke-width:12;stroke-linecap:round;stroke-linejoin:round;stroke-miterlimit:10;}
	.st15{fill:#FFFFFF;}
	.st16{fill:none;stroke:#5799CC;stroke-width:6;stroke-linecap:round;stroke-linejoin:round;stroke-miterlimit:10;}
	.st17{fill:none;stroke:#FFFFFF;stroke-width:14;stroke-linecap:round;stroke-linejoin:round;stroke-miterlimit:10;}
	.st18{fill:none;}
	.st19{font-family:'HelveticaNeue-Bold';}
</style>
<g id="Bergrestaurant_inkl._Kriechen">
	<g id="Ebene_31_Kopie_Kopie">
		<polygon class="st0" points="915.7,662 4.3,662 4.3,442.2 501.7,442 915.7,53.2 		"/>
		<polygon class="st1" points="915.7,662 4.3,662 4.3,536.8 532.8,536.8 915.7,176.3 		"/>
	</g>
	<g id="Ebene_43_Kopie_Kopie">
		<polygon class="st2" points="428.3,462.8 119,462.8 119,204.9 273.7,113.4 428.3,204.9 		"/>
	</g>
	<g class="st3">
		<path class="st4" d="M198.5,253.4c0.8,0,1.6,0.1,2.2,0.4c0.7,0.3,1.2,0.6,1.7,1.1s0.8,1,1.1,1.6c0.2,0.6,0.4,1.3,0.4,2
			c0,1.1-0.2,2-0.7,2.8s-1.2,1.4-2.2,1.8v0.1c0.5,0.1,0.9,0.4,1.2,0.6c0.3,0.3,0.6,0.6,0.8,1s0.4,0.8,0.5,1.3s0.2,0.9,0.2,1.4
			c0,0.3,0,0.6,0.1,1c0,0.4,0,0.8,0.1,1.2c0,0.4,0.1,0.8,0.2,1.2c0.1,0.4,0.2,0.7,0.4,0.9h-4.1c-0.2-0.6-0.4-1.3-0.4-2.1
			c-0.1-0.8-0.1-1.6-0.2-2.3c-0.1-1-0.4-1.7-0.9-2.1c-0.4-0.5-1.2-0.7-2.2-0.7h-4.1v7.3h-4.1v-18.6h10V253.4z M197.1,261.8
			c0.9,0,1.6-0.2,2.1-0.6s0.7-1.1,0.7-2s-0.2-1.6-0.7-2s-1.2-0.6-2.1-0.6h-4.5v5.2H197.1z"/>
		<path class="st4" d="M210.8,268.8c0.6,0.5,1.3,0.8,2.4,0.8c0.7,0,1.4-0.2,1.9-0.6s0.9-0.8,1-1.2h3.2c-0.5,1.6-1.3,2.8-2.4,3.5
			c-1.1,0.7-2.4,1-3.9,1c-1.1,0-2-0.2-2.8-0.5s-1.6-0.8-2.1-1.4s-1-1.4-1.4-2.2c-0.3-0.9-0.5-1.8-0.5-2.9c0-1,0.2-1.9,0.5-2.8
			s0.8-1.6,1.4-2.2c0.6-0.6,1.3-1.1,2.2-1.5c0.8-0.4,1.8-0.5,2.8-0.5c1.1,0,2.1,0.2,3,0.7s1.5,1,2.1,1.8s0.9,1.6,1.2,2.5
			c0.2,1,0.3,2,0.3,3H210C210,267.4,210.3,268.2,210.8,268.8z M215,261.7c-0.4-0.5-1.1-0.7-2-0.7c-0.6,0-1.1,0.1-1.5,0.3
			c-0.4,0.2-0.7,0.4-0.9,0.7c-0.2,0.3-0.4,0.6-0.5,0.9s-0.2,0.6-0.2,0.9h6C215.7,262.9,215.4,262.2,215,261.7z"/>
		<path class="st4" d="M224.8,268.7c0.2,0.3,0.4,0.5,0.6,0.7c0.3,0.2,0.6,0.3,0.9,0.4s0.7,0.1,1,0.1s0.5,0,0.8-0.1s0.5-0.2,0.8-0.3
			c0.2-0.1,0.4-0.3,0.6-0.5s0.2-0.5,0.2-0.8c0-0.6-0.4-1-1.1-1.2s-1.8-0.6-3.1-0.8c-0.5-0.1-1.1-0.3-1.6-0.4c-0.5-0.2-1-0.4-1.4-0.6
			c-0.4-0.3-0.7-0.6-1-1c-0.2-0.4-0.4-0.9-0.4-1.5c0-0.9,0.2-1.6,0.5-2.1c0.3-0.6,0.8-1,1.3-1.3c0.6-0.3,1.2-0.5,1.9-0.7
			c0.7-0.1,1.4-0.2,2.1-0.2s1.4,0.1,2.1,0.2c0.7,0.1,1.3,0.4,1.8,0.7c0.5,0.3,1,0.8,1.3,1.3c0.4,0.5,0.6,1.2,0.6,2.1h-3.5
			c-0.1-0.7-0.3-1.2-0.8-1.4c-0.5-0.3-1.1-0.4-1.7-0.4c-0.2,0-0.4,0-0.7,0c-0.2,0-0.5,0.1-0.7,0.2s-0.4,0.2-0.5,0.4
			c-0.1,0.2-0.2,0.4-0.2,0.7c0,0.3,0.1,0.6,0.4,0.8c0.2,0.2,0.6,0.4,0.9,0.5s0.8,0.2,1.3,0.4c0.5,0.1,1,0.2,1.5,0.3
			c0.5,0.1,1.1,0.3,1.6,0.4c0.5,0.2,1,0.4,1.4,0.7s0.7,0.6,1,1.1c0.2,0.4,0.4,0.9,0.4,1.6c0,0.9-0.2,1.6-0.5,2.2
			c-0.4,0.6-0.8,1.1-1.4,1.4c-0.6,0.4-1.2,0.6-2,0.8c-0.7,0.1-1.5,0.2-2.2,0.2c-0.8,0-1.5-0.1-2.3-0.2c-0.7-0.2-1.4-0.4-2-0.8
			s-1.1-0.8-1.4-1.4c-0.4-0.6-0.6-1.3-0.6-2.2h3.5C224.6,268,224.7,268.4,224.8,268.7z"/>
		<path class="st4" d="M243,258.6v2.5h-2.7v6.7c0,0.6,0.1,1,0.3,1.2s0.6,0.3,1.2,0.3c0.2,0,0.4,0,0.6,0c0.2,0,0.4,0,0.5-0.1v2.9
			c-0.3,0.1-0.7,0.1-1,0.1c-0.4,0-0.8,0-1.1,0c-0.6,0-1.1,0-1.6-0.1s-1-0.2-1.3-0.5c-0.4-0.2-0.7-0.5-0.9-1s-0.3-1-0.3-1.6v-8h-2.2
			v-2.5h2.2v-4h3.7v4h2.6V258.6z"/>
		<path class="st4" d="M244.6,262.7c0.1-0.9,0.3-1.6,0.6-2.2c0.4-0.6,0.9-1,1.4-1.4c0.6-0.3,1.2-0.6,2-0.7c0.7-0.1,1.5-0.2,2.2-0.2
			s1.4,0,2,0.1c0.7,0.1,1.3,0.3,1.9,0.6c0.6,0.3,1,0.7,1.4,1.2c0.4,0.5,0.5,1.1,0.5,2v7c0,0.6,0,1.2,0.1,1.7c0.1,0.6,0.2,1,0.4,1.2
			h-3.7c-0.1-0.2-0.1-0.4-0.2-0.6c0-0.2-0.1-0.4-0.1-0.7c-0.6,0.6-1.3,1-2.1,1.3c-0.8,0.2-1.6,0.4-2.4,0.4c-0.6,0-1.2-0.1-1.8-0.2
			s-1-0.4-1.4-0.7c-0.4-0.3-0.7-0.7-1-1.2c-0.2-0.5-0.3-1.1-0.3-1.8c0-0.8,0.1-1.4,0.4-1.9c0.3-0.5,0.6-0.9,1-1.2
			c0.4-0.3,0.9-0.5,1.4-0.7c0.5-0.1,1.1-0.3,1.6-0.4c0.6-0.1,1.1-0.2,1.6-0.2c0.5-0.1,1-0.1,1.4-0.2s0.7-0.3,1-0.5
			c0.2-0.2,0.4-0.5,0.3-0.9c0-0.4-0.1-0.7-0.2-0.9c-0.1-0.2-0.3-0.4-0.5-0.5s-0.5-0.2-0.8-0.3c-0.3,0-0.6-0.1-0.9-0.1
			c-0.7,0-1.3,0.2-1.7,0.5s-0.7,0.8-0.7,1.6L244.6,262.7L244.6,262.7z M253.1,265.4c-0.2,0.1-0.3,0.2-0.6,0.3s-0.5,0.1-0.8,0.2
			s-0.5,0.1-0.8,0.1s-0.6,0.1-0.9,0.1c-0.3,0.1-0.5,0.1-0.8,0.2s-0.5,0.2-0.7,0.4c-0.2,0.1-0.4,0.3-0.5,0.6
			c-0.1,0.2-0.2,0.5-0.2,0.9c0,0.3,0.1,0.6,0.2,0.8c0.1,0.2,0.3,0.4,0.5,0.5s0.4,0.2,0.7,0.3c0.3,0.1,0.6,0.1,0.9,0.1
			c0.7,0,1.3-0.1,1.7-0.4c0.4-0.2,0.7-0.5,0.9-0.9c0.2-0.3,0.3-0.7,0.3-1s0.1-0.6,0.1-0.8L253.1,265.4L253.1,265.4z"/>
		<path class="st4" d="M268.7,272v-1.9h-0.1c-0.5,0.8-1.1,1.3-1.8,1.7c-0.7,0.3-1.5,0.5-2.3,0.5c-1,0-1.8-0.1-2.4-0.4
			s-1.1-0.6-1.5-1.1s-0.6-1.1-0.8-1.7c-0.1-0.7-0.2-1.4-0.2-2.3v-8.3h3.7v7.6c0,1.1,0.2,1.9,0.5,2.5c0.3,0.5,1,0.8,1.8,0.8
			c1,0,1.7-0.3,2.2-0.9c0.4-0.6,0.7-1.6,0.7-3v-7h3.7V272H268.7z"/>
		<path class="st4" d="M278.4,258.6v2.5h0.1c0.2-0.4,0.4-0.8,0.7-1.2c0.3-0.4,0.6-0.7,1-0.9c0.4-0.3,0.8-0.4,1.2-0.6
			c0.4-0.1,0.9-0.2,1.3-0.2c0.2,0,0.5,0,0.8,0.1v3.4c-0.2,0-0.4-0.1-0.6-0.1s-0.5,0-0.7,0c-0.7,0-1.2,0.1-1.7,0.3
			c-0.5,0.2-0.8,0.5-1.1,0.9c-0.3,0.4-0.5,0.8-0.6,1.4c-0.1,0.5-0.2,1.1-0.2,1.7v6.1h-3.7v-13.4L278.4,258.6L278.4,258.6z"/>
		<path class="st4" d="M284.9,262.7c0.1-0.9,0.3-1.6,0.6-2.2c0.4-0.6,0.9-1,1.4-1.4c0.6-0.3,1.2-0.6,2-0.7c0.7-0.1,1.5-0.2,2.2-0.2
			s1.4,0,2,0.1c0.7,0.1,1.3,0.3,1.9,0.6c0.6,0.3,1,0.7,1.4,1.2s0.5,1.1,0.5,2v7c0,0.6,0,1.2,0.1,1.7c0.1,0.6,0.2,1,0.4,1.2h-3.7
			c-0.1-0.2-0.1-0.4-0.2-0.6c0-0.2-0.1-0.4-0.1-0.7c-0.6,0.6-1.3,1-2.1,1.3c-0.8,0.2-1.6,0.4-2.4,0.4c-0.6,0-1.2-0.1-1.8-0.2
			s-1-0.4-1.4-0.7c-0.4-0.3-0.7-0.7-1-1.2c-0.2-0.5-0.3-1.1-0.3-1.8c0-0.8,0.1-1.4,0.4-1.9s0.6-0.9,1-1.2c0.4-0.3,0.9-0.5,1.4-0.7
			c0.5-0.1,1.1-0.3,1.6-0.4c0.6-0.1,1.1-0.2,1.6-0.2c0.5-0.1,1-0.1,1.4-0.2s0.7-0.3,1-0.5c0.2-0.2,0.4-0.5,0.3-0.9
			c0-0.4-0.1-0.7-0.2-0.9c-0.1-0.2-0.3-0.4-0.5-0.5s-0.5-0.2-0.8-0.3c-0.3,0-0.6-0.1-0.9-0.1c-0.7,0-1.3,0.2-1.7,0.5
			s-0.7,0.8-0.7,1.6L284.9,262.7L284.9,262.7z M293.3,265.4c-0.2,0.1-0.3,0.2-0.6,0.3s-0.5,0.1-0.8,0.2s-0.5,0.1-0.8,0.1
			s-0.6,0.1-0.9,0.1c-0.3,0.1-0.5,0.1-0.8,0.2s-0.5,0.2-0.7,0.4c-0.2,0.1-0.4,0.3-0.5,0.6c-0.1,0.2-0.2,0.5-0.2,0.9
			c0,0.3,0.1,0.6,0.2,0.8c0.1,0.2,0.3,0.4,0.5,0.5s0.4,0.2,0.7,0.3c0.3,0.1,0.6,0.1,0.9,0.1c0.7,0,1.3-0.1,1.7-0.4
			c0.4-0.2,0.7-0.5,0.9-0.9c0.2-0.3,0.3-0.7,0.3-1s0.1-0.6,0.1-0.8L293.3,265.4L293.3,265.4z"/>
		<path class="st4" d="M303.4,258.6v1.9h0.1c0.5-0.8,1.1-1.3,1.8-1.7c0.7-0.4,1.5-0.5,2.3-0.5c1,0,1.8,0.1,2.4,0.4s1.1,0.6,1.5,1.1
			s0.6,1.1,0.8,1.7c0.1,0.7,0.2,1.4,0.2,2.3v8.3h-3.7v-7.6c0-1.1-0.2-1.9-0.5-2.5c-0.3-0.5-1-0.8-1.8-0.8c-1,0-1.7,0.3-2.2,0.9
			c-0.4,0.6-0.7,1.6-0.7,3v7h-3.7v-13.4L303.4,258.6L303.4,258.6z"/>
		<path class="st4" d="M322.6,258.6v2.5h-2.7v6.7c0,0.6,0.1,1,0.3,1.2s0.6,0.3,1.2,0.3c0.2,0,0.4,0,0.6,0s0.4,0,0.5-0.1v2.9
			c-0.3,0.1-0.7,0.1-1,0.1c-0.4,0-0.8,0-1.1,0c-0.6,0-1.1,0-1.6-0.1s-1-0.2-1.3-0.5c-0.4-0.2-0.7-0.5-0.9-1s-0.3-1-0.3-1.6v-8H314
			v-2.5h2.2v-4h3.7v4h2.7L322.6,258.6L322.6,258.6z"/>
		<path class="st4" d="M341,270.3c-0.4,0.7-1,1.3-1.7,1.6c-0.7,0.3-1.5,0.5-2.4,0.5c-1,0-1.9-0.2-2.6-0.6s-1.4-0.9-1.9-1.6
			s-0.9-1.4-1.1-2.3c-0.3-0.9-0.4-1.8-0.4-2.7c0-0.9,0.1-1.8,0.4-2.6c0.2-0.8,0.6-1.6,1.1-2.2s1.1-1.2,1.9-1.5
			c0.7-0.4,1.6-0.6,2.6-0.6c0.8,0,1.5,0.2,2.3,0.5c0.7,0.3,1.3,0.8,1.7,1.5h0.1v-6.8h3.7V272h-3.5L341,270.3L341,270.3z
			 M340.9,263.6c-0.1-0.5-0.3-1-0.5-1.4c-0.3-0.4-0.6-0.7-1-0.9c-0.4-0.2-0.9-0.4-1.5-0.4s-1.1,0.1-1.5,0.4c-0.4,0.2-0.7,0.6-1,1
			s-0.4,0.9-0.5,1.4s-0.2,1-0.2,1.6c0,0.5,0.1,1,0.2,1.6c0.1,0.5,0.3,1,0.6,1.4c0.3,0.4,0.6,0.7,1,1s0.9,0.4,1.5,0.4
			s1.1-0.1,1.5-0.4c0.4-0.2,0.7-0.6,1-1s0.4-0.9,0.5-1.4s0.2-1.1,0.2-1.6S341,264.2,340.9,263.6z"/>
		<path class="st4" d="M351.3,268.8c0.6,0.5,1.3,0.8,2.4,0.8c0.7,0,1.4-0.2,1.9-0.6s0.9-0.8,1-1.2h3.2c-0.5,1.6-1.3,2.8-2.4,3.5
			s-2.4,1-3.9,1c-1.1,0-2-0.2-2.8-0.5s-1.6-0.8-2.1-1.4s-1-1.4-1.4-2.2c-0.3-0.9-0.5-1.8-0.5-2.9c0-1,0.2-1.9,0.5-2.8
			s0.8-1.6,1.4-2.2s1.3-1.1,2.2-1.5c0.8-0.4,1.8-0.5,2.8-0.5c1.1,0,2.1,0.2,3,0.7s1.5,1,2.1,1.8s0.9,1.6,1.2,2.5c0.2,1,0.3,2,0.3,3
			h-9.7C350.4,267.4,350.7,268.2,351.3,268.8z M355.4,261.7c-0.4-0.5-1.1-0.7-2-0.7c-0.6,0-1.1,0.1-1.5,0.3
			c-0.4,0.2-0.7,0.4-0.9,0.7c-0.2,0.3-0.4,0.6-0.5,0.9s-0.2,0.6-0.2,0.9h6C356.2,262.9,355.9,262.2,355.4,261.7z"/>
		<path class="st4" d="M191.8,289.8v1.8h0.1c0.5-0.7,1.1-1.2,1.7-1.6s1.5-0.6,2.3-0.6s1.6,0.2,2.3,0.5s1.2,0.9,1.6,1.7
			c0.4-0.6,0.9-1.1,1.6-1.6s1.5-0.7,2.4-0.7c0.7,0,1.4,0.1,2,0.3s1.1,0.5,1.6,0.8s0.8,0.9,1,1.5s0.4,1.4,0.4,2.2v9h-3.7v-7.6
			c0-0.5,0-0.9-0.1-1.3c0-0.4-0.1-0.7-0.3-1s-0.4-0.5-0.7-0.7s-0.7-0.3-1.2-0.3s-0.9,0.1-1.3,0.3c-0.3,0.2-0.6,0.5-0.8,0.8
			s-0.3,0.7-0.4,1.1c-0.1,0.4-0.1,0.8-0.1,1.2v7.5h-3.7v-7.5c0-0.4,0-0.8,0-1.2c0-0.4-0.1-0.7-0.2-1.1s-0.3-0.6-0.6-0.8
			c-0.3-0.2-0.7-0.3-1.3-0.3c-0.2,0-0.4,0-0.7,0.1s-0.6,0.2-0.8,0.4s-0.5,0.5-0.7,0.9s-0.3,0.9-0.3,1.6v7.8h-3.7v-13.4h3.6
			L191.8,289.8L191.8,289.8z"/>
		<path class="st4" d="M211.7,293.6c0.3-0.9,0.8-1.6,1.4-2.2c0.6-0.6,1.3-1.1,2.2-1.4c0.8-0.3,1.8-0.5,2.8-0.5c1.1,0,2,0.2,2.9,0.5
			s1.6,0.8,2.2,1.4c0.6,0.6,1.1,1.4,1.4,2.2c0.3,0.9,0.5,1.9,0.5,2.9s-0.2,2-0.5,2.9s-0.8,1.6-1.4,2.2c-0.6,0.6-1.3,1.1-2.2,1.4
			s-1.8,0.5-2.9,0.5c-1.1,0-2-0.2-2.8-0.5s-1.6-0.8-2.2-1.4c-0.6-0.6-1.1-1.4-1.4-2.2s-0.5-1.8-0.5-2.9S211.4,294.4,211.7,293.6z
			 M215.1,298.1c0.1,0.5,0.3,1,0.5,1.4s0.6,0.7,1,1c0.4,0.2,0.9,0.4,1.6,0.4s1.1-0.1,1.6-0.4c0.4-0.2,0.8-0.6,1-1s0.4-0.9,0.5-1.4
			s0.2-1,0.2-1.6c0-0.5-0.1-1.1-0.2-1.6s-0.3-1-0.5-1.4c-0.3-0.4-0.6-0.7-1-1s-0.9-0.4-1.6-0.4s-1.1,0.1-1.6,0.4
			c-0.4,0.3-0.7,0.6-1,1s-0.4,0.9-0.5,1.4s-0.2,1-0.2,1.6C214.9,297,215,297.6,215.1,298.1z"/>
		<path class="st4" d="M231,289.8v1.9h0.1c0.5-0.8,1.1-1.3,1.8-1.7c0.7-0.4,1.5-0.5,2.3-0.5c1,0,1.8,0.1,2.4,0.4
			c0.6,0.3,1.1,0.6,1.5,1.1s0.6,1.1,0.8,1.7c0.1,0.7,0.2,1.4,0.2,2.3v8.3h-3.7v-7.6c0-1.1-0.2-1.9-0.5-2.5c-0.3-0.5-1-0.8-1.8-0.8
			c-1,0-1.7,0.3-2.2,0.9c-0.4,0.6-0.7,1.6-0.7,3v7h-3.7v-13.4L231,289.8L231,289.8z"/>
		<path class="st4" d="M250.2,289.8v2.5h-2.7v6.7c0,0.6,0.1,1,0.3,1.2s0.6,0.3,1.2,0.3c0.2,0,0.4,0,0.6,0c0.2,0,0.4,0,0.5-0.1v2.9
			c-0.3,0.1-0.7,0.1-1,0.1c-0.4,0-0.8,0-1.1,0c-0.6,0-1.1,0-1.6-0.1s-1-0.2-1.3-0.5c-0.4-0.2-0.7-0.5-0.9-1s-0.3-1-0.3-1.6v-7.9
			h-2.2v-2.5h2.2v-4h3.7v4H250.2z"/>
		<path class="st4" d="M251.8,293.9c0.1-0.9,0.3-1.6,0.6-2.2c0.4-0.6,0.9-1,1.4-1.4c0.6-0.3,1.2-0.6,2-0.7c0.7-0.1,1.5-0.2,2.2-0.2
			s1.4,0,2,0.1c0.7,0.1,1.3,0.3,1.9,0.6c0.6,0.3,1,0.7,1.4,1.2s0.5,1.1,0.5,2v7c0,0.6,0,1.2,0.1,1.7c0.1,0.6,0.2,1,0.4,1.2h-3.7
			c-0.1-0.2-0.1-0.4-0.2-0.6c0-0.2-0.1-0.4-0.1-0.7c-0.6,0.6-1.3,1-2.1,1.3c-0.8,0.2-1.6,0.4-2.4,0.4c-0.6,0-1.2-0.1-1.8-0.2
			s-1-0.4-1.4-0.7c-0.4-0.3-0.7-0.7-1-1.2c-0.2-0.5-0.3-1.1-0.3-1.8c0-0.8,0.1-1.4,0.4-1.9c0.3-0.5,0.6-0.9,1-1.2
			c0.4-0.3,0.9-0.5,1.4-0.7c0.5-0.1,1.1-0.3,1.6-0.4c0.6-0.1,1.1-0.2,1.6-0.2c0.5-0.1,1-0.1,1.4-0.2s0.7-0.3,1-0.5
			c0.2-0.2,0.4-0.5,0.3-0.9c0-0.4-0.1-0.7-0.2-0.9c-0.1-0.2-0.3-0.4-0.5-0.5s-0.5-0.2-0.8-0.3c-0.3,0-0.6-0.1-0.9-0.1
			c-0.7,0-1.3,0.2-1.7,0.5s-0.7,0.8-0.7,1.6L251.8,293.9L251.8,293.9z M260.2,296.6c-0.2,0.1-0.3,0.2-0.6,0.3s-0.5,0.1-0.8,0.2
			s-0.5,0.1-0.8,0.1s-0.6,0.1-0.9,0.1c-0.3,0.1-0.5,0.1-0.8,0.2s-0.5,0.2-0.7,0.4c-0.2,0.1-0.4,0.3-0.5,0.6
			c-0.1,0.2-0.2,0.5-0.2,0.9c0,0.3,0.1,0.6,0.2,0.8c0.1,0.2,0.3,0.4,0.5,0.5s0.4,0.2,0.7,0.3c0.3,0.1,0.6,0.1,0.9,0.1
			c0.7,0,1.3-0.1,1.7-0.4c0.4-0.2,0.7-0.5,0.9-0.9c0.2-0.3,0.3-0.7,0.3-1s0.1-0.6,0.1-0.8L260.2,296.6L260.2,296.6z"/>
		<path class="st4" d="M279.4,304.2c-0.1,0.7-0.5,1.3-0.9,1.9c-0.5,0.6-1.2,1.1-2.1,1.5s-2.1,0.6-3.7,0.6c-0.7,0-1.3-0.1-2-0.2
			c-0.7-0.2-1.3-0.4-1.9-0.8c-0.6-0.3-1-0.8-1.4-1.3s-0.6-1.2-0.6-2h3.6c0.2,0.7,0.5,1.2,1,1.4c0.5,0.3,1.1,0.4,1.7,0.4
			c1,0,1.8-0.3,2.3-0.9s0.7-1.4,0.7-2.4v-1.8H276c-0.4,0.7-1,1.2-1.7,1.6c-0.7,0.3-1.5,0.5-2.3,0.5c-1,0-1.9-0.2-2.6-0.5
			c-0.7-0.4-1.3-0.8-1.8-1.5s-0.8-1.3-1-2.2c-0.2-0.8-0.3-1.7-0.3-2.6s0.1-1.7,0.4-2.5c0.2-0.8,0.6-1.5,1.1-2.1s1.1-1.1,1.8-1.5
			c0.7-0.4,1.5-0.5,2.5-0.5c0.9,0,1.7,0.2,2.3,0.5c0.7,0.3,1.2,0.9,1.7,1.7h0.1v-1.8h3.5v12.6C279.6,302.9,279.6,303.5,279.4,304.2z
			 M274.4,299.7c0.4-0.2,0.7-0.5,1-0.8s0.5-0.7,0.6-1.2s0.2-0.9,0.2-1.4c0-0.6-0.1-1.1-0.2-1.6s-0.3-0.9-0.5-1.3s-0.6-0.7-1-0.9
			c-0.4-0.2-0.9-0.3-1.5-0.3c-0.5,0-1,0.1-1.3,0.3s-0.7,0.5-0.9,0.8c-0.3,0.4-0.4,0.8-0.5,1.2c-0.1,0.5-0.2,0.9-0.2,1.4s0,1,0.1,1.4
			c0.1,0.5,0.3,0.9,0.5,1.3s0.5,0.7,0.9,0.9c0.4,0.2,0.9,0.4,1.4,0.4C273.5,300,274,299.9,274.4,299.7z"/>
		<path class="st4" d="M286.1,289.8v1.9h0.1c0.5-0.8,1.1-1.3,1.8-1.7c0.7-0.4,1.5-0.5,2.3-0.5c1,0,1.8,0.1,2.4,0.4s1.1,0.6,1.5,1.1
			s0.6,1.1,0.8,1.7c0.1,0.7,0.2,1.4,0.2,2.3v8.3h-3.7v-7.6c0-1.1-0.2-1.9-0.5-2.5c-0.3-0.5-1-0.8-1.8-0.8c-1,0-1.7,0.3-2.2,0.9
			c-0.4,0.6-0.7,1.6-0.7,3v7h-3.7v-13.4L286.1,289.8L286.1,289.8z"/>
		<path class="st4" d="M301.9,300c0.6,0.5,1.3,0.8,2.4,0.8c0.7,0,1.4-0.2,1.9-0.6s0.9-0.8,1-1.2h3.2c-0.5,1.6-1.3,2.8-2.4,3.5
			s-2.4,1-3.9,1c-1.1,0-2-0.2-2.8-0.5s-1.6-0.8-2.1-1.4s-1-1.4-1.4-2.2c-0.3-0.9-0.5-1.8-0.5-2.9c0-1,0.2-1.9,0.5-2.8
			s0.8-1.6,1.4-2.2s1.3-1.1,2.2-1.5c0.8-0.4,1.8-0.5,2.8-0.5c1.1,0,2.1,0.2,3,0.7s1.5,1,2.1,1.8s0.9,1.6,1.2,2.5c0.2,1,0.3,2,0.3,3
			H301C301,298.6,301.3,299.4,301.9,300z M306,292.9c-0.4-0.5-1.1-0.7-2-0.7c-0.6,0-1.1,0.1-1.5,0.3c-0.4,0.2-0.7,0.4-0.9,0.7
			c-0.2,0.3-0.4,0.6-0.5,0.9s-0.2,0.6-0.2,0.9h6C306.8,294.1,306.5,293.4,306,292.9z"/>
	</g>
	<g class="st3">
		<path class="st4" d="M17.4,698.1c-0.5-0.3-1-0.5-1.8-0.5c-0.3,0-0.6,0-0.9,0.1c-0.3,0.1-0.5,0.1-0.7,0.3c-0.2,0.1-0.4,0.3-0.5,0.5
			s-0.2,0.5-0.2,0.9s0.1,0.6,0.3,0.8s0.5,0.3,0.7,0.5s0.7,0.2,1,0.3c0.4,0.1,0.8,0.2,1.2,0.3s0.8,0.2,1.2,0.3c0.4,0.1,0.7,0.3,1,0.5
			s0.6,0.5,0.7,0.9c0.2,0.3,0.3,0.8,0.3,1.2c0,0.5-0.1,1-0.4,1.4c-0.3,0.3-0.6,0.7-0.9,1s-0.8,0.4-1.3,0.5s-0.9,0.2-1.4,0.2
			c-0.6,0-1.1-0.1-1.6-0.2c-0.5-0.1-1-0.4-1.4-0.7s-0.7-0.7-0.9-1.1c-0.2-0.5-0.3-1-0.3-1.6h1.3c0,0.5,0.1,0.8,0.3,1.1
			s0.4,0.6,0.7,0.8s0.6,0.3,1,0.5c0.4,0.1,0.7,0.1,1.1,0.1c0.3,0,0.6,0,0.9-0.1s0.6-0.1,0.9-0.3c0.3-0.1,0.5-0.3,0.6-0.6
			s0.3-0.5,0.3-0.9c0-0.3-0.1-0.7-0.3-0.9s-0.5-0.4-0.7-0.5c-0.3-0.1-0.7-0.3-1-0.3c-0.4-0.1-0.8-0.2-1.2-0.3s-0.8-0.2-1.2-0.3
			s-0.7-0.3-1-0.5s-0.6-0.5-0.7-0.8c-0.2-0.3-0.3-0.7-0.3-1.2s0.1-1,0.3-1.4s0.5-0.7,0.9-0.9s0.7-0.5,1.2-0.5
			c0.5-0.1,0.9-0.2,1.4-0.2s1,0.1,1.4,0.2c0.5,0.1,0.9,0.3,1.2,0.6c0.3,0.3,0.6,0.6,0.8,1c0.2,0.4,0.3,0.9,0.3,1.4h-1.3
			C18.1,699,17.8,698.4,17.4,698.1z"/>
		<path class="st4" d="M21.2,701.7c0.1-0.5,0.4-0.9,0.7-1.2s0.7-0.7,1.1-0.9s1-0.3,1.6-0.3s1.1,0.1,1.6,0.3s0.9,0.5,1.1,0.9
			c0.3,0.3,0.5,0.8,0.7,1.2c0.1,0.5,0.3,1,0.3,1.5s-0.1,1-0.3,1.5c-0.1,0.5-0.4,0.9-0.7,1.2s-0.7,0.7-1.1,0.9
			c-0.5,0.2-1,0.3-1.6,0.3s-1.1-0.1-1.6-0.3s-0.9-0.5-1.1-0.9c-0.3-0.3-0.5-0.8-0.7-1.2c-0.2-0.5-0.3-1-0.3-1.5S21,702.2,21.2,701.7
			z M22.4,704.5c0.1,0.3,0.3,0.7,0.5,0.9c0.2,0.3,0.5,0.4,0.7,0.5c0.3,0.1,0.6,0.2,0.9,0.2s0.6-0.1,0.9-0.2c0.3-0.1,0.5-0.3,0.7-0.5
			s0.4-0.5,0.5-0.9s0.2-0.7,0.2-1.2s-0.1-0.9-0.2-1.2s-0.3-0.7-0.5-0.9c-0.2-0.3-0.5-0.4-0.7-0.5c-0.3-0.1-0.6-0.2-0.9-0.2
			s-0.6,0.1-0.9,0.2c-0.3,0.1-0.5,0.3-0.7,0.5c-0.2,0.3-0.4,0.5-0.5,0.9c-0.1,0.3-0.2,0.7-0.2,1.2C22.2,703.7,22.3,704.1,22.4,704.5
			z"/>
		<path class="st4" d="M34.6,707v-1.2l0,0c-0.3,0.5-0.6,0.8-1,1s-0.9,0.3-1.4,0.3s-0.9-0.1-1.2-0.2c-0.3-0.1-0.6-0.3-0.8-0.5
			c-0.2-0.3-0.3-0.5-0.4-0.9c-0.1-0.3-0.1-0.7-0.1-1.1v-4.9h1.2v5.1c0,0.5,0.1,0.9,0.4,1.1c0.3,0.3,0.7,0.4,1.1,0.4
			c0.4,0,0.7-0.1,1-0.2c0.3-0.1,0.5-0.3,0.7-0.5s0.3-0.5,0.4-0.7s0.1-0.6,0.1-0.9v-4.2h1.2v7.5L34.6,707L34.6,707z"/>
		<path class="st4" d="M38.7,699.5v1.6l0,0c0.3-0.6,0.7-1,1.1-1.3c0.5-0.3,1-0.4,1.6-0.4v1.3c-0.5,0-0.9,0.1-1.2,0.2
			c-0.3,0.1-0.6,0.3-0.9,0.6c-0.2,0.3-0.4,0.6-0.5,0.9c-0.1,0.3-0.1,0.8-0.1,1.2v3.3h-1.2v-7.5h1.2V699.5z"/>
		<path class="st4" d="M46.6,700.8c-0.3-0.3-0.7-0.4-1.2-0.4s-0.8,0.1-1.1,0.3c-0.3,0.1-0.5,0.4-0.7,0.7s-0.3,0.6-0.4,0.9
			S43,703,43,703.4c0,0.3,0.1,0.7,0.1,1c0.1,0.3,0.2,0.6,0.4,0.9c0.2,0.3,0.4,0.5,0.7,0.6s0.6,0.3,1,0.3c0.6,0,1-0.1,1.4-0.5
			c0.3-0.3,0.5-0.8,0.7-1.3h1.2c-0.1,0.9-0.5,1.6-1,2.2c-0.5,0.5-1.3,0.7-2.2,0.7c-0.6,0-1-0.1-1.5-0.3s-0.8-0.5-1.1-0.8
			s-0.5-0.7-0.7-1.2c-0.1-0.5-0.2-1-0.2-1.5s0.1-1,0.2-1.6c0.1-0.5,0.4-0.9,0.7-1.2s0.7-0.7,1.1-0.9c0.5-0.2,1-0.3,1.5-0.3
			c0.4,0,0.8,0.1,1.2,0.1c0.4,0.1,0.7,0.3,1,0.5s0.5,0.5,0.7,0.8s0.3,0.7,0.3,1.1h-1.2C47,701.5,46.8,701.1,46.6,700.8z"/>
		<path class="st4" d="M55.1,706.5c-0.5,0.4-1.2,0.7-2.1,0.7c-0.6,0-1.1-0.1-1.6-0.3s-0.8-0.5-1.1-0.8s-0.5-0.8-0.7-1.2
			c-0.1-0.5-0.3-1-0.3-1.6s0.1-1.1,0.3-1.6s0.4-0.9,0.7-1.2s0.7-0.6,1.1-0.8c0.4-0.2,0.9-0.3,1.4-0.3c0.7,0,1.2,0.1,1.6,0.4
			c0.5,0.3,0.8,0.6,1,1c0.3,0.4,0.5,0.9,0.5,1.4s0.1,1,0.1,1.4h-5.6c0,0.3,0,0.7,0.1,0.9c0.1,0.3,0.2,0.5,0.4,0.8s0.5,0.4,0.7,0.5
			c0.3,0.1,0.7,0.2,1,0.2c0.5,0,0.9-0.1,1.2-0.3c0.3-0.3,0.5-0.6,0.7-1.1H56C56,705.5,55.6,706.1,55.1,706.5z M54.8,701.7
			c-0.1-0.3-0.3-0.5-0.5-0.7s-0.4-0.3-0.7-0.5c-0.3-0.1-0.5-0.2-0.9-0.2s-0.6,0.1-0.9,0.2c-0.3,0.1-0.5,0.3-0.7,0.5
			s-0.3,0.4-0.5,0.7c-0.1,0.3-0.2,0.5-0.2,0.8h4.3C55,702.2,54.9,702,54.8,701.7z"/>
		<path class="st4" d="M57.8,701.1v-1.6h1.6v1.6H57.8z M59.4,705.4v1.6h-1.6v-1.6H59.4z"/>
		<path class="st4" d="M64.7,700.6v-1.1H66v-1.1c0-0.6,0.2-1,0.5-1.4c0.3-0.3,0.9-0.5,1.5-0.5c0.1,0,0.3,0,0.4,0s0.3,0.1,0.4,0.1v1
			c-0.1-0.1-0.2-0.1-0.3-0.1s-0.3,0-0.3,0c-0.3,0-0.5,0.1-0.7,0.2c-0.1,0.1-0.3,0.3-0.3,0.7v1h1.4v1.1h-1.4v6.4H66v-6.4L64.7,700.6
			L64.7,700.6z"/>
		<path class="st4" d="M69.8,698.2v-1.5H71v1.5H69.8z M71,699.5v7.5h-1.2v-7.5H71z"/>
		<path class="st4" d="M78.5,709.1c-0.5,0.6-1.4,0.9-2.6,0.9c-0.3,0-0.7-0.1-1-0.1c-0.3-0.1-0.7-0.2-1-0.4s-0.5-0.4-0.7-0.7
			s-0.3-0.6-0.3-1H74c0,0.2,0.1,0.4,0.2,0.6c0.1,0.1,0.3,0.3,0.5,0.4s0.4,0.2,0.6,0.2s0.5,0.1,0.7,0.1c0.4,0,0.7-0.1,1-0.2
			c0.3-0.1,0.5-0.3,0.7-0.6s0.3-0.5,0.4-0.9c0.1-0.3,0.1-0.7,0.1-1.1v-0.5l0,0c-0.2,0.5-0.5,0.8-1,1c-0.4,0.2-0.9,0.3-1.4,0.3
			s-1-0.1-1.4-0.3s-0.8-0.5-1-0.8c-0.3-0.3-0.5-0.7-0.7-1.2c-0.1-0.5-0.2-0.9-0.2-1.4s0.1-0.9,0.2-1.4s0.3-0.9,0.6-1.2
			c0.3-0.4,0.6-0.7,1-0.9c0.5-0.2,1-0.4,1.6-0.4c0.5,0,0.9,0.1,1.3,0.3s0.7,0.5,0.9,0.9l0,0v-1h1.2v6.8
			C79.4,707.6,79.1,708.5,78.5,709.1z M76.9,705.7c0.3-0.2,0.5-0.4,0.7-0.7c0.1-0.3,0.3-0.6,0.4-0.9s0.1-0.7,0.1-1s-0.1-0.7-0.1-1
			s-0.2-0.6-0.4-0.9s-0.4-0.5-0.7-0.6c-0.3-0.1-0.6-0.3-1-0.3s-0.7,0.1-1,0.2c-0.3,0.1-0.5,0.3-0.7,0.6s-0.3,0.5-0.4,0.9
			s-0.1,0.7-0.1,1s0.1,0.7,0.1,1s0.2,0.7,0.3,0.9c0.1,0.3,0.4,0.5,0.7,0.7c0.3,0.2,0.6,0.3,1,0.3C76.3,705.9,76.7,705.9,76.9,705.7z
			"/>
		<path class="st4" d="M83,705.4v1.6h-1.6v-1.6H83z"/>
		<path class="st4" d="M95.6,703.5v1h-1.4v2.4h-1.1v-2.4h-4.5v-1.1l4.7-6.6h1v6.8L95.6,703.5L95.6,703.5z M93.1,698.5L93.1,698.5
			l-3.4,5h3.4V698.5z"/>
		<path class="st4" d="M97,699c0.1-0.5,0.3-0.9,0.7-1.1c0.3-0.3,0.7-0.6,1-0.8s0.9-0.3,1.4-0.3s0.9,0.1,1.2,0.2
			c0.4,0.1,0.7,0.3,1,0.6s0.5,0.5,0.7,0.9s0.3,0.8,0.3,1.2c0,0.5-0.1,0.9-0.2,1.2s-0.3,0.7-0.5,0.9c-0.3,0.3-0.5,0.5-0.8,0.7
			s-0.6,0.5-0.9,0.7s-0.7,0.4-0.9,0.6c-0.3,0.2-0.6,0.4-0.9,0.6c-0.3,0.2-0.5,0.5-0.7,0.7c-0.2,0.3-0.3,0.5-0.4,0.9h5.2v1.1h-6.6
			c0.1-0.6,0.1-1.1,0.3-1.6c0.2-0.5,0.4-0.8,0.7-1.1s0.5-0.6,0.9-0.9c0.3-0.3,0.7-0.5,1-0.7c0.5-0.3,0.8-0.5,1.1-0.7
			c0.3-0.2,0.6-0.5,0.8-0.7c0.2-0.3,0.4-0.5,0.5-0.7c0.1-0.3,0.2-0.6,0.2-0.9c0-0.3-0.1-0.5-0.1-0.8c-0.1-0.2-0.3-0.4-0.4-0.6
			c-0.2-0.1-0.4-0.3-0.7-0.4c-0.3-0.1-0.5-0.1-0.8-0.1s-0.7,0.1-0.9,0.2c-0.3,0.1-0.5,0.3-0.7,0.6c-0.1,0.3-0.3,0.5-0.3,0.8
			c-0.1,0.3-0.1,0.6-0.1,0.9h-1.2C96.9,699.9,96.9,699.4,97,699z"/>
		<path class="st4" d="M107,705.4v1.4c0,0.5-0.1,1-0.4,1.4s-0.7,0.7-1.2,0.9v-0.7c0.1-0.1,0.3-0.1,0.4-0.3c0.1-0.1,0.2-0.3,0.3-0.3
			c0.1-0.1,0.1-0.3,0.1-0.4c0-0.1,0-0.3,0-0.4h-0.9v-1.6L107,705.4L107,705.4z"/>
		<path class="st4" d="M117.1,696.7c0.2,0,0.5,0,0.7,0c0.3,0,0.5,0,0.7,0.1c0.3,0,0.5,0.1,0.7,0.1c0.2,0.1,0.4,0.1,0.5,0.2
			c0.3,0.2,0.6,0.5,0.9,0.9c0.3,0.3,0.3,0.8,0.3,1.3s-0.1,1-0.4,1.4s-0.7,0.7-1.1,0.9l0,0c0.7,0.1,1.1,0.4,1.4,0.9s0.5,1,0.5,1.6
			c0,0.4-0.1,0.7-0.2,1.1s-0.3,0.7-0.6,0.9c-0.3,0.3-0.6,0.5-1,0.7c-0.4,0.1-0.9,0.3-1.3,0.3h-5v-10.3L117.1,696.7L117.1,696.7z
			 M117.4,701.1c0.8,0,1.3-0.1,1.7-0.4c0.3-0.3,0.5-0.7,0.5-1.2c0-0.4-0.1-0.7-0.2-0.9s-0.3-0.4-0.5-0.5s-0.5-0.2-0.7-0.2
			c-0.3-0.1-0.5-0.1-0.9-0.1h-2.8v3.3L117.4,701.1L117.4,701.1z M118.1,705.8c0.6,0,1-0.1,1.4-0.5s0.5-0.8,0.5-1.4
			c0-0.3-0.1-0.6-0.2-0.9c-0.1-0.2-0.3-0.4-0.5-0.5s-0.5-0.2-0.7-0.3c-0.3-0.1-0.5-0.1-0.9-0.1h-3.1v3.5L118.1,705.8L118.1,705.8z"
			/>
		<path class="st4" d="M122.8,701.7c0.1-0.5,0.4-0.9,0.7-1.2c0.3-0.3,0.7-0.7,1.1-0.9c0.5-0.2,1-0.3,1.6-0.3s1.1,0.1,1.6,0.3
			c0.5,0.2,0.9,0.5,1.1,0.9c0.3,0.3,0.5,0.8,0.7,1.2c0.1,0.5,0.3,1,0.3,1.5s-0.1,1-0.3,1.5c-0.1,0.5-0.4,0.9-0.7,1.2
			c-0.3,0.4-0.7,0.7-1.1,0.9c-0.5,0.2-1,0.3-1.6,0.3s-1.1-0.1-1.6-0.3s-0.9-0.5-1.1-0.9c-0.3-0.3-0.5-0.8-0.7-1.2
			c-0.2-0.5-0.3-1-0.3-1.5S122.7,702.2,122.8,701.7z M124,704.5c0.1,0.3,0.3,0.7,0.5,0.9c0.2,0.3,0.5,0.4,0.7,0.5
			c0.3,0.1,0.6,0.2,0.9,0.2s0.6-0.1,0.9-0.2c0.3-0.1,0.5-0.3,0.7-0.5s0.4-0.5,0.5-0.9s0.2-0.7,0.2-1.2s-0.1-0.9-0.2-1.2
			s-0.3-0.7-0.5-0.9c-0.2-0.3-0.5-0.4-0.7-0.5c-0.3-0.1-0.6-0.2-0.9-0.2s-0.6,0.1-0.9,0.2c-0.3,0.1-0.5,0.3-0.7,0.5
			c-0.2,0.3-0.4,0.5-0.5,0.9c-0.1,0.3-0.2,0.7-0.2,1.2C123.8,703.7,123.9,704.1,124,704.5z"/>
		<path class="st4" d="M132.4,699.5v1.1l0,0c0.5-0.9,1.4-1.2,2.4-1.2c0.5,0,0.9,0.1,1.2,0.3c0.4,0.2,0.7,0.5,0.8,1
			c0.3-0.4,0.6-0.7,1-0.9s0.9-0.3,1.3-0.3c0.4,0,0.7,0.1,1,0.1c0.3,0.1,0.6,0.2,0.8,0.4s0.4,0.4,0.5,0.7s0.2,0.6,0.2,1v5.4h-1.2
			v-4.9c0-0.3,0-0.5-0.1-0.7s-0.1-0.4-0.2-0.5c-0.1-0.1-0.3-0.3-0.5-0.3c-0.2-0.1-0.5-0.1-0.7-0.1c-0.6,0-1,0.2-1.4,0.5
			c-0.3,0.3-0.5,0.8-0.5,1.4v4.7h-1.2v-4.9c0-0.3,0-0.5-0.1-0.7s-0.1-0.4-0.2-0.5c-0.1-0.1-0.3-0.3-0.4-0.3
			c-0.2-0.1-0.4-0.1-0.7-0.1s-0.7,0.1-0.9,0.2s-0.5,0.3-0.6,0.5s-0.3,0.4-0.3,0.7c-0.1,0.3-0.1,0.4-0.1,0.5v4.7h-1.2v-7.5
			L132.4,699.5L132.4,699.5z"/>
		<path class="st4" d="M144.6,699.5v1.1l0,0c0.5-0.9,1.4-1.2,2.4-1.2c0.5,0,0.9,0.1,1.2,0.3c0.4,0.2,0.7,0.5,0.8,1
			c0.3-0.4,0.6-0.7,1-0.9s0.9-0.3,1.3-0.3c0.4,0,0.7,0.1,1,0.1c0.3,0.1,0.6,0.2,0.8,0.4s0.4,0.4,0.5,0.7s0.2,0.6,0.2,1v5.4h-1.2
			v-4.9c0-0.3,0-0.5-0.1-0.7s-0.1-0.4-0.2-0.5c-0.1-0.1-0.3-0.3-0.5-0.3c-0.2-0.1-0.5-0.1-0.7-0.1c-0.6,0-1,0.2-1.4,0.5
			c-0.3,0.3-0.5,0.8-0.5,1.4v4.7H148v-4.9c0-0.3,0-0.5-0.1-0.7s-0.1-0.4-0.2-0.5c-0.1-0.1-0.3-0.3-0.4-0.3c-0.2-0.1-0.4-0.1-0.7-0.1
			s-0.7,0.1-0.9,0.2s-0.5,0.3-0.6,0.5s-0.3,0.4-0.3,0.7c-0.1,0.3-0.1,0.4-0.1,0.5v4.7h-1.2v-7.5L144.6,699.5L144.6,699.5z"/>
		<path class="st4" d="M161,706.5c-0.5,0.4-1.2,0.7-2.1,0.7c-0.6,0-1.1-0.1-1.6-0.3s-0.8-0.5-1.1-0.8s-0.5-0.8-0.7-1.2
			c-0.1-0.5-0.3-1-0.3-1.6s0.1-1.1,0.3-1.6s0.4-0.9,0.7-1.2s0.7-0.6,1.1-0.8c0.4-0.2,0.9-0.3,1.4-0.3c0.7,0,1.2,0.1,1.6,0.4
			c0.5,0.3,0.8,0.6,1,1c0.3,0.4,0.5,0.9,0.5,1.4c0.1,0.5,0.1,1,0.1,1.4h-5.6c0,0.3,0,0.7,0.1,0.9c0.1,0.3,0.2,0.5,0.4,0.8
			s0.5,0.4,0.7,0.5c0.3,0.1,0.7,0.2,1,0.2c0.5,0,0.9-0.1,1.2-0.3c0.3-0.3,0.5-0.6,0.7-1.1h1.2C161.9,705.5,161.6,706.1,161,706.5z
			 M160.7,701.7c-0.1-0.3-0.3-0.5-0.5-0.7s-0.4-0.3-0.7-0.5c-0.3-0.1-0.5-0.2-0.9-0.2s-0.6,0.1-0.9,0.2c-0.3,0.1-0.5,0.3-0.7,0.5
			s-0.3,0.4-0.5,0.7c-0.1,0.3-0.2,0.5-0.2,0.8h4.3C160.9,702.2,160.8,702,160.7,701.7z"/>
		<path class="st4" d="M164.6,699.5v1.6l0,0c0.3-0.6,0.7-1,1.1-1.3s1-0.4,1.6-0.4v1.3c-0.5,0-0.9,0.1-1.2,0.2
			c-0.3,0.1-0.6,0.3-0.9,0.6c-0.2,0.3-0.4,0.6-0.5,0.9c-0.1,0.3-0.1,0.8-0.1,1.2v3.3h-1.2v-7.5h1.2V699.5z"/>
		<path class="st4" d="M177.5,706.5c-0.5,0.4-1.2,0.7-2.1,0.7c-0.6,0-1.1-0.1-1.6-0.3s-0.8-0.5-1.1-0.8s-0.5-0.8-0.7-1.2
			c-0.1-0.5-0.3-1-0.3-1.6s0.1-1.1,0.3-1.6s0.4-0.9,0.7-1.2s0.7-0.6,1.1-0.8c0.4-0.2,0.9-0.3,1.4-0.3c0.7,0,1.2,0.1,1.6,0.4
			c0.5,0.3,0.8,0.6,1,1c0.3,0.4,0.5,0.9,0.5,1.4s0.1,1,0.1,1.4H173c0,0.3,0,0.7,0.1,0.9c0.1,0.3,0.2,0.5,0.4,0.8s0.5,0.4,0.7,0.5
			c0.3,0.1,0.7,0.2,1,0.2c0.5,0,0.9-0.1,1.2-0.3c0.3-0.3,0.5-0.6,0.7-1.1h1.2C178.4,705.5,178,706.1,177.5,706.5z M177.2,701.7
			c-0.1-0.3-0.3-0.5-0.5-0.7s-0.4-0.3-0.7-0.5c-0.3-0.1-0.5-0.2-0.9-0.2c-0.3,0-0.6,0.1-0.9,0.2c-0.3,0.1-0.5,0.3-0.7,0.5
			s-0.3,0.4-0.5,0.7c-0.1,0.3-0.2,0.5-0.2,0.8h4.3C177.4,702.2,177.3,702,177.2,701.7z"/>
		<path class="st4" d="M183.1,699.5v1.1h-1.5v4.7c0,0.1,0,0.3,0.1,0.3c0,0.1,0.1,0.1,0.1,0.2c0.1,0.1,0.1,0.1,0.3,0.1
			c0.1,0,0.3,0,0.5,0h0.6v1.1h-0.9c-0.3,0-0.6,0-0.8-0.1s-0.4-0.1-0.5-0.3c-0.1-0.1-0.3-0.3-0.3-0.5c-0.1-0.2-0.1-0.5-0.1-0.9v-4.7
			h-1.2v-1.1h1.2v-2.2h1.2v2.2L183.1,699.5L183.1,699.5z"/>
		<path class="st4" d="M195,707c-0.2,0.1-0.5,0.2-0.9,0.2c-0.3,0-0.6-0.1-0.7-0.3c-0.1-0.2-0.3-0.5-0.3-0.9
			c-0.3,0.4-0.7,0.7-1.2,0.9c-0.5,0.1-0.9,0.3-1.4,0.3c-0.3,0-0.7-0.1-1-0.1c-0.3-0.1-0.6-0.2-0.8-0.4c-0.2-0.1-0.4-0.4-0.5-0.7
			s-0.2-0.6-0.2-1s0.1-0.8,0.2-1c0.1-0.3,0.3-0.5,0.6-0.7s0.5-0.3,0.8-0.4c0.3-0.1,0.6-0.1,0.9-0.2c0.3-0.1,0.7-0.1,1-0.1
			c0.3-0.1,0.6-0.1,0.8-0.1c0.3-0.1,0.4-0.1,0.5-0.3c0.1-0.1,0.2-0.3,0.2-0.5c0-0.3-0.1-0.5-0.1-0.7c-0.1-0.2-0.3-0.3-0.4-0.4
			c-0.1-0.1-0.3-0.1-0.5-0.2c-0.2,0-0.4-0.1-0.6-0.1c-0.5,0-0.9,0.1-1.3,0.3c-0.3,0.2-0.5,0.6-0.6,1.1h-1.2c0-0.5,0.1-0.9,0.3-1.2
			s0.4-0.6,0.7-0.8s0.6-0.3,1-0.4c0.4-0.1,0.8-0.1,1.2-0.1c0.3,0,0.7,0,1,0.1s0.7,0.1,0.9,0.3s0.5,0.3,0.7,0.7
			c0.1,0.3,0.3,0.6,0.3,1v3.8c0,0.3,0,0.5,0.1,0.7c0.1,0.1,0.1,0.2,0.3,0.2c0.1,0,0.3,0,0.4-0.1v1.1H195z M193,703.2
			c-0.1,0.1-0.3,0.2-0.6,0.3s-0.5,0.1-0.8,0.1c-0.3,0.1-0.5,0.1-0.9,0.1c-0.3,0.1-0.5,0.1-0.7,0.2c-0.2,0.1-0.4,0.3-0.5,0.4
			c-0.1,0.2-0.2,0.4-0.2,0.7c0,0.2,0.1,0.4,0.1,0.5c0.1,0.1,0.2,0.3,0.3,0.3c0.1,0.1,0.3,0.1,0.5,0.2c0.2,0.1,0.3,0.1,0.5,0.1
			c0.4,0,0.7-0.1,1-0.2c0.3-0.1,0.5-0.3,0.7-0.4c0.2-0.2,0.3-0.3,0.4-0.5c0.1-0.2,0.1-0.4,0.1-0.5L193,703.2L193,703.2z"/>
		<path class="st4" d="M197.4,696.7V707h-1.2v-10.3H197.4z"/>
		<path class="st4" d="M201.2,705.4v1.6h-1.6v-1.6H201.2z"/>
		<path class="st4" d="M205.2,705.4v1.4c0,0.5-0.1,1-0.4,1.4c-0.3,0.4-0.7,0.7-1.2,0.9v-0.7c0.1-0.1,0.3-0.1,0.4-0.3
			c0.1-0.1,0.2-0.3,0.3-0.3c0.1-0.1,0.1-0.3,0.1-0.4c0-0.1,0-0.3,0-0.4h-0.9v-1.6L205.2,705.4L205.2,705.4z"/>
		<path class="st4" d="M211.2,699c0.1-0.5,0.3-0.9,0.7-1.1c0.3-0.3,0.7-0.6,1-0.8c0.4-0.2,0.9-0.3,1.4-0.3s0.9,0.1,1.2,0.2
			c0.4,0.1,0.7,0.3,1,0.6s0.5,0.5,0.7,0.9c0.1,0.4,0.3,0.8,0.3,1.2c0,0.5-0.1,0.9-0.2,1.2c-0.1,0.3-0.3,0.7-0.5,0.9
			c-0.3,0.3-0.5,0.5-0.8,0.7s-0.6,0.5-0.9,0.7s-0.7,0.4-0.9,0.6c-0.3,0.2-0.6,0.4-0.9,0.6c-0.3,0.2-0.5,0.5-0.7,0.7
			c-0.2,0.3-0.3,0.5-0.4,0.9h5.2v1.1h-6.6c0.1-0.6,0.1-1.1,0.3-1.6s0.4-0.8,0.7-1.1s0.5-0.6,0.9-0.9s0.7-0.5,1-0.7
			c0.5-0.3,0.8-0.5,1.1-0.7s0.6-0.5,0.8-0.7c0.2-0.3,0.4-0.5,0.5-0.7c0.1-0.3,0.2-0.6,0.2-0.9c0-0.3-0.1-0.5-0.1-0.8
			c-0.1-0.2-0.3-0.4-0.4-0.6c-0.2-0.1-0.4-0.3-0.7-0.4c-0.3-0.1-0.5-0.1-0.8-0.1s-0.7,0.1-0.9,0.2c-0.3,0.1-0.5,0.3-0.7,0.6
			c-0.1,0.3-0.3,0.5-0.3,0.8s-0.1,0.6-0.1,0.9h-1.2C211,699.9,211.1,699.4,211.2,699z"/>
		<path class="st4" d="M219,700.8c0-0.4,0.1-0.8,0.1-1.2c0.1-0.4,0.2-0.7,0.3-1.1c0.1-0.3,0.3-0.7,0.6-0.9s0.6-0.5,0.9-0.6
			c0.4-0.1,0.9-0.3,1.4-0.3s1,0.1,1.4,0.3c0.4,0.1,0.7,0.3,0.9,0.6c0.3,0.3,0.5,0.6,0.6,0.9c0.1,0.3,0.3,0.7,0.3,1.1
			c0.1,0.4,0.1,0.8,0.1,1.2s0,0.8,0,1.2s0,0.8,0,1.2s-0.1,0.8-0.1,1.2c-0.1,0.4-0.2,0.7-0.3,1.1c-0.1,0.3-0.3,0.7-0.6,0.9
			c-0.3,0.3-0.6,0.5-0.9,0.6c-0.4,0.1-0.9,0.2-1.4,0.2s-1-0.1-1.4-0.2c-0.4-0.1-0.7-0.3-0.9-0.6c-0.3-0.3-0.5-0.6-0.6-0.9
			c-0.1-0.3-0.3-0.7-0.3-1.1c-0.1-0.4-0.1-0.8-0.1-1.2s0-0.8,0-1.2S219,701.2,219,700.8z M220.3,703.2c0,0.5,0.1,0.9,0.3,1.3
			c0.1,0.4,0.3,0.8,0.7,1c0.3,0.3,0.7,0.5,1.2,0.5s0.9-0.1,1.2-0.5c0.3-0.3,0.5-0.7,0.7-1c0.1-0.4,0.2-0.9,0.3-1.3
			c0-0.5,0.1-0.9,0.1-1.3c0-0.3,0-0.5,0-0.9s0-0.6-0.1-0.9c-0.1-0.3-0.1-0.6-0.2-0.9c-0.1-0.3-0.2-0.5-0.3-0.8s-0.3-0.4-0.6-0.5
			s-0.5-0.2-0.9-0.2c-0.3,0-0.7,0.1-0.9,0.2c-0.3,0.1-0.5,0.3-0.6,0.5s-0.3,0.5-0.3,0.8c-0.1,0.3-0.1,0.6-0.2,0.9
			c-0.1,0.3-0.1,0.6-0.1,0.9s0,0.6,0,0.9C220.3,702.4,220.3,702.8,220.3,703.2z"/>
		<path class="st4" d="M227,700.8c0-0.4,0.1-0.8,0.1-1.2c0.1-0.4,0.2-0.7,0.3-1.1c0.1-0.3,0.3-0.7,0.6-0.9s0.6-0.5,0.9-0.6
			c0.4-0.1,0.9-0.3,1.4-0.3s1,0.1,1.4,0.3c0.4,0.1,0.7,0.3,0.9,0.6c0.3,0.3,0.5,0.6,0.6,0.9c0.1,0.3,0.3,0.7,0.3,1.1
			c0.1,0.4,0.1,0.8,0.1,1.2s0,0.8,0,1.2s0,0.8,0,1.2s-0.1,0.8-0.1,1.2c-0.1,0.4-0.2,0.7-0.3,1.1c-0.1,0.3-0.3,0.7-0.6,0.9
			c-0.3,0.3-0.6,0.5-0.9,0.6c-0.4,0.1-0.9,0.2-1.4,0.2s-1-0.1-1.4-0.2c-0.4-0.1-0.7-0.3-0.9-0.6c-0.3-0.3-0.5-0.6-0.6-0.9
			c-0.1-0.3-0.3-0.7-0.3-1.1c-0.1-0.4-0.1-0.8-0.1-1.2s0-0.8,0-1.2S227,701.2,227,700.8z M228.3,703.2c0,0.5,0.1,0.9,0.3,1.3
			c0.1,0.4,0.3,0.8,0.7,1c0.3,0.3,0.7,0.5,1.2,0.5s0.9-0.1,1.2-0.5c0.3-0.3,0.5-0.7,0.7-1c0.1-0.4,0.2-0.9,0.3-1.3
			c0-0.5,0.1-0.9,0.1-1.3c0-0.3,0-0.5,0-0.9s0-0.6-0.1-0.9c-0.1-0.3-0.1-0.6-0.2-0.9c-0.1-0.3-0.2-0.5-0.3-0.8s-0.3-0.4-0.6-0.5
			s-0.5-0.2-0.9-0.2c-0.3,0-0.7,0.1-0.9,0.2c-0.3,0.1-0.5,0.3-0.6,0.5s-0.3,0.5-0.3,0.8c-0.1,0.3-0.1,0.6-0.2,0.9
			c-0.1,0.3-0.1,0.6-0.1,0.9s0,0.6,0,0.9C228.3,702.4,228.3,702.8,228.3,703.2z"/>
		<path class="st4" d="M236.9,705.6c0.3,0.3,0.8,0.4,1.2,0.4c0.7,0,1.3-0.3,1.7-1s0.6-1.6,0.6-3l0,0c-0.3,0.5-0.5,0.8-1,1
			c-0.5,0.3-0.9,0.4-1.4,0.4s-1-0.1-1.4-0.3s-0.7-0.4-1-0.7s-0.5-0.7-0.6-1.1c-0.1-0.4-0.2-0.9-0.2-1.4s0.1-0.9,0.3-1.4
			c0.1-0.4,0.4-0.8,0.7-1c0.3-0.3,0.7-0.5,1-0.7c0.4-0.1,0.9-0.3,1.4-0.3s0.9,0.1,1.4,0.2c0.5,0.1,0.8,0.4,1.1,0.8
			c0.3,0.4,0.6,0.9,0.7,1.5c0.1,0.7,0.3,1.4,0.3,2.4c0,1.8-0.3,3.1-0.9,4.1s-1.4,1.4-2.7,1.4c-0.9,0-1.6-0.2-2.1-0.7s-0.9-1.1-1-2
			h1.2C236.3,705,236.5,705.4,236.9,705.6z M240.1,699.3c-0.1-0.3-0.2-0.5-0.4-0.7s-0.4-0.4-0.7-0.5s-0.6-0.2-0.9-0.2
			c-0.4,0-0.7,0.1-0.9,0.2s-0.5,0.3-0.6,0.5s-0.3,0.5-0.3,0.8c-0.1,0.3-0.1,0.6-0.1,0.9c0,0.3,0.1,0.5,0.1,0.8
			c0.1,0.3,0.3,0.5,0.4,0.7c0.2,0.2,0.4,0.4,0.7,0.5s0.5,0.2,0.8,0.2s0.6-0.1,0.9-0.2c0.3-0.1,0.5-0.3,0.7-0.5s0.3-0.5,0.4-0.7
			c0.1-0.3,0.1-0.6,0.1-0.9C240.3,699.9,240.2,699.5,240.1,699.3z"/>
		<path class="st4" d="M243.6,701.1v-1.6h1.6v1.6H243.6z M245.1,705.4v1.6h-1.6v-1.6H245.1z"/>
		<path class="st4" d="M255.2,696.7c0.2,0,0.5,0,0.7,0c0.2,0,0.5,0,0.7,0.1c0.3,0,0.5,0.1,0.7,0.1c0.2,0.1,0.4,0.1,0.5,0.2
			c0.3,0.2,0.6,0.5,0.9,0.9c0.3,0.3,0.3,0.8,0.3,1.3s-0.1,1-0.4,1.4s-0.7,0.7-1.1,0.9l0,0c0.7,0.1,1.1,0.4,1.4,0.9s0.5,1,0.5,1.6
			c0,0.4-0.1,0.7-0.2,1.1s-0.3,0.7-0.6,0.9c-0.3,0.3-0.6,0.5-1,0.7c-0.4,0.1-0.9,0.3-1.3,0.3h-5v-10.3L255.2,696.7L255.2,696.7z
			 M255.6,701.1c0.8,0,1.3-0.1,1.7-0.4c0.3-0.3,0.5-0.7,0.5-1.2c0-0.4-0.1-0.7-0.2-0.9s-0.3-0.4-0.5-0.5s-0.5-0.2-0.7-0.2
			c-0.3-0.1-0.5-0.1-0.9-0.1h-2.8v3.3L255.6,701.1L255.6,701.1z M256.3,705.8c0.6,0,1-0.1,1.4-0.5c0.4-0.3,0.5-0.8,0.5-1.4
			c0-0.3-0.1-0.6-0.2-0.9c-0.1-0.2-0.3-0.4-0.5-0.5s-0.5-0.2-0.7-0.3c-0.3-0.1-0.5-0.1-0.9-0.1h-3.1v3.5L256.3,705.8L256.3,705.8z"
			/>
		<path class="st4" d="M267.7,707c-0.2,0.1-0.5,0.2-0.9,0.2c-0.3,0-0.6-0.1-0.7-0.3s-0.3-0.5-0.3-0.9c-0.3,0.4-0.7,0.7-1.2,0.9
			c-0.5,0.1-0.9,0.3-1.4,0.3c-0.3,0-0.7-0.1-1-0.1c-0.3-0.1-0.6-0.2-0.8-0.4c-0.2-0.1-0.4-0.4-0.5-0.7s-0.2-0.6-0.2-1s0.1-0.8,0.2-1
			c0.1-0.3,0.3-0.5,0.6-0.7s0.5-0.3,0.8-0.4c0.3-0.1,0.6-0.1,0.9-0.2c0.3-0.1,0.7-0.1,1-0.1c0.3-0.1,0.6-0.1,0.8-0.1
			c0.3-0.1,0.4-0.1,0.5-0.3s0.2-0.3,0.2-0.5c0-0.3-0.1-0.5-0.1-0.7c-0.1-0.2-0.3-0.3-0.4-0.4c-0.1-0.1-0.3-0.1-0.5-0.2
			c-0.2,0-0.4-0.1-0.6-0.1c-0.5,0-0.9,0.1-1.3,0.3c-0.3,0.2-0.5,0.6-0.6,1.1H261c0-0.5,0.1-0.9,0.3-1.2c0.2-0.3,0.4-0.6,0.7-0.8
			c0.3-0.2,0.6-0.3,1-0.4c0.4-0.1,0.8-0.1,1.2-0.1c0.3,0,0.7,0,1,0.1s0.7,0.1,0.9,0.3s0.5,0.3,0.7,0.7c0.1,0.3,0.3,0.6,0.3,1v3.8
			c0,0.3,0,0.5,0.1,0.7c0.1,0.1,0.1,0.2,0.3,0.2c0.1,0,0.3,0,0.4-0.1v1.1H267.7z M265.7,703.2c-0.1,0.1-0.3,0.2-0.6,0.3
			s-0.5,0.1-0.8,0.1c-0.3,0.1-0.5,0.1-0.9,0.1c-0.3,0.1-0.5,0.1-0.7,0.2c-0.2,0.1-0.4,0.3-0.5,0.4c-0.1,0.2-0.2,0.4-0.2,0.7
			c0,0.2,0.1,0.4,0.1,0.5c0.1,0.1,0.2,0.3,0.3,0.3c0.1,0.1,0.3,0.1,0.5,0.2c0.2,0.1,0.3,0.1,0.5,0.1c0.4,0,0.7-0.1,1-0.2
			c0.3-0.1,0.5-0.3,0.7-0.4c0.2-0.2,0.3-0.3,0.4-0.5s0.1-0.4,0.1-0.5L265.7,703.2L265.7,703.2z"/>
		<path class="st4" d="M273.9,707v-1.2l0,0c-0.3,0.5-0.6,0.8-1,1s-0.9,0.3-1.4,0.3s-0.9-0.1-1.2-0.2c-0.3-0.1-0.6-0.3-0.8-0.5
			c-0.2-0.3-0.3-0.5-0.4-0.9s-0.1-0.7-0.1-1.1v-4.9h1.2v5.1c0,0.5,0.1,0.9,0.4,1.1c0.3,0.3,0.7,0.4,1.1,0.4s0.7-0.1,1-0.2
			c0.3-0.1,0.5-0.3,0.7-0.5s0.3-0.5,0.4-0.7c0.1-0.3,0.1-0.6,0.1-0.9v-4.2h1.2v7.5L273.9,707L273.9,707L273.9,707z"/>
		<path class="st4" d="M282.1,706.5c-0.5,0.4-1.2,0.7-2.1,0.7c-0.6,0-1.1-0.1-1.6-0.3s-0.8-0.5-1.1-0.8c-0.3-0.3-0.5-0.8-0.7-1.2
			c-0.1-0.5-0.3-1-0.3-1.6s0.1-1.1,0.3-1.6c0.2-0.5,0.4-0.9,0.7-1.2c0.3-0.3,0.7-0.6,1.1-0.8s0.9-0.3,1.4-0.3c0.7,0,1.2,0.1,1.6,0.4
			c0.5,0.3,0.8,0.6,1,1c0.3,0.4,0.5,0.9,0.5,1.4s0.1,1,0.1,1.4h-5.6c0,0.3,0,0.7,0.1,0.9c0.1,0.3,0.2,0.5,0.4,0.8s0.5,0.4,0.7,0.5
			c0.3,0.1,0.7,0.2,1,0.2c0.5,0,0.9-0.1,1.2-0.3c0.3-0.3,0.5-0.6,0.7-1.1h1.2C283,705.5,282.6,706.1,282.1,706.5z M281.8,701.7
			c-0.1-0.3-0.3-0.5-0.5-0.7s-0.4-0.3-0.7-0.5c-0.3-0.1-0.5-0.2-0.9-0.2c-0.3,0-0.6,0.1-0.9,0.2c-0.3,0.1-0.5,0.3-0.7,0.5
			s-0.3,0.4-0.5,0.7c-0.1,0.3-0.2,0.5-0.2,0.8h4.3C281.9,702.2,281.9,702,281.8,701.7z"/>
		<path class="st4" d="M285.7,699.5v1.2l0,0c0.5-0.9,1.3-1.4,2.4-1.4c0.5,0,0.9,0.1,1.2,0.2c0.3,0.1,0.6,0.3,0.8,0.6
			s0.3,0.5,0.4,0.9c0.1,0.3,0.1,0.7,0.1,1.1v4.9h-1.2v-5c0-0.5-0.1-0.9-0.4-1.1s-0.7-0.4-1.1-0.4s-0.7,0.1-1,0.2s-0.5,0.3-0.7,0.5
			s-0.3,0.5-0.4,0.7c-0.1,0.3-0.1,0.6-0.1,0.9v4.2h-1.2v-7.5L285.7,699.5L285.7,699.5z"/>
		<path class="st4" d="M296.6,698.2v-1.5h1.2v1.5H296.6z M297.8,699.5v7.5h-1.2v-7.5H297.8z"/>
		<path class="st4" d="M300.8,699.5v1.1l0,0c0.5-0.9,1.4-1.2,2.4-1.2c0.5,0,0.9,0.1,1.2,0.3c0.4,0.2,0.7,0.5,0.8,1
			c0.3-0.4,0.6-0.7,1-0.9s0.9-0.3,1.3-0.3s0.7,0.1,1,0.1c0.3,0.1,0.6,0.2,0.8,0.4c0.2,0.2,0.4,0.4,0.5,0.7s0.2,0.6,0.2,1v5.4h-1.2
			v-4.9c0-0.3,0-0.5-0.1-0.7s-0.1-0.4-0.2-0.5s-0.3-0.3-0.5-0.3c-0.2-0.1-0.5-0.1-0.7-0.1c-0.6,0-1,0.2-1.4,0.5
			c-0.3,0.3-0.5,0.8-0.5,1.4v4.7h-1.2v-4.9c0-0.3,0-0.5-0.1-0.7s-0.1-0.4-0.2-0.5s-0.3-0.3-0.4-0.3c-0.2-0.1-0.4-0.1-0.7-0.1
			c-0.3,0-0.7,0.1-0.9,0.2s-0.5,0.3-0.6,0.5s-0.3,0.4-0.3,0.7c-0.1,0.3-0.1,0.4-0.1,0.5v4.7h-1.2v-7.5L300.8,699.5L300.8,699.5z"/>
		<path class="st4" d="M320.6,696.7c1,0,1.8,0.3,2.4,0.8c0.5,0.5,0.8,1.3,0.8,2.2c0,1-0.3,1.7-0.8,2.2s-1.3,0.8-2.4,0.8h-3.1v4.2
			h-1.3v-10.3L320.6,696.7L320.6,696.7z M320.2,701.6c0.8,0,1.3-0.1,1.7-0.5c0.3-0.3,0.5-0.8,0.5-1.4c0-0.6-0.2-1.1-0.5-1.4
			c-0.3-0.3-0.9-0.5-1.7-0.5h-2.7v3.8L320.2,701.6L320.2,701.6z"/>
		<path class="st4" d="M330.5,706.5c-0.5,0.4-1.2,0.7-2.1,0.7c-0.6,0-1.1-0.1-1.6-0.3s-0.8-0.5-1.1-0.8c-0.3-0.3-0.5-0.8-0.7-1.2
			c-0.1-0.5-0.3-1-0.3-1.6s0.1-1.1,0.3-1.6c0.2-0.5,0.4-0.9,0.7-1.2c0.3-0.3,0.7-0.6,1.1-0.8s0.9-0.3,1.4-0.3c0.7,0,1.2,0.1,1.6,0.4
			c0.5,0.3,0.8,0.6,1,1c0.3,0.4,0.5,0.9,0.5,1.4s0.1,1,0.1,1.4h-5.6c0,0.3,0,0.7,0.1,0.9c0.1,0.3,0.2,0.5,0.4,0.8s0.5,0.4,0.7,0.5
			c0.3,0.1,0.7,0.2,1,0.2c0.5,0,0.9-0.1,1.2-0.3c0.3-0.3,0.5-0.6,0.7-1.1h1.2C331.5,705.5,331.1,706.1,330.5,706.5z M330.2,701.7
			c-0.1-0.3-0.3-0.5-0.5-0.7s-0.4-0.3-0.7-0.5c-0.3-0.1-0.5-0.2-0.9-0.2c-0.3,0-0.6,0.1-0.9,0.2c-0.3,0.1-0.5,0.3-0.7,0.5
			s-0.3,0.4-0.5,0.7c-0.1,0.3-0.2,0.5-0.2,0.8h4.3C330.4,702.2,330.3,702,330.2,701.7z"/>
		<path class="st4" d="M334.1,699.5v1.6l0,0c0.3-0.6,0.7-1,1.1-1.3c0.5-0.3,1-0.4,1.6-0.4v1.3c-0.5,0-0.9,0.1-1.2,0.2
			c-0.3,0.1-0.6,0.3-0.9,0.6c-0.2,0.3-0.4,0.6-0.5,0.9c-0.1,0.3-0.1,0.8-0.1,1.2v3.3h-1.2v-7.5h1.2V699.5z"/>
		<path class="st4" d="M338.9,699.5v1.1l0,0c0.5-0.9,1.4-1.2,2.4-1.2c0.5,0,0.9,0.1,1.2,0.3c0.4,0.2,0.7,0.5,0.8,1
			c0.3-0.4,0.6-0.7,1-0.9s0.9-0.3,1.3-0.3s0.7,0.1,1,0.1c0.3,0.1,0.6,0.2,0.8,0.4c0.2,0.2,0.4,0.4,0.5,0.7s0.2,0.6,0.2,1v5.4h-1.2
			v-4.9c0-0.3,0-0.5-0.1-0.7s-0.1-0.4-0.2-0.5s-0.3-0.3-0.5-0.3c-0.2-0.1-0.5-0.1-0.7-0.1c-0.6,0-1,0.2-1.4,0.5
			c-0.3,0.3-0.5,0.8-0.5,1.4v4.7h-1.2v-4.9c0-0.3,0-0.5-0.1-0.7s-0.1-0.4-0.2-0.5s-0.3-0.3-0.4-0.3c-0.1-0.1-0.4-0.1-0.7-0.1
			c-0.3,0-0.7,0.1-0.9,0.2c-0.3,0.1-0.5,0.3-0.6,0.5s-0.3,0.4-0.3,0.7c-0.1,0.3-0.1,0.4-0.1,0.5v4.7h-1.2v-7.5L338.9,699.5
			L338.9,699.5z"/>
		<path class="st4" d="M356.6,707c-0.2,0.1-0.5,0.2-0.9,0.2s-0.6-0.1-0.8-0.3c-0.2-0.2-0.3-0.5-0.3-0.9c-0.3,0.4-0.7,0.7-1.2,0.9
			s-0.9,0.3-1.4,0.3c-0.3,0-0.7-0.1-1-0.1c-0.3-0.1-0.6-0.2-0.8-0.4c-0.2-0.1-0.4-0.4-0.5-0.7s-0.2-0.6-0.2-1s0.1-0.8,0.2-1
			c0.1-0.3,0.3-0.5,0.6-0.7c0.3-0.2,0.5-0.3,0.8-0.4c0.3-0.1,0.6-0.1,0.9-0.2c0.3-0.1,0.7-0.1,1-0.1c0.3-0.1,0.6-0.1,0.8-0.1
			c0.2-0.1,0.4-0.1,0.5-0.3c0.1-0.1,0.2-0.3,0.2-0.5c0-0.3-0.1-0.5-0.1-0.7c-0.1-0.2-0.3-0.3-0.4-0.4c-0.1-0.1-0.3-0.1-0.5-0.2
			c-0.2,0-0.4-0.1-0.6-0.1c-0.5,0-0.9,0.1-1.3,0.3s-0.5,0.6-0.6,1.1h-1.2c0-0.5,0.1-0.9,0.3-1.2c0.2-0.3,0.4-0.6,0.7-0.8
			c0.3-0.2,0.6-0.3,1-0.4c0.4-0.1,0.8-0.1,1.2-0.1c0.3,0,0.7,0,1,0.1s0.7,0.1,0.9,0.3c0.3,0.1,0.5,0.3,0.7,0.7
			c0.2,0.3,0.3,0.6,0.3,1v3.8c0,0.3,0,0.5,0.1,0.7s0.1,0.2,0.3,0.2c0.1,0,0.3,0,0.4-0.1L356.6,707L356.6,707z M354.6,703.2
			c-0.1,0.1-0.3,0.2-0.6,0.3c-0.3,0.1-0.5,0.1-0.8,0.1c-0.3,0.1-0.5,0.1-0.9,0.1c-0.3,0.1-0.5,0.1-0.7,0.2c-0.2,0.1-0.4,0.3-0.5,0.4
			c-0.1,0.2-0.2,0.4-0.2,0.7c0,0.2,0.1,0.4,0.1,0.5c0.1,0.1,0.2,0.3,0.3,0.3c0.1,0.1,0.3,0.1,0.5,0.2c0.2,0.1,0.3,0.1,0.5,0.1
			c0.4,0,0.7-0.1,1-0.2c0.3-0.1,0.5-0.3,0.7-0.4c0.2-0.2,0.3-0.3,0.4-0.5s0.1-0.4,0.1-0.5L354.6,703.2L354.6,703.2z"/>
		<path class="st4" d="M357,700.6v-1.1h1.2v-1.1c0-0.6,0.2-1,0.5-1.4c0.3-0.3,0.9-0.5,1.5-0.5c0.1,0,0.3,0,0.4,0s0.3,0.1,0.4,0.1v1
			c-0.1-0.1-0.2-0.1-0.3-0.1c-0.1,0-0.3,0-0.3,0c-0.3,0-0.5,0.1-0.7,0.2c-0.1,0.1-0.3,0.3-0.3,0.7v1h1.4v1.1h-1.4v6.4h-1.2v-6.4
			L357,700.6L357,700.6z"/>
		<path class="st4" d="M363.1,699.5v1.6l0,0c0.3-0.6,0.7-1,1.1-1.3s1-0.4,1.6-0.4v1.3c-0.5,0-0.9,0.1-1.2,0.2
			c-0.3,0.1-0.6,0.3-0.9,0.6c-0.2,0.3-0.4,0.6-0.5,0.9c-0.1,0.3-0.1,0.8-0.1,1.2v3.3h-1.2v-7.5h1.2V699.5z"/>
		<path class="st4" d="M366.4,701.7c0.1-0.5,0.4-0.9,0.7-1.2c0.3-0.3,0.7-0.7,1.1-0.9s1-0.3,1.6-0.3s1.1,0.1,1.6,0.3
			s0.9,0.5,1.1,0.9c0.3,0.3,0.5,0.8,0.7,1.2c0.1,0.5,0.3,1,0.3,1.5s-0.1,1-0.3,1.5c-0.1,0.5-0.4,0.9-0.7,1.2
			c-0.3,0.3-0.7,0.7-1.1,0.9s-1,0.3-1.6,0.3s-1.1-0.1-1.6-0.3s-0.9-0.5-1.1-0.9c-0.3-0.3-0.5-0.8-0.7-1.2c-0.1-0.5-0.2-1-0.2-1.5
			S366.2,702.2,366.4,701.7z M367.6,704.5c0.1,0.3,0.3,0.7,0.5,0.9c0.2,0.3,0.5,0.4,0.7,0.5c0.3,0.1,0.6,0.2,0.9,0.2
			s0.6-0.1,0.9-0.2c0.3-0.1,0.5-0.3,0.7-0.5c0.2-0.3,0.4-0.5,0.5-0.9s0.2-0.7,0.2-1.2s-0.1-0.9-0.2-1.2s-0.3-0.7-0.5-0.9
			c-0.2-0.3-0.5-0.4-0.7-0.5c-0.3-0.1-0.6-0.2-0.9-0.2s-0.6,0.1-0.9,0.2c-0.3,0.1-0.5,0.3-0.7,0.5c-0.2,0.3-0.4,0.5-0.5,0.9
			s-0.2,0.7-0.2,1.2C367.4,703.7,367.5,704.1,367.6,704.5z"/>
		<path class="st4" d="M375.7,705.3c0.1,0.2,0.3,0.3,0.5,0.5c0.2,0.1,0.4,0.2,0.7,0.3c0.3,0.1,0.5,0.1,0.7,0.1s0.4,0,0.6-0.1
			c0.2,0,0.4-0.1,0.6-0.1s0.3-0.2,0.5-0.3c0.1-0.1,0.2-0.3,0.2-0.6s-0.1-0.6-0.3-0.7c-0.3-0.1-0.5-0.3-0.9-0.4
			c-0.4-0.1-0.7-0.2-1.2-0.3c-0.4-0.1-0.8-0.2-1.2-0.3c-0.3-0.1-0.7-0.3-0.9-0.7c-0.3-0.3-0.3-0.7-0.3-1.1c0-0.4,0.1-0.7,0.3-1
			c0.2-0.3,0.4-0.5,0.7-0.7s0.6-0.3,0.9-0.4c0.3-0.1,0.7-0.1,1-0.1c0.4,0,0.8,0.1,1.2,0.1c0.3,0.1,0.7,0.2,0.9,0.4s0.5,0.4,0.7,0.7
			s0.3,0.7,0.3,1.1h-1.2c0-0.3-0.1-0.5-0.2-0.6s-0.3-0.3-0.4-0.4c-0.1-0.1-0.3-0.2-0.5-0.2c-0.2-0.1-0.4-0.1-0.6-0.1s-0.4,0-0.5,0.1
			c-0.2,0-0.3,0.1-0.5,0.1c-0.1,0.1-0.3,0.2-0.4,0.3s-0.1,0.3-0.1,0.5s0.1,0.4,0.2,0.5s0.3,0.3,0.6,0.3c0.2,0.1,0.5,0.2,0.8,0.3
			s0.6,0.1,0.9,0.2c0.3,0.1,0.6,0.1,0.9,0.3c0.3,0.1,0.5,0.2,0.8,0.4c0.2,0.1,0.4,0.3,0.5,0.6s0.2,0.5,0.2,0.9
			c0,0.5-0.1,0.9-0.3,1.1c-0.2,0.3-0.5,0.5-0.7,0.7c-0.3,0.2-0.7,0.3-1,0.4c-0.4,0.1-0.7,0.1-1.1,0.1s-0.8-0.1-1.2-0.1
			c-0.4-0.1-0.7-0.2-1-0.4s-0.5-0.5-0.7-0.8s-0.3-0.7-0.3-1.2h1.2C375.5,704.9,375.5,705.1,375.7,705.3z"/>
		<path class="st4" d="M385.1,699.5v1.1h-1.5v4.7c0,0.1,0,0.3,0.1,0.3c0,0.1,0.1,0.1,0.1,0.2c0.1,0.1,0.1,0.1,0.3,0.1
			c0.1,0,0.3,0,0.5,0h0.6v1.1h-0.9c-0.3,0-0.6,0-0.8-0.1c-0.2-0.1-0.4-0.1-0.5-0.3c-0.1-0.1-0.3-0.3-0.3-0.5s-0.1-0.5-0.1-0.9v-4.7
			h-1.3v-1.1h1.2v-2.2h1.2v2.2L385.1,699.5L385.1,699.5z"/>
		<path class="st4" d="M388.3,705.4v1.6h-1.6v-1.6H388.3z"/>
		<path class="st4" d="M399.8,698.1c-0.5-0.3-1-0.5-1.8-0.5c-0.3,0-0.6,0-0.9,0.1s-0.5,0.1-0.7,0.3c-0.2,0.1-0.4,0.3-0.5,0.5
			s-0.2,0.5-0.2,0.9s0.1,0.6,0.3,0.8c0.2,0.2,0.5,0.3,0.7,0.5s0.7,0.2,1,0.3c0.4,0.1,0.8,0.2,1.2,0.3c0.4,0.1,0.8,0.2,1.2,0.3
			c0.4,0.1,0.7,0.3,1,0.5s0.6,0.5,0.7,0.9c0.2,0.3,0.3,0.8,0.3,1.2c0,0.5-0.1,1-0.4,1.4c-0.3,0.3-0.6,0.7-0.9,1s-0.8,0.4-1.3,0.5
			s-0.9,0.2-1.4,0.2c-0.6,0-1.1-0.1-1.6-0.2c-0.5-0.1-1-0.4-1.4-0.7s-0.7-0.7-0.9-1.1c-0.2-0.5-0.3-1-0.3-1.6h1.3
			c0,0.5,0.1,0.8,0.3,1.1s0.4,0.6,0.7,0.8c0.3,0.2,0.6,0.3,1,0.5c0.4,0.1,0.7,0.1,1.1,0.1c0.3,0,0.6,0,0.9-0.1s0.6-0.1,0.9-0.3
			c0.3-0.1,0.5-0.3,0.6-0.6s0.2-0.5,0.2-0.9c0-0.3-0.1-0.7-0.3-0.9c-0.2-0.2-0.5-0.4-0.7-0.5c-0.3-0.1-0.7-0.3-1-0.3
			c-0.4-0.1-0.8-0.2-1.2-0.3c-0.4-0.1-0.8-0.2-1.2-0.3c-0.4-0.1-0.7-0.3-1-0.5s-0.6-0.5-0.7-0.8c-0.2-0.3-0.3-0.7-0.3-1.2
			s0.1-1,0.3-1.4c0.2-0.4,0.5-0.7,0.9-0.9c0.3-0.3,0.7-0.5,1.2-0.5c0.5-0.1,0.9-0.2,1.4-0.2s1,0.1,1.4,0.2c0.5,0.1,0.9,0.3,1.2,0.6
			c0.3,0.3,0.6,0.6,0.8,1c0.2,0.4,0.3,0.9,0.3,1.4h-1.3C400.5,699,400.2,698.4,399.8,698.1z"/>
		<path class="st4" d="M405.3,696.7v9.1h5.4v1.2h-6.8v-10.3H405.3z"/>
		<path class="st4" d="M418.7,696.7v1.2h-5.4v3.3h4.7v1.2h-4.7v4.7h-1.4v-10.3L418.7,696.7L418.7,696.7z"/>
		<path class="st4" d="M424.1,696.5l-4.3,10.8h-1l4.3-10.8H424.1z"/>
		<path class="st4" d="M432.8,707l-2.4-8.7l0,0L428,707h-1.4l-2.6-10.3h1.4l2,8.6l0,0l2.3-8.6h1.5l2.3,8.6l0,0l2.1-8.6h1.4
			l-2.8,10.3H432.8z"/>
		<path class="st4" d="M443.4,698.1c-0.5-0.3-1-0.5-1.8-0.5c-0.3,0-0.6,0-0.9,0.1s-0.5,0.1-0.7,0.3c-0.2,0.1-0.4,0.3-0.5,0.5
			s-0.2,0.5-0.2,0.9s0.1,0.6,0.3,0.8c0.2,0.2,0.5,0.3,0.7,0.5s0.7,0.2,1,0.3c0.4,0.1,0.8,0.2,1.2,0.3c0.4,0.1,0.8,0.2,1.2,0.3
			c0.4,0.1,0.7,0.3,1,0.5s0.6,0.5,0.7,0.9c0.2,0.3,0.3,0.8,0.3,1.2c0,0.5-0.1,1-0.4,1.4c-0.3,0.3-0.6,0.7-0.9,1s-0.8,0.4-1.3,0.5
			s-0.9,0.2-1.4,0.2c-0.6,0-1.1-0.1-1.6-0.2c-0.5-0.1-1-0.4-1.4-0.7s-0.7-0.7-0.9-1.1c-0.2-0.5-0.3-1-0.3-1.6h1.3
			c0,0.5,0.1,0.8,0.3,1.1s0.4,0.6,0.7,0.8c0.3,0.2,0.6,0.3,1,0.5c0.4,0.1,0.7,0.1,1.1,0.1c0.3,0,0.6,0,0.9-0.1s0.6-0.1,0.9-0.3
			c0.3-0.1,0.5-0.3,0.6-0.6s0.2-0.5,0.2-0.9c0-0.3-0.1-0.7-0.3-0.9c-0.2-0.2-0.5-0.4-0.7-0.5c-0.3-0.1-0.7-0.3-1-0.3
			c-0.4-0.1-0.8-0.2-1.2-0.3c-0.4-0.1-0.8-0.2-1.2-0.3c-0.4-0.1-0.7-0.3-1-0.5s-0.6-0.5-0.7-0.8c-0.2-0.3-0.3-0.7-0.3-1.2
			s0.1-1,0.3-1.4c0.2-0.4,0.5-0.7,0.9-0.9c0.3-0.3,0.7-0.5,1.2-0.5c0.5-0.1,0.9-0.2,1.4-0.2s1,0.1,1.4,0.2c0.5,0.1,0.9,0.3,1.2,0.6
			c0.3,0.3,0.6,0.6,0.8,1c0.2,0.4,0.3,0.9,0.3,1.4h-1.3C444.2,699,443.8,698.4,443.4,698.1z"/>
		<path class="st4" d="M448.9,696.7v9.1h5.4v1.2h-6.8v-10.3H448.9z"/>
		<path class="st4" d="M457.2,705.4v1.6h-1.6v-1.6H457.2z"/>
	</g>
	<g class="st3">
		<path class="st4" d="M13.6,713.7V724h-1.4v-10.3H13.6z"/>
		<path class="st4" d="M17,713.7V724h-1.2v-10.3H17z"/>
		<path class="st4" d="M20.3,713.7V724H19v-10.3H20.3z"/>
		<path class="st4" d="M27.1,724v-1.2l0,0c-0.3,0.5-0.6,0.8-1,1s-0.9,0.3-1.4,0.3s-0.9-0.1-1.2-0.2s-0.6-0.3-0.8-0.5
			c-0.2-0.3-0.3-0.5-0.4-0.9c-0.1-0.3-0.1-0.7-0.1-1.1v-4.9h1.2v5.1c0,0.5,0.1,0.9,0.4,1.1c0.3,0.3,0.7,0.4,1.1,0.4s0.7-0.1,1-0.2
			c0.3-0.1,0.5-0.3,0.7-0.5s0.3-0.5,0.4-0.7c0.1-0.3,0.1-0.6,0.1-0.9v-4.2h1.2v7.5L27.1,724C27.1,724.1,27.1,724,27.1,724z"/>
		<path class="st4" d="M31,722.4c0.1,0.2,0.3,0.3,0.5,0.5c0.2,0.1,0.4,0.2,0.7,0.3c0.3,0.1,0.5,0.1,0.7,0.1s0.4,0,0.6-0.1
			c0.2,0,0.4-0.1,0.6-0.1c0.2-0.1,0.3-0.2,0.5-0.3c0.1-0.1,0.2-0.3,0.2-0.6s-0.1-0.6-0.3-0.7c-0.3-0.1-0.5-0.3-0.9-0.4
			c-0.4-0.1-0.7-0.2-1.2-0.3c-0.4-0.1-0.8-0.2-1.2-0.3c-0.3-0.1-0.7-0.3-0.9-0.7c-0.3-0.3-0.3-0.7-0.3-1.1c0-0.4,0.1-0.7,0.3-1
			c0.2-0.3,0.4-0.5,0.7-0.7s0.6-0.3,0.9-0.4c0.3-0.1,0.7-0.1,1-0.1c0.4,0,0.8,0.1,1.2,0.1c0.3,0.1,0.7,0.2,0.9,0.4s0.5,0.4,0.7,0.7
			s0.3,0.7,0.3,1.1h-1.2c0-0.3-0.1-0.5-0.2-0.6c-0.1-0.1-0.3-0.3-0.4-0.4c-0.1-0.1-0.3-0.2-0.5-0.2c-0.2-0.1-0.4-0.1-0.6-0.1
			c-0.2,0-0.4,0-0.5,0.1s-0.3,0.1-0.5,0.1c-0.1,0.1-0.3,0.2-0.4,0.3s-0.1,0.3-0.1,0.5s0.1,0.4,0.2,0.5s0.3,0.3,0.6,0.3
			c0.3,0.1,0.5,0.2,0.8,0.3s0.6,0.1,0.9,0.2c0.3,0.1,0.6,0.1,0.9,0.3c0.3,0.1,0.5,0.2,0.8,0.4c0.2,0.1,0.4,0.3,0.5,0.6
			s0.2,0.5,0.2,0.9c0,0.5-0.1,0.9-0.3,1.1c-0.2,0.3-0.5,0.5-0.7,0.7c-0.3,0.2-0.7,0.3-1,0.4c-0.4,0.1-0.7,0.1-1.1,0.1
			s-0.8-0.1-1.2-0.1s-0.7-0.2-1-0.4s-0.5-0.5-0.7-0.8s-0.3-0.7-0.3-1.2h1.2C30.9,722,30.9,722.2,31,722.4z"/>
		<path class="st4" d="M40.5,716.6v1.1H39v4.7c0,0.1,0,0.3,0.1,0.3c0,0.1,0.1,0.1,0.1,0.2c0.1,0.1,0.1,0.1,0.3,0.1
			c0.1,0,0.3,0,0.5,0h0.6v1.1h-0.9c-0.3,0-0.6,0-0.8-0.1s-0.4-0.1-0.5-0.3c-0.1-0.1-0.3-0.3-0.3-0.5c-0.1-0.2-0.1-0.5-0.1-0.9v-4.7
			h-1.2v-1.1H38v-2.2h1v2.2h1.5V716.6z"/>
		<path class="st4" d="M43,716.6v1.6l0,0c0.3-0.6,0.7-1,1.1-1.3c0.5-0.3,1-0.4,1.6-0.4v1.3c-0.5,0-0.9,0.1-1.2,0.2
			c-0.3,0.1-0.6,0.3-0.9,0.6c-0.2,0.3-0.4,0.6-0.5,0.9c-0.1,0.3-0.1,0.8-0.1,1.2v3.3h-1.2v-7.5L43,716.6L43,716.6z"/>
		<path class="st4" d="M53.2,724c-0.2,0.1-0.5,0.2-0.9,0.2s-0.6-0.1-0.7-0.3s-0.3-0.5-0.3-0.9c-0.3,0.4-0.7,0.7-1.2,0.9
			s-0.9,0.3-1.4,0.3c-0.3,0-0.7-0.1-1-0.1c-0.3-0.1-0.6-0.2-0.8-0.4c-0.2-0.1-0.4-0.4-0.5-0.7s-0.2-0.6-0.2-1s0.1-0.8,0.2-1
			c0.1-0.3,0.3-0.5,0.6-0.7s0.5-0.3,0.8-0.4c0.3-0.1,0.6-0.1,0.9-0.2c0.3-0.1,0.7-0.1,1-0.1c0.3-0.1,0.6-0.1,0.8-0.1
			c0.3-0.1,0.4-0.1,0.5-0.3c0.1-0.1,0.2-0.3,0.2-0.5c0-0.3-0.1-0.5-0.1-0.7c-0.1-0.2-0.3-0.3-0.4-0.4c-0.1-0.1-0.3-0.1-0.5-0.2
			c-0.2,0-0.4-0.1-0.6-0.1c-0.5,0-0.9,0.1-1.3,0.3c-0.3,0.2-0.5,0.6-0.6,1.1h-1.2c0-0.5,0.1-0.9,0.3-1.2s0.4-0.6,0.7-0.8
			s0.6-0.3,1-0.4c0.4-0.1,0.8-0.1,1.2-0.1c0.3,0,0.7,0,1,0.1s0.7,0.1,0.9,0.3c0.3,0.2,0.5,0.3,0.7,0.7c0.1,0.3,0.3,0.6,0.3,1v3.8
			c0,0.3,0,0.5,0.1,0.7c0.1,0.1,0.1,0.2,0.3,0.2c0.1,0,0.3,0,0.4-0.1v1.1H53.2z M51.2,720.2c-0.1,0.1-0.3,0.2-0.6,0.3
			s-0.5,0.1-0.8,0.1c-0.3,0.1-0.5,0.1-0.9,0.1c-0.3,0.1-0.5,0.1-0.7,0.2c-0.2,0.1-0.4,0.3-0.5,0.4c-0.1,0.2-0.2,0.4-0.2,0.7
			c0,0.2,0.1,0.4,0.1,0.5c0.1,0.1,0.2,0.3,0.3,0.3c0.1,0.1,0.3,0.1,0.5,0.2c0.2,0.1,0.3,0.1,0.5,0.1c0.4,0,0.7-0.1,1-0.2
			c0.3-0.1,0.5-0.3,0.7-0.4c0.2-0.2,0.3-0.3,0.4-0.5c0.1-0.2,0.1-0.4,0.1-0.5L51.2,720.2L51.2,720.2z"/>
		<path class="st4" d="M57.5,716.6v1.1H56v4.7c0,0.1,0,0.3,0.1,0.3c0,0.1,0.1,0.1,0.1,0.2c0.1,0.1,0.1,0.1,0.3,0.1
			c0.1,0,0.3,0,0.5,0h0.6v1.1h-0.9c-0.3,0-0.6,0-0.8-0.1s-0.4-0.1-0.5-0.3c-0.1-0.1-0.3-0.3-0.3-0.5c-0.1-0.2-0.1-0.5-0.1-0.9v-4.7
			h-1.2v-1.1H55v-2.2h1.2v2.2h1.3V716.6z"/>
		<path class="st4" d="M58.9,715.2v-1.5h1.2v1.5H58.9z M60.1,716.6v7.5h-1.2v-7.5H60.1z"/>
		<path class="st4" d="M61.8,718.8c0.1-0.5,0.4-0.9,0.7-1.2s0.7-0.7,1.1-0.9c0.5-0.2,1-0.3,1.6-0.3s1.1,0.1,1.6,0.3s0.9,0.5,1.1,0.9
			c0.3,0.3,0.5,0.8,0.7,1.2c0.1,0.5,0.3,1,0.3,1.5s-0.1,1-0.3,1.5c-0.1,0.5-0.4,0.9-0.7,1.2c-0.3,0.4-0.7,0.7-1.1,0.9
			c-0.5,0.2-1,0.3-1.6,0.3s-1.1-0.1-1.6-0.3s-0.9-0.5-1.1-0.9c-0.3-0.3-0.5-0.8-0.7-1.2c-0.2-0.5-0.3-1-0.3-1.5
			S61.7,719.2,61.8,718.8z M63.1,721.5c0.1,0.3,0.3,0.7,0.5,0.9c0.2,0.3,0.5,0.4,0.7,0.5c0.3,0.1,0.6,0.2,0.9,0.2s0.6-0.1,0.9-0.2
			c0.3-0.1,0.5-0.3,0.7-0.5s0.4-0.5,0.5-0.9c0.1-0.3,0.2-0.7,0.2-1.2s-0.1-0.9-0.2-1.2s-0.3-0.7-0.5-0.9c-0.2-0.3-0.5-0.4-0.7-0.5
			c-0.3-0.1-0.6-0.2-0.9-0.2s-0.6,0.1-0.9,0.2c-0.3,0.1-0.5,0.3-0.7,0.5c-0.2,0.3-0.4,0.5-0.5,0.9c-0.1,0.3-0.2,0.7-0.2,1.2
			C62.9,720.8,63,721.2,63.1,721.5z"/>
		<path class="st4" d="M71.4,716.6v1.2l0,0c0.5-0.9,1.3-1.4,2.4-1.4c0.5,0,0.9,0.1,1.2,0.2c0.3,0.1,0.6,0.3,0.8,0.6
			c0.2,0.3,0.3,0.5,0.4,0.9s0.1,0.7,0.1,1.1v4.9h-1.2V719c0-0.5-0.1-0.9-0.4-1.1c-0.3-0.3-0.7-0.4-1.1-0.4s-0.7,0.1-1,0.2
			c-0.3,0.1-0.5,0.3-0.7,0.5s-0.3,0.5-0.4,0.7s-0.1,0.6-0.1,0.9v4.2h-1.2v-7.5L71.4,716.6L71.4,716.6z"/>
		<path class="st4" d="M78.5,718.2v-1.6h1.6v1.6H78.5z M80.1,722.4v1.6h-1.6v-1.6H80.1z"/>
		<path class="st4" d="M88.3,713.7l3.2,8.7l3.2-8.7h1.8V724h-1.3v-8.6l0,0L92,724h-1.2l-3.2-8.6l0,0v8.6h-1.3v-10.3H88.3z"/>
		<path class="st4" d="M105.3,724c-0.2,0.1-0.5,0.2-0.9,0.2c-0.3,0-0.6-0.1-0.7-0.3s-0.3-0.5-0.3-0.9c-0.3,0.4-0.7,0.7-1.2,0.9
			c-0.5,0.1-0.9,0.3-1.4,0.3c-0.3,0-0.7-0.1-1-0.1c-0.3-0.1-0.6-0.2-0.8-0.4c-0.2-0.1-0.4-0.4-0.5-0.7s-0.2-0.6-0.2-1s0.1-0.8,0.2-1
			s0.3-0.5,0.6-0.7c0.3-0.2,0.5-0.3,0.8-0.4c0.3-0.1,0.6-0.1,0.9-0.2c0.3-0.1,0.7-0.1,1-0.1c0.3-0.1,0.6-0.1,0.8-0.1
			c0.3-0.1,0.4-0.1,0.5-0.3c0.1-0.1,0.2-0.3,0.2-0.5c0-0.3-0.1-0.5-0.1-0.7s-0.3-0.3-0.4-0.4c-0.1-0.1-0.3-0.1-0.5-0.2
			c-0.2,0-0.4-0.1-0.6-0.1c-0.5,0-0.9,0.1-1.3,0.3c-0.3,0.2-0.5,0.6-0.6,1.1h-1.2c0-0.5,0.1-0.9,0.3-1.2c0.2-0.3,0.4-0.6,0.7-0.8
			c0.3-0.2,0.6-0.3,1-0.4c0.4-0.1,0.8-0.1,1.2-0.1c0.3,0,0.7,0,1,0.1s0.7,0.1,0.9,0.3s0.5,0.3,0.7,0.7c0.1,0.3,0.3,0.6,0.3,1v3.8
			c0,0.3,0,0.5,0.1,0.7c0.1,0.1,0.1,0.2,0.3,0.2c0.1,0,0.3,0,0.4-0.1v1.1H105.3z M103.4,720.2c-0.1,0.1-0.3,0.2-0.6,0.3
			c-0.3,0.1-0.5,0.1-0.8,0.1s-0.5,0.1-0.9,0.1c-0.3,0.1-0.5,0.1-0.7,0.2c-0.2,0.1-0.4,0.3-0.5,0.4c-0.1,0.2-0.2,0.4-0.2,0.7
			c0,0.2,0.1,0.4,0.1,0.5c0.1,0.1,0.2,0.3,0.3,0.3c0.1,0.1,0.3,0.1,0.5,0.2c0.2,0.1,0.3,0.1,0.5,0.1c0.4,0,0.7-0.1,1-0.2
			c0.3-0.1,0.5-0.3,0.7-0.4c0.2-0.2,0.3-0.3,0.4-0.5s0.1-0.4,0.1-0.5L103.4,720.2L103.4,720.2z"/>
		<path class="st4" d="M109.7,716.6v1.1h-1.5v4.7c0,0.1,0,0.3,0.1,0.3c0,0.1,0.1,0.1,0.1,0.2c0.1,0.1,0.1,0.1,0.3,0.1s0.3,0,0.5,0
			h0.6v1.1h-0.9c-0.3,0-0.6,0-0.8-0.1c-0.2-0.1-0.4-0.1-0.5-0.3s-0.3-0.3-0.3-0.5c-0.1-0.2-0.1-0.5-0.1-0.9v-4.7H106v-1.1h1.2v-2.2
			h1.2v2.2h1.3V716.6z"/>
		<path class="st4" d="M112.2,713.7v3.9l0,0c0.1-0.3,0.3-0.4,0.4-0.6c0.1-0.2,0.4-0.3,0.6-0.4c0.2-0.1,0.5-0.2,0.7-0.2
			c0.3-0.1,0.5-0.1,0.7-0.1c0.5,0,0.9,0.1,1.2,0.2c0.3,0.1,0.6,0.3,0.8,0.6c0.2,0.3,0.3,0.5,0.4,0.9c0.1,0.3,0.1,0.7,0.1,1.1v4.9
			h-1.2v-5c0-0.5-0.1-0.9-0.4-1.1c-0.3-0.3-0.7-0.4-1.1-0.4s-0.7,0.1-1,0.2s-0.5,0.3-0.7,0.5s-0.3,0.5-0.4,0.7
			c-0.1,0.3-0.1,0.6-0.1,0.9v4.2H111v-10.3L112.2,713.7L112.2,713.7z"/>
		<path class="st4" d="M119,715.2v-1.5h1.2v1.5H119z M120.3,716.6v7.5H119v-7.5H120.3z"/>
		<path class="st4" d="M128.8,724c-0.2,0.1-0.5,0.2-0.9,0.2s-0.6-0.1-0.7-0.3s-0.3-0.5-0.3-0.9c-0.3,0.4-0.7,0.7-1.2,0.9
			c-0.5,0.1-0.9,0.3-1.4,0.3c-0.3,0-0.7-0.1-1-0.1c-0.3-0.1-0.6-0.2-0.8-0.4c-0.2-0.1-0.4-0.4-0.5-0.7s-0.2-0.6-0.2-1s0.1-0.8,0.2-1
			s0.3-0.5,0.6-0.7c0.3-0.2,0.5-0.3,0.8-0.4c0.3-0.1,0.6-0.1,0.9-0.2c0.3-0.1,0.7-0.1,1-0.1c0.3-0.1,0.6-0.1,0.8-0.1
			c0.3-0.1,0.4-0.1,0.5-0.3c0.1-0.1,0.2-0.3,0.2-0.5c0-0.3-0.1-0.5-0.1-0.7s-0.3-0.3-0.4-0.4s-0.3-0.1-0.5-0.2
			c-0.2,0-0.4-0.1-0.6-0.1c-0.5,0-0.9,0.1-1.3,0.3c-0.3,0.2-0.5,0.6-0.6,1.1H122c0-0.5,0.1-0.9,0.3-1.2c0.2-0.3,0.4-0.6,0.7-0.8
			c0.3-0.2,0.6-0.3,1-0.4c0.4-0.1,0.8-0.1,1.2-0.1c0.3,0,0.7,0,1,0.1s0.7,0.1,0.9,0.3s0.5,0.3,0.7,0.7c0.1,0.3,0.3,0.6,0.3,1v3.8
			c0,0.3,0,0.5,0.1,0.7c0.1,0.1,0.1,0.2,0.3,0.2c0.1,0,0.3,0,0.4-0.1L128.8,724L128.8,724z M126.8,720.2c-0.1,0.1-0.3,0.2-0.6,0.3
			c-0.3,0.1-0.5,0.1-0.8,0.1s-0.5,0.1-0.9,0.1c-0.3,0.1-0.5,0.1-0.7,0.2c-0.2,0.1-0.4,0.3-0.5,0.4c-0.1,0.2-0.2,0.4-0.2,0.7
			c0,0.2,0.1,0.4,0.1,0.5c0.1,0.1,0.2,0.3,0.3,0.3c0.1,0.1,0.3,0.1,0.5,0.2c0.2,0.1,0.3,0.1,0.5,0.1c0.4,0,0.7-0.1,1-0.2
			c0.3-0.1,0.5-0.3,0.7-0.4c0.2-0.2,0.3-0.3,0.4-0.5s0.1-0.4,0.1-0.5L126.8,720.2L126.8,720.2z"/>
		<path class="st4" d="M130.9,722.4c0.1,0.2,0.3,0.3,0.5,0.5c0.2,0.1,0.4,0.2,0.7,0.3s0.5,0.1,0.7,0.1s0.4,0,0.6-0.1
			c0.2,0,0.4-0.1,0.6-0.1c0.2-0.1,0.3-0.2,0.5-0.3c0.1-0.1,0.2-0.3,0.2-0.6s-0.1-0.6-0.3-0.7c-0.3-0.1-0.5-0.3-0.9-0.4
			c-0.4-0.1-0.7-0.2-1.2-0.3c-0.4-0.1-0.8-0.2-1.2-0.3c-0.3-0.1-0.7-0.3-0.9-0.7c-0.3-0.3-0.3-0.7-0.3-1.1c0-0.4,0.1-0.7,0.3-1
			s0.4-0.5,0.7-0.7s0.6-0.3,0.9-0.4c0.3-0.1,0.7-0.1,1-0.1c0.4,0,0.8,0.1,1.2,0.1c0.3,0.1,0.7,0.2,0.9,0.4s0.5,0.4,0.7,0.7
			s0.3,0.7,0.3,1.1h-1.2c0-0.3-0.1-0.5-0.2-0.6c-0.1-0.1-0.3-0.3-0.4-0.4c-0.1-0.1-0.3-0.2-0.5-0.2c-0.2-0.1-0.4-0.1-0.6-0.1
			s-0.4,0-0.5,0.1s-0.3,0.1-0.5,0.1c-0.1,0.1-0.3,0.2-0.4,0.3c-0.1,0.1-0.1,0.3-0.1,0.5s0.1,0.4,0.2,0.5c0.1,0.1,0.3,0.3,0.6,0.3
			c0.3,0.1,0.5,0.2,0.8,0.3s0.6,0.1,0.9,0.2c0.3,0.1,0.6,0.1,0.9,0.3c0.3,0.1,0.5,0.2,0.8,0.4c0.2,0.1,0.4,0.3,0.5,0.6
			s0.2,0.5,0.2,0.9c0,0.5-0.1,0.9-0.3,1.1c-0.2,0.3-0.5,0.5-0.7,0.7c-0.3,0.2-0.7,0.3-1,0.4c-0.4,0.1-0.7,0.1-1.1,0.1
			s-0.8-0.1-1.2-0.1c-0.4-0.1-0.7-0.2-1-0.4s-0.5-0.5-0.7-0.8s-0.3-0.7-0.3-1.2h1.2C130.7,722,130.7,722.2,130.9,722.4z"/>
		<path class="st4" d="M145,713.7c0.2,0,0.5,0,0.7,0c0.3,0,0.5,0,0.7,0.1c0.3,0,0.5,0.1,0.7,0.1c0.2,0.1,0.4,0.1,0.5,0.2
			c0.3,0.2,0.6,0.5,0.9,0.9c0.3,0.3,0.3,0.8,0.3,1.3s-0.1,1-0.4,1.4s-0.7,0.7-1.1,0.9l0,0c0.7,0.1,1.1,0.4,1.4,0.9
			c0.3,0.5,0.5,1,0.5,1.6c0,0.4-0.1,0.7-0.2,1.1s-0.3,0.7-0.6,0.9c-0.3,0.3-0.6,0.5-1,0.7c-0.4,0.1-0.9,0.3-1.3,0.3h-5v-10.3
			L145,713.7L145,713.7z M145.4,718.2c0.8,0,1.3-0.1,1.7-0.4c0.3-0.3,0.5-0.7,0.5-1.2c0-0.4-0.1-0.7-0.2-0.9
			c-0.1-0.2-0.3-0.4-0.5-0.5s-0.5-0.2-0.7-0.2c-0.3-0.1-0.5-0.1-0.9-0.1h-2.8v3.3L145.4,718.2L145.4,718.2z M146.1,722.9
			c0.6,0,1-0.1,1.4-0.5c0.4-0.3,0.5-0.8,0.5-1.4c0-0.3-0.1-0.6-0.2-0.9c-0.1-0.2-0.3-0.4-0.5-0.5s-0.5-0.2-0.7-0.3s-0.5-0.1-0.9-0.1
			h-3.1v3.5L146.1,722.9L146.1,722.9z"/>
		<path class="st4" d="M157.5,724c-0.2,0.1-0.5,0.2-0.9,0.2c-0.3,0-0.6-0.1-0.7-0.3c-0.1-0.2-0.3-0.5-0.3-0.9
			c-0.3,0.4-0.7,0.7-1.2,0.9c-0.5,0.1-0.9,0.3-1.4,0.3c-0.3,0-0.7-0.1-1-0.1c-0.3-0.1-0.6-0.2-0.8-0.4c-0.2-0.1-0.4-0.4-0.5-0.7
			s-0.2-0.6-0.2-1s0.1-0.8,0.2-1s0.3-0.5,0.6-0.7s0.5-0.3,0.8-0.4c0.3-0.1,0.6-0.1,0.9-0.2c0.3-0.1,0.7-0.1,1-0.1
			c0.3-0.1,0.6-0.1,0.8-0.1c0.3-0.1,0.4-0.1,0.5-0.3c0.1-0.1,0.2-0.3,0.2-0.5c0-0.3-0.1-0.5-0.1-0.7s-0.3-0.3-0.4-0.4
			c-0.1-0.1-0.3-0.1-0.5-0.2c-0.2,0-0.4-0.1-0.6-0.1c-0.5,0-0.9,0.1-1.3,0.3c-0.3,0.2-0.5,0.6-0.6,1.1h-1.2c0-0.5,0.1-0.9,0.3-1.2
			s0.4-0.6,0.7-0.8s0.6-0.3,1-0.4c0.4-0.1,0.8-0.1,1.2-0.1c0.3,0,0.7,0,1,0.1s0.7,0.1,0.9,0.3s0.5,0.3,0.7,0.7
			c0.1,0.3,0.3,0.6,0.3,1v3.8c0,0.3,0,0.5,0.1,0.7c0.1,0.1,0.1,0.2,0.3,0.2c0.1,0,0.3,0,0.4-0.1v1.1H157.5z M155.5,720.2
			c-0.1,0.1-0.3,0.2-0.6,0.3s-0.5,0.1-0.8,0.1s-0.5,0.1-0.9,0.1c-0.3,0.1-0.5,0.1-0.7,0.2c-0.2,0.1-0.4,0.3-0.5,0.4
			c-0.1,0.2-0.2,0.4-0.2,0.7c0,0.2,0.1,0.4,0.1,0.5c0.1,0.1,0.2,0.3,0.3,0.3c0.1,0.1,0.3,0.1,0.5,0.2c0.2,0.1,0.3,0.1,0.5,0.1
			c0.4,0,0.7-0.1,1-0.2c0.3-0.1,0.5-0.3,0.7-0.4c0.2-0.2,0.3-0.3,0.4-0.5c0.1-0.2,0.1-0.4,0.1-0.5L155.5,720.2L155.5,720.2z"/>
		<path class="st4" d="M164,724v-1l0,0c-0.2,0.4-0.5,0.7-0.9,0.9c-0.5,0.2-0.9,0.3-1.4,0.3c-0.6,0-1-0.1-1.5-0.3
			c-0.4-0.2-0.8-0.5-1-0.9s-0.5-0.8-0.7-1.2c-0.1-0.5-0.2-1-0.2-1.5s0.1-1,0.2-1.5c0.1-0.5,0.3-0.9,0.7-1.2c0.3-0.4,0.7-0.7,1-0.9
			c0.4-0.2,0.9-0.3,1.5-0.3c0.2,0,0.4,0,0.6,0.1c0.2,0.1,0.5,0.1,0.7,0.2c0.2,0.1,0.5,0.2,0.7,0.3s0.4,0.3,0.5,0.5l0,0v-3.9h1.2
			v10.3H164V724z M159.7,721.4c0.1,0.3,0.3,0.7,0.4,0.9c0.2,0.3,0.4,0.5,0.7,0.6s0.7,0.3,1,0.3s0.8-0.1,1-0.3
			c0.3-0.2,0.5-0.4,0.7-0.7s0.3-0.6,0.4-0.9c0.1-0.3,0.1-0.7,0.1-1s-0.1-0.7-0.1-1c-0.1-0.3-0.2-0.7-0.4-0.9s-0.5-0.5-0.7-0.7
			c-0.3-0.2-0.7-0.3-1-0.3s-0.8,0.1-1,0.3c-0.3,0.1-0.5,0.4-0.7,0.7s-0.3,0.6-0.4,0.9c-0.1,0.3-0.1,0.7-0.1,1
			C159.5,720.7,159.6,721.1,159.7,721.4z"/>
		<path class="st4" d="M172.4,723.6c-0.5,0.4-1.2,0.7-2.1,0.7c-0.6,0-1.1-0.1-1.6-0.3s-0.8-0.5-1.1-0.8s-0.5-0.8-0.7-1.2
			c-0.1-0.5-0.3-1-0.3-1.6s0.1-1.1,0.3-1.6s0.4-0.9,0.7-1.2s0.7-0.6,1.1-0.8c0.4-0.2,0.9-0.3,1.4-0.3c0.7,0,1.2,0.1,1.6,0.4
			s0.8,0.6,1,1c0.3,0.4,0.5,0.9,0.5,1.4s0.1,1,0.1,1.4h-5.6c0,0.3,0,0.7,0.1,0.9s0.2,0.5,0.4,0.8s0.5,0.4,0.7,0.5
			c0.3,0.1,0.7,0.2,1,0.2c0.5,0,0.9-0.1,1.2-0.3c0.3-0.3,0.5-0.6,0.7-1.1h1.2C173.3,722.5,173,723.2,172.4,723.6z M172.1,718.8
			c-0.1-0.3-0.3-0.5-0.5-0.7s-0.4-0.3-0.7-0.5s-0.5-0.2-0.9-0.2s-0.6,0.1-0.9,0.2c-0.3,0.1-0.5,0.3-0.7,0.5s-0.3,0.4-0.5,0.7
			s-0.2,0.5-0.2,0.8h4.3C172.2,719.3,172.2,719,172.1,718.8z"/>
		<path class="st4" d="M176,716.6v1.6l0,0c0.3-0.6,0.7-1,1.1-1.3c0.5-0.3,1-0.4,1.6-0.4v1.3c-0.5,0-0.9,0.1-1.2,0.2
			c-0.3,0.1-0.6,0.3-0.9,0.6c-0.2,0.3-0.4,0.6-0.5,0.9c-0.1,0.3-0.1,0.8-0.1,1.2v3.3h-1.2v-7.5L176,716.6L176,716.6z"/>
		<path class="st4" d="M180.2,722.4v1.4c0,0.5-0.1,1-0.4,1.4s-0.7,0.7-1.2,0.9v-0.7c0.1-0.1,0.3-0.1,0.4-0.3
			c0.1-0.1,0.2-0.3,0.3-0.3c0.1-0.1,0.1-0.3,0.1-0.4s0-0.3,0-0.4h-0.9v-1.6L180.2,722.4L180.2,722.4z"/>
		<path class="st4" d="M191.3,713.7c1,0,1.8,0.3,2.3,0.7c0.5,0.5,0.9,1.1,0.9,2c0,0.7-0.1,1.2-0.4,1.6c-0.3,0.5-0.7,0.8-1.4,1l0,0
			c0.3,0.1,0.5,0.1,0.7,0.3c0.2,0.1,0.3,0.3,0.5,0.5c0.1,0.2,0.2,0.4,0.3,0.7s0.1,0.5,0.1,0.7c0,0.3,0.1,0.5,0.1,0.8
			s0.1,0.5,0.1,0.8c0.1,0.3,0.1,0.5,0.2,0.7c0.1,0.2,0.2,0.4,0.3,0.6h-1.5c-0.1-0.1-0.1-0.3-0.2-0.5c-0.1-0.2-0.1-0.4-0.1-0.6
			c0-0.2,0-0.5,0-0.7s-0.1-0.5-0.1-0.8c-0.1-0.3-0.1-0.5-0.1-0.7c-0.1-0.2-0.1-0.4-0.3-0.6c-0.1-0.2-0.3-0.3-0.5-0.4
			c-0.2-0.1-0.5-0.1-0.8-0.1h-3.3v4.4h-1.4v-10.3h4.6V713.7z M191.6,718.4c0.3-0.1,0.5-0.1,0.7-0.3c0.2-0.1,0.4-0.3,0.5-0.6
			s0.2-0.5,0.2-0.9c0-0.5-0.1-0.9-0.5-1.2c-0.3-0.3-0.7-0.5-1.4-0.5h-3.4v3.6h2.8C191,718.5,191.3,718.4,191.6,718.4z"/>
		<path class="st4" d="M196.2,715.2v-1.5h1.2v1.5H196.2z M197.4,716.6v7.5h-1.2v-7.5H197.4z"/>
		<path class="st4" d="M200.5,716.6v1.2l0,0c0.5-0.9,1.3-1.4,2.4-1.4c0.5,0,0.9,0.1,1.2,0.2c0.3,0.1,0.6,0.3,0.8,0.6
			s0.3,0.5,0.4,0.9c0.1,0.3,0.1,0.7,0.1,1.1v4.9h-1.2V719c0-0.5-0.1-0.9-0.4-1.1c-0.3-0.3-0.7-0.4-1.1-0.4c-0.4,0-0.7,0.1-1,0.2
			c-0.3,0.1-0.5,0.3-0.7,0.5s-0.3,0.5-0.4,0.7c-0.1,0.3-0.1,0.6-0.1,0.9v4.2h-1.2v-7.5L200.5,716.6L200.5,716.6z"/>
		<path class="st4" d="M212.9,726.2c-0.5,0.6-1.4,0.9-2.6,0.9c-0.3,0-0.7-0.1-1-0.1c-0.3-0.1-0.7-0.2-1-0.4s-0.5-0.4-0.7-0.7
			s-0.3-0.6-0.3-1h1.2c0,0.2,0.1,0.4,0.2,0.6c0.1,0.1,0.3,0.3,0.5,0.4s0.4,0.2,0.6,0.2s0.5,0.1,0.7,0.1c0.4,0,0.7-0.1,1-0.2
			c0.3-0.1,0.5-0.3,0.7-0.6s0.3-0.5,0.4-0.9c0.1-0.3,0.1-0.7,0.1-1.1v-0.5l0,0c-0.2,0.5-0.5,0.8-1,1c-0.4,0.2-0.9,0.3-1.4,0.3
			s-1-0.1-1.4-0.3s-0.8-0.5-1-0.8c-0.3-0.3-0.5-0.7-0.7-1.2c-0.1-0.5-0.2-0.9-0.2-1.4s0.1-0.9,0.2-1.4c0.1-0.5,0.3-0.9,0.6-1.2
			c0.3-0.4,0.6-0.7,1-0.9c0.5-0.2,1-0.4,1.6-0.4c0.5,0,0.9,0.1,1.3,0.3c0.4,0.2,0.7,0.5,0.9,0.9l0,0v-1h1.2v6.8
			C213.7,724.6,213.4,725.5,212.9,726.2z M211.3,722.8c0.3-0.2,0.5-0.4,0.7-0.7c0.1-0.3,0.3-0.6,0.4-0.9c0.1-0.3,0.1-0.7,0.1-1
			s-0.1-0.7-0.1-1c-0.1-0.3-0.2-0.6-0.4-0.9c-0.2-0.3-0.4-0.5-0.7-0.6s-0.6-0.3-1-0.3s-0.7,0.1-1,0.2c-0.3,0.1-0.5,0.3-0.7,0.6
			s-0.3,0.5-0.4,0.9s-0.1,0.7-0.1,1s0.1,0.7,0.1,1c0.1,0.3,0.2,0.7,0.3,0.9c0.1,0.3,0.4,0.5,0.7,0.7s0.6,0.3,1,0.3
			C210.7,723,211.1,723,211.3,722.8z"/>
		<path class="st4" d="M215.6,715.2v-1.5h1.2v1.5H215.6z M216.9,716.6v7.5h-1.2v-7.5H216.9z"/>
		<path class="st4" d="M224,723.6c-0.5,0.4-1.2,0.7-2.1,0.7c-0.6,0-1.1-0.1-1.6-0.3s-0.8-0.5-1.1-0.8s-0.5-0.8-0.7-1.2
			c-0.1-0.5-0.3-1-0.3-1.6s0.1-1.1,0.3-1.6s0.4-0.9,0.7-1.2s0.7-0.6,1.1-0.8c0.4-0.2,0.9-0.3,1.4-0.3c0.7,0,1.2,0.1,1.6,0.4
			s0.8,0.6,1,1c0.3,0.4,0.5,0.9,0.5,1.4s0.1,1,0.1,1.4h-5.6c0,0.3,0,0.7,0.1,0.9c0.1,0.3,0.2,0.5,0.4,0.8s0.5,0.4,0.7,0.5
			c0.3,0.1,0.7,0.2,1,0.2c0.5,0,0.9-0.1,1.2-0.3c0.3-0.3,0.5-0.6,0.7-1.1h1.2C224.9,722.5,224.6,723.2,224,723.6z M223.7,718.8
			c-0.1-0.3-0.3-0.5-0.5-0.7s-0.4-0.3-0.7-0.5s-0.5-0.2-0.9-0.2c-0.3,0-0.6,0.1-0.9,0.2c-0.3,0.1-0.5,0.3-0.7,0.5s-0.3,0.4-0.5,0.7
			s-0.2,0.5-0.2,0.8h4.3C223.9,719.3,223.8,719,223.7,718.8z"/>
		<path class="st4" d="M227.5,716.6v1.6l0,0c0.3-0.6,0.7-1,1.1-1.3c0.5-0.3,1-0.4,1.6-0.4v1.3c-0.5,0-0.9,0.1-1.2,0.2
			c-0.3,0.1-0.6,0.3-0.9,0.6c-0.2,0.3-0.4,0.6-0.5,0.9c-0.1,0.3-0.1,0.8-0.1,1.2v3.3h-1.2v-7.5L227.5,716.6L227.5,716.6z"/>
		<path class="st4" d="M236.9,713.7V724h-1.4v-10.3H236.9z"/>
		<path class="st4" d="M240.1,716.6v1.2l0,0c0.5-0.9,1.3-1.4,2.4-1.4c0.5,0,0.9,0.1,1.2,0.2c0.3,0.1,0.6,0.3,0.8,0.6
			s0.3,0.5,0.4,0.9c0.1,0.3,0.1,0.7,0.1,1.1v4.9h-1.2V719c0-0.5-0.1-0.9-0.4-1.1c-0.3-0.3-0.7-0.4-1.1-0.4c-0.4,0-0.7,0.1-1,0.2
			c-0.3,0.1-0.5,0.3-0.7,0.5s-0.3,0.5-0.4,0.7c-0.1,0.3-0.1,0.6-0.1,0.9v4.2H239v-7.5L240.1,716.6L240.1,716.6z"/>
		<path class="st4" d="M246.2,717.7v-1.1h1.2v-1.1c0-0.6,0.2-1,0.5-1.4s0.9-0.5,1.5-0.5c0.1,0,0.3,0,0.4,0c0.1,0,0.3,0.1,0.4,0.1v1
			c-0.1-0.1-0.2-0.1-0.3-0.1s-0.3,0-0.3,0c-0.3,0-0.5,0.1-0.7,0.2c-0.1,0.1-0.3,0.3-0.3,0.7v1h1.4v1.1h-1.4v6.4h-1.2v-6.4
			L246.2,717.7L246.2,717.7z"/>
		<path class="st4" d="M251,718.8c0.1-0.5,0.4-0.9,0.7-1.2s0.7-0.7,1.1-0.9c0.5-0.2,1-0.3,1.6-0.3s1.1,0.1,1.6,0.3
			c0.5,0.2,0.9,0.5,1.1,0.9c0.3,0.3,0.5,0.8,0.7,1.2c0.1,0.5,0.3,1,0.3,1.5s-0.1,1-0.3,1.5c-0.1,0.5-0.4,0.9-0.7,1.2
			s-0.7,0.7-1.1,0.9c-0.5,0.2-1,0.3-1.6,0.3s-1.1-0.1-1.6-0.3s-0.9-0.5-1.1-0.9c-0.3-0.3-0.5-0.8-0.7-1.2c-0.2-0.5-0.3-1-0.3-1.5
			S250.9,719.2,251,718.8z M252.3,721.5c0.1,0.3,0.3,0.7,0.5,0.9c0.2,0.3,0.5,0.4,0.7,0.5c0.3,0.1,0.6,0.2,0.9,0.2
			c0.3,0,0.6-0.1,0.9-0.2c0.3-0.1,0.5-0.3,0.7-0.5s0.4-0.5,0.5-0.9c0.1-0.3,0.2-0.7,0.2-1.2s-0.1-0.9-0.2-1.2s-0.3-0.7-0.5-0.9
			c-0.2-0.3-0.5-0.4-0.7-0.5c-0.3-0.1-0.6-0.2-0.9-0.2c-0.3,0-0.6,0.1-0.9,0.2c-0.3,0.1-0.5,0.3-0.7,0.5c-0.2,0.3-0.4,0.5-0.5,0.9
			c-0.1,0.3-0.2,0.7-0.2,1.2C252.1,720.8,252.1,721.2,252.3,721.5z"/>
		<path class="st4" d="M265,726.2c-0.5,0.6-1.4,0.9-2.6,0.9c-0.3,0-0.7-0.1-1-0.1s-0.7-0.2-1-0.4s-0.5-0.4-0.7-0.7s-0.3-0.6-0.3-1
			h1.2c0,0.2,0.1,0.4,0.2,0.6c0.1,0.1,0.3,0.3,0.5,0.4s0.4,0.2,0.6,0.2s0.5,0.1,0.7,0.1c0.4,0,0.7-0.1,1-0.2
			c0.3-0.1,0.5-0.3,0.7-0.6s0.3-0.5,0.4-0.9c0.1-0.3,0.1-0.7,0.1-1.1v-0.5l0,0c-0.2,0.5-0.5,0.8-1,1c-0.4,0.2-0.9,0.3-1.4,0.3
			s-1-0.1-1.4-0.3s-0.8-0.5-1-0.8c-0.3-0.3-0.5-0.7-0.7-1.2c-0.1-0.5-0.2-0.9-0.2-1.4s0.1-0.9,0.2-1.4s0.3-0.9,0.6-1.2
			c0.3-0.4,0.6-0.7,1-0.9c0.5-0.2,1-0.4,1.6-0.4c0.5,0,0.9,0.1,1.3,0.3s0.7,0.5,0.9,0.9l0,0v-1h1.2v6.8
			C265.9,724.6,265.6,725.5,265,726.2z M263.5,722.8c0.3-0.2,0.5-0.4,0.7-0.7c0.1-0.3,0.3-0.6,0.4-0.9c0.1-0.3,0.1-0.7,0.1-1
			s-0.1-0.7-0.1-1c-0.1-0.3-0.2-0.6-0.4-0.9c-0.2-0.3-0.4-0.5-0.7-0.6c-0.3-0.1-0.6-0.3-1-0.3s-0.7,0.1-1,0.2
			c-0.3,0.1-0.5,0.3-0.7,0.6s-0.3,0.5-0.4,0.9c-0.1,0.3-0.1,0.7-0.1,1s0.1,0.7,0.1,1c0.1,0.3,0.2,0.7,0.3,0.9
			c0.1,0.3,0.4,0.5,0.7,0.7c0.3,0.2,0.6,0.3,1,0.3S263.2,723,263.5,722.8z"/>
		<path class="st4" d="M268.8,716.6v1.6l0,0c0.3-0.6,0.7-1,1.1-1.3c0.5-0.3,1-0.4,1.6-0.4v1.3c-0.5,0-0.9,0.1-1.2,0.2
			c-0.3,0.1-0.6,0.3-0.9,0.6c-0.2,0.3-0.4,0.6-0.5,0.9c-0.1,0.3-0.1,0.8-0.1,1.2v3.3h-1.2v-7.5L268.8,716.6L268.8,716.6z"/>
		<path class="st4" d="M279,724c-0.2,0.1-0.5,0.2-0.9,0.2c-0.3,0-0.6-0.1-0.7-0.3s-0.3-0.5-0.3-0.9c-0.3,0.4-0.7,0.7-1.2,0.9
			c-0.5,0.1-0.9,0.3-1.4,0.3c-0.3,0-0.7-0.1-1-0.1c-0.3-0.1-0.6-0.2-0.8-0.4c-0.2-0.1-0.4-0.4-0.5-0.7s-0.2-0.6-0.2-1s0.1-0.8,0.2-1
			s0.3-0.5,0.6-0.7c0.3-0.2,0.5-0.3,0.8-0.4c0.3-0.1,0.6-0.1,0.9-0.2c0.3-0.1,0.7-0.1,1-0.1c0.3-0.1,0.6-0.1,0.8-0.1
			c0.3-0.1,0.4-0.1,0.5-0.3c0.1-0.1,0.2-0.3,0.2-0.5c0-0.3-0.1-0.5-0.1-0.7s-0.3-0.3-0.4-0.4c-0.1-0.1-0.3-0.1-0.5-0.2
			c-0.2,0-0.4-0.1-0.6-0.1c-0.5,0-0.9,0.1-1.3,0.3c-0.3,0.2-0.5,0.6-0.6,1.1h-1.2c0-0.5,0.1-0.9,0.3-1.2c0.2-0.3,0.4-0.6,0.7-0.8
			s0.6-0.3,1-0.4c0.4-0.1,0.8-0.1,1.2-0.1c0.3,0,0.7,0,1,0.1s0.7,0.1,0.9,0.3s0.5,0.3,0.7,0.7c0.1,0.3,0.3,0.6,0.3,1v3.8
			c0,0.3,0,0.5,0.1,0.7c0.1,0.1,0.1,0.2,0.3,0.2c0.1,0,0.3,0,0.4-0.1v1.1H279z M277.1,720.2c-0.1,0.1-0.3,0.2-0.6,0.3
			c-0.3,0.1-0.5,0.1-0.8,0.1c-0.3,0.1-0.5,0.1-0.9,0.1c-0.3,0.1-0.5,0.1-0.7,0.2c-0.2,0.1-0.4,0.3-0.5,0.4c-0.1,0.2-0.2,0.4-0.2,0.7
			c0,0.2,0.1,0.4,0.1,0.5c0.1,0.1,0.2,0.3,0.3,0.3c0.1,0.1,0.3,0.1,0.5,0.2c0.2,0.1,0.3,0.1,0.5,0.1c0.4,0,0.7-0.1,1-0.2
			c0.3-0.1,0.5-0.3,0.7-0.4c0.2-0.2,0.3-0.3,0.4-0.5s0.1-0.4,0.1-0.5L277.1,720.2L277.1,720.2z"/>
		<path class="st4" d="M281.5,716.6v1l0,0c0.2-0.4,0.5-0.7,0.9-0.9c0.5-0.2,0.9-0.3,1.4-0.3c0.6,0,1,0.1,1.5,0.3
			c0.4,0.2,0.8,0.5,1,0.9s0.5,0.8,0.7,1.2c0.1,0.5,0.2,1,0.2,1.5s-0.1,1-0.2,1.5s-0.3,0.9-0.7,1.2c-0.3,0.3-0.7,0.7-1,0.9
			c-0.4,0.2-0.9,0.3-1.5,0.3c-0.2,0-0.4,0-0.6-0.1s-0.5-0.1-0.7-0.2c-0.2-0.1-0.5-0.2-0.7-0.3s-0.4-0.3-0.5-0.5l0,0v3.9h-1.2v-10.3
			h1.3v-0.1H281.5z M285.9,719.2c-0.1-0.3-0.3-0.7-0.4-0.9c-0.2-0.3-0.4-0.5-0.7-0.6c-0.3-0.1-0.7-0.3-1-0.3c-0.4,0-0.8,0.1-1,0.3
			c-0.3,0.1-0.5,0.4-0.7,0.7s-0.3,0.6-0.4,0.9s-0.1,0.7-0.1,1c0,0.4,0.1,0.7,0.1,1s0.2,0.7,0.4,0.9s0.5,0.5,0.7,0.7s0.7,0.3,1,0.3
			c0.4,0,0.8-0.1,1-0.3s0.5-0.4,0.7-0.7s0.3-0.6,0.4-0.9s0.1-0.7,0.1-1C286,719.9,285.9,719.6,285.9,719.2z"/>
		<path class="st4" d="M289.9,713.7v3.9l0,0c0.1-0.3,0.3-0.4,0.4-0.6c0.1-0.2,0.4-0.3,0.6-0.4c0.2-0.1,0.5-0.2,0.7-0.2
			c0.3-0.1,0.5-0.1,0.7-0.1c0.5,0,0.9,0.1,1.2,0.2c0.3,0.1,0.6,0.3,0.8,0.6s0.3,0.5,0.4,0.9c0.1,0.3,0.1,0.7,0.1,1.1v4.9h-1.2v-5
			c0-0.5-0.1-0.9-0.4-1.1s-0.7-0.4-1.1-0.4s-0.7,0.1-1,0.2s-0.5,0.3-0.7,0.5s-0.3,0.5-0.4,0.7s-0.1,0.6-0.1,0.9v4.2h-1.2v-10.3
			L289.9,713.7L289.9,713.7z"/>
		<path class="st4" d="M296.8,715.2v-1.5h1.2v1.5H296.8z M298,716.6v7.5h-1.2v-7.5H298z"/>
		<path class="st4" d="M304.3,717.9c-0.3-0.3-0.7-0.4-1.2-0.4s-0.8,0.1-1.1,0.3c-0.3,0.1-0.5,0.4-0.7,0.7s-0.3,0.6-0.4,0.9
			c-0.1,0.3-0.1,0.7-0.1,1.1c0,0.3,0.1,0.7,0.1,1c0.1,0.3,0.2,0.6,0.4,0.9c0.2,0.3,0.4,0.5,0.7,0.6s0.6,0.3,1,0.3
			c0.6,0,1-0.1,1.4-0.5c0.3-0.3,0.5-0.8,0.7-1.3h1.2c-0.1,0.9-0.5,1.6-1,2.2c-0.5,0.5-1.3,0.7-2.2,0.7c-0.6,0-1-0.1-1.5-0.3
			s-0.8-0.5-1.1-0.8c-0.3-0.3-0.5-0.7-0.7-1.2c-0.1-0.5-0.2-1-0.2-1.5s0.1-1,0.2-1.6c0.1-0.5,0.4-0.9,0.7-1.2s0.7-0.7,1.1-0.9
			c0.5-0.2,1-0.3,1.5-0.3c0.4,0,0.8,0.1,1.2,0.1c0.4,0.1,0.7,0.3,1,0.5s0.5,0.5,0.7,0.8s0.3,0.7,0.3,1.1h-1.2
			C304.8,718.5,304.6,718.1,304.3,717.9z"/>
		<path class="st4" d="M308.6,722.4c0.1,0.2,0.3,0.3,0.5,0.5c0.2,0.1,0.4,0.2,0.7,0.3s0.5,0.1,0.7,0.1s0.4,0,0.6-0.1
			c0.2,0,0.4-0.1,0.6-0.1c0.2-0.1,0.3-0.2,0.5-0.3c0.1-0.1,0.2-0.3,0.2-0.6s-0.1-0.6-0.3-0.7c-0.3-0.1-0.5-0.3-0.9-0.4
			c-0.4-0.1-0.7-0.2-1.2-0.3c-0.4-0.1-0.8-0.2-1.2-0.3c-0.3-0.1-0.7-0.3-0.9-0.7c-0.3-0.3-0.3-0.7-0.3-1.1c0-0.4,0.1-0.7,0.3-1
			c0.2-0.3,0.4-0.5,0.7-0.7s0.6-0.3,0.9-0.4c0.3-0.1,0.7-0.1,1-0.1c0.4,0,0.8,0.1,1.2,0.1c0.3,0.1,0.7,0.2,0.9,0.4s0.5,0.4,0.7,0.7
			s0.3,0.7,0.3,1.1H312c0-0.3-0.1-0.5-0.2-0.6s-0.3-0.3-0.4-0.4c-0.1-0.1-0.3-0.2-0.5-0.2c-0.2-0.1-0.4-0.1-0.6-0.1s-0.4,0-0.5,0.1
			c-0.2,0-0.3,0.1-0.5,0.1c-0.1,0.1-0.3,0.2-0.4,0.3s-0.1,0.3-0.1,0.5s0.1,0.4,0.2,0.5s0.3,0.3,0.6,0.3c0.2,0.1,0.5,0.2,0.8,0.3
			s0.6,0.1,0.9,0.2c0.3,0.1,0.6,0.1,0.9,0.3c0.3,0.1,0.5,0.2,0.8,0.4c0.2,0.1,0.4,0.3,0.5,0.6s0.2,0.5,0.2,0.9
			c0,0.5-0.1,0.9-0.3,1.1c-0.2,0.3-0.5,0.5-0.7,0.7c-0.3,0.2-0.7,0.3-1,0.4c-0.4,0.1-0.7,0.1-1.1,0.1s-0.8-0.1-1.2-0.1
			c-0.4-0.1-0.7-0.2-1-0.4s-0.5-0.5-0.7-0.8s-0.3-0.7-0.3-1.2h1.2C308.4,722,308.4,722.2,308.6,722.4z"/>
	</g>
</g>
<g id="Calque_11" class="st5">
	<g class="st6">
		<path class="st2" d="M427.2,522.2l-308.8-16.3l13.5-256.5l147.7,151.7l161.1-135.4c0,0-3.8,72.7-5.4,103.3
			c-1.6,30.5-17.7,44.1-19.4,76.3C414.2,477.5,429.1,485.5,427.2,522.2z"/>
		<g>
			<g>
				<line class="st7" x1="575.9" y1="334.6" x2="530.5" y2="375.2"/>
				<g>
					<polygon class="st8" points="526,365.8 519.8,384.7 539.3,380.7 					"/>
				</g>
			</g>
		</g>
		<g>
			<path class="st9" d="M289.9,179.9l138,91.8l-5.1,96.4c-0.7,13.1-4.4,22.4-8.7,33.3c-4.6,11.6-9.8,24.8-10.7,43.1
				c-0.9,17.7,2.6,29,5.9,40c2.4,7.6,4.6,14.9,5.3,25l-284.2-15L143,256.7L289.9,179.9 M290.6,166l-159.2,83.3l-13.5,256.5
				l308.8,16.3c1.9-36.7-13-44.7-11.3-76.9c1.7-32.3,17.8-45.8,19.4-76.3c1.6-30.5,5.4-103.3,5.4-103.3L290.6,166L290.6,166z"/>
		</g>
		<polygon class="st9" points="155.3,507.4 163.3,469.8 178,461.3 183.1,423.5 189.9,418.8 194,385.4 197.4,421 189.7,430.1 
			188.9,467.6 172.7,481.5 173.3,508.2 		"/>
		<polygon class="st9" points="411.7,416.9 397.1,408.6 395.5,401.5 380.8,394.6 379.8,391.2 366.7,385.3 381.6,388.4 384.3,392.7 
			399.5,397.9 403.1,406.2 414.5,409.5 		"/>
		<polygon class="st9" points="404.3,450.8 381.1,446.2 375.9,437.4 353,434.7 350.2,430.6 330,428.4 351.4,426 357,430.6 
			379.6,430.8 388.1,440.4 404.8,439.7 		"/>
		<polygon class="st9" points="414.2,483.6 398.1,488.4 391.9,484.7 376.7,490.6 373.6,489 360.2,494.4 372.9,485.7 377.8,486.7 
			392,479.3 400.6,482.5 410.8,476.5 		"/>
		<text transform="matrix(0.7262 -0.6807 0.6839 0.7296 595.4518 330.5769)" class="st10 st11 st12">Chute de pierres</text>
		<text transform="matrix(0.7262 -0.6807 0.6839 0.7296 697.8738 326.0363)" class="st9 st11 st12">Mouvement de fluage</text>
		<text transform="matrix(0.9954 0 0 1 197.0308 308.4985)" class="st11 st12">Risse, Tragwerk-</text>
		<text transform="matrix(0.9954 0 0 1 197.0308 336.4985)" class="st11 st12">versagen</text>
		<path class="st13" d="M895.5,90.7c-3.1-0.7-14.7-0.9-19-2.6s-13.4-3.3-16.9-6c-3.5-2.8-5.9-7-6-11.1s-2.4-9.9-2.2-13.7
			s-1.3-8.4-1-11.6c0.3-3.2,2.6-8.2,3.8-11.9c1.2-3.6,5-6.3,7.7-10.4s1.9-5.9,8.1-9.5c6.3-3.6,8.8-6.1,15.3-5.5
			c6.4,0.6,20.4,3.7,23.6,6.3c3.1,2.5,11,13.4,13,19.5s9.4,21.8,7.3,28.1c-2.2,6.3-5.3,20.9-9.5,23.3c-4.2,2.4-16.5,5.7-18.1,5.5
			C900,90.9,897.5,91.2,895.5,90.7z"/>
		<path class="st13" d="M765.1,152.2c2.9,2.1,3.7,5.9,3.1,11.4c-0.6,5.4-1,12.9-4.9,15.3c-3.8,2.4-5.7,1.5-12.6-1.7
			c-6.9-3.2-12.3-3.9-14.7-10.3c-2.3-6.4-1.4-6.8,4.8-12.7s10.3-7.4,13.3-6.4C757.1,148.9,762.3,150.1,765.1,152.2z"/>
		<path class="st13" d="M899.7,112c0.3,3.6-2,6.7-6.5,9.8c-4.5,3.1-10.4,7.7-14.7,6.5c-4.3-1.3-4.9-3.3-7.1-10.6
			c-2.1-7.3-5.3-11.8-2-17.8c3.3-6,4.2-5.5,12.7-4.8c8.5,0.8,12.4,2.9,13.6,5.8C897,103.7,899.4,108.4,899.7,112z"/>
		<path class="st13" d="M801.1,96.5c-1.4,2.6-4.8,6.3-8.2,7s-5.8,2.3-9.2,1.7c-3.4-0.6-7.6-2-11.2-3.2c-3.6-1.2-7.5-1.2-8.1-3.5
			S764,96,767,94.9s5.7-1.7,8.3-2.8c2.6-1,4-2.3,7.9-3.1c3.8-0.8,6.8-1.5,11.1-0.1C798.4,90.3,803.3,92.6,801.1,96.5z"/>
		<path class="st13" d="M838.1,62.2c-2.4,0.3-5.1,4.9-7.3,6.9s-7.2,6.2-7.8,8.9c-0.5,2.7-2.4,9.2-2.2,12.2c0.2,3.1,1.7,8.9,5.5,10.9
			c4,2.2,8.4,6.9,13.3,4.6c4.9-2.3,7.8-13.8,5.7-19c-2.2-5.2-2.2-8.5-0.9-11.5s1-9.7,0-10.9C843.2,63.1,840.7,61.8,838.1,62.2z"/>
		<path class="st13" d="M800.4,140.7c-2.7-0.6-8.8-4.9-12.3-8.3c-3.4-3.4-7.4-8.1-8.3-10c-1-2,1-4.2,2.7-5.1c1.7-1,3.2-2.2,5.9-1.2
			s14.5,3.2,18.9,2.9c4.4-0.2,22.5,0.2,27.2,1c4.7,0.7,12,8.8,11,12s-3.6,7.4-4.5,8.7s-8,2.6-11.9,3.3s-9.3,2.9-13.5,1.7
			C811.4,144.4,806.3,141.9,800.4,140.7z"/>
		<path class="st13" d="M765.7,146.1c-1.4-1.6-2.3-2.3-2.3-5.4c0-3.1-1.2-6.8-0.8-9.4c0.4-2.6,0.5-3.9,1.8-5.1s3.9-0.8,5.2,0.1
			s3.7,5.9,4.3,7.8c0.6,2.3,0.4,2.7-0.5,4.6c-1.1,2.1-0.9,2.5-2.3,5C769.7,146.2,767.5,148.1,765.7,146.1z"/>
		<path class="st13" d="M795,152.7c1.3-0.1,6.5-0.3,5,1.6c-1.5,1.9-1.7,4.2-3,4.3s-2.7-0.1-4-1.3S792.5,152.9,795,152.7z"/>
		<path class="st13" d="M799.5,68.5c0.8-1.3,3.2-2.6,4.9-1.3c1.7,1.2,5.2,3.5,5.9,4.4s1.2,1.7,0.1,2.5c-1.1,0.8-2.5,0.1-4,0.3
			c-1.6,0.2-2.6,0.7-4.1,0.4C800.8,74.5,798.2,70.7,799.5,68.5z"/>
		<path class="st13" d="M803.4,108.9c1.6,1.1,5.6,2.8,6.9,2.8c1.3,0,2.5-0.5,3.3-1.3s0-1.6-1.3-3.3c-1.3-1.7-0.9-4.2-1.9-4.9
			c-0.9-0.6-2.3-1.4-3.8-0.8c-1.4,0.6-1.1,1.1-2.2,2.3C803.4,105.1,801.1,107.2,803.4,108.9z"/>
		<line class="st14" x1="273.8" y1="435.2" x2="273.8" y2="512.4"/>
		<g>
			<polygon class="st9" points="256.2,498.6 291.3,498.6 273.9,529 			"/>
			<path class="st15" d="M288.7,500.1l-14.9,26l-15-26L288.7,500.1 M293.9,497.1h-5.2h-29.9h-5.2l2.6,4.5l15,26l2.6,4.5l2.6-4.5
				l14.9-26L293.9,497.1L293.9,497.1z"/>
		</g>
		<g>
			<polygon class="st9" points="256.2,446 273.7,415.6 291.3,446 			"/>
			<path class="st15" d="M273.7,418.6l15,26h-29.9L273.7,418.6 M273.7,412.6l-2.6,4.5l-14.9,26l-2.6,4.5h5.2h29.9h5.2l-2.6-4.5
				l-15-26L273.7,412.6L273.7,412.6z"/>
		</g>
		<line class="st16" x1="273.8" y1="435.2" x2="273.8" y2="512.4"/>
		<g>
			<path class="st17" d="M676,335.9L525.5,476.5c-6,5.6-17.7,10.2-26,10.2h-29.6"/>
		</g>
		<g>
			<polygon class="st9" points="456,486.3 486.4,468.6 486.4,503.7 			"/>
			<path class="st15" d="M484.9,471.2v29.9l-26-14.9L484.9,471.2 M487.9,466l-4.5,2.6l-26,15l-4.5,2.6l4.5,2.6l26,14.9l4.5,2.6v-5.2
				v-29.9V466L487.9,466z"/>
		</g>
		<g>
			<path class="st16" d="M676,335.9L525.5,476.5c-6,5.6-17.7,10.2-26,10.2h-29.6"/>
		</g>
	</g>
</g>
<g>
	<path class="st4" d="M23.2,465.8c-0.9-0.7-2.1-1-3.4-1c-1.1,0-2.1,0.2-2.8,0.6c-0.8,0.4-1.4,1-2,1.7c-0.5,0.7-0.9,1.5-1.1,2.4
		c-0.2,0.9-0.4,1.8-0.4,2.8c0,1.1,0.1,2.1,0.4,3c0.2,0.9,0.6,1.8,1.1,2.5s1.2,1.3,2,1.7s1.8,0.6,2.9,0.6c0.8,0,1.5-0.1,2.2-0.4
		c0.6-0.3,1.2-0.6,1.6-1.1c0.5-0.5,0.8-1,1.1-1.7c0.3-0.7,0.4-1.4,0.5-2.1h2.5c-0.2,2.3-1,4.2-2.4,5.5s-3.2,2-5.6,2
		c-1.4,0-2.7-0.2-3.8-0.7c-1.1-0.5-2-1.2-2.7-2c-0.7-0.9-1.2-1.9-1.6-3.1c-0.4-1.2-0.5-2.4-0.5-3.8s0.2-2.6,0.6-3.8
		c0.4-1.2,0.9-2.2,1.7-3.1c0.7-0.9,1.7-1.6,2.8-2.1s2.4-0.8,3.8-0.8c1,0,1.9,0.1,2.8,0.4s1.6,0.6,2.3,1.1c0.7,0.5,1.2,1.1,1.7,1.9
		s0.7,1.6,0.9,2.6h-2.5C24.8,467.5,24.2,466.5,23.2,465.8z"/>
	<path class="st4" d="M30.1,472.3c0.3-0.9,0.7-1.6,1.2-2.2c0.6-0.6,1.2-1.1,2.1-1.5s1.8-0.5,2.8-0.5c1.1,0,2,0.2,2.8,0.5
		c0.8,0.4,1.5,0.9,2,1.5c0.6,0.6,1,1.4,1.2,2.2c0.3,0.9,0.4,1.8,0.4,2.8s-0.1,1.9-0.4,2.8c-0.3,0.8-0.7,1.6-1.2,2.2
		c-0.6,0.6-1.2,1.1-2,1.5s-1.7,0.5-2.8,0.5s-2-0.2-2.8-0.5s-1.5-0.8-2.1-1.5c-0.6-0.6-1-1.4-1.2-2.2c-0.3-0.8-0.4-1.8-0.4-2.8
		S29.8,473.1,30.1,472.3z M32.4,477.2c0.2,0.6,0.5,1.2,0.9,1.6s0.8,0.8,1.3,1s1.1,0.3,1.6,0.3c0.6,0,1.1-0.1,1.6-0.3
		c0.5-0.2,1-0.6,1.3-1s0.7-1,0.9-1.6s0.3-1.4,0.3-2.2c0-0.8-0.1-1.5-0.3-2.2c-0.2-0.6-0.5-1.2-0.9-1.6s-0.8-0.8-1.3-1
		s-1.1-0.3-1.6-0.3c-0.6,0-1.1,0.1-1.6,0.3s-1,0.6-1.3,1c-0.4,0.4-0.7,1-0.9,1.6s-0.3,1.4-0.3,2.2C32,475.9,32.2,476.6,32.4,477.2z"
		/>
	<path class="st4" d="M54.4,481.8v-2.1h-0.1c-0.5,0.8-1.1,1.4-1.8,1.8s-1.6,0.6-2.6,0.6c-0.9,0-1.6-0.1-2.2-0.4
		c-0.6-0.2-1.1-0.6-1.4-1c-0.4-0.4-0.6-0.9-0.8-1.5c-0.1-0.6-0.2-1.3-0.2-2v-8.8h2.2v9.1c0,0.8,0.2,1.5,0.7,2s1.2,0.7,2,0.7
		c0.7,0,1.3-0.1,1.8-0.3c0.5-0.2,0.9-0.5,1.2-0.9s0.6-0.8,0.7-1.3c0.2-0.5,0.2-1.1,0.2-1.7v-7.6h2.2v13.4L54.4,481.8L54.4,481.8z"/>
	<path class="st4" d="M67.8,470.7c-0.6-0.5-1.3-0.7-2.2-0.7c-0.8,0-1.5,0.1-2,0.4s-1,0.7-1.3,1.2s-0.6,1-0.7,1.7s-0.2,1.3-0.2,2
		c0,0.6,0.1,1.2,0.2,1.8c0.1,0.6,0.4,1.1,0.7,1.6s0.7,0.8,1.2,1.1c0.5,0.3,1.1,0.4,1.8,0.4c1.1,0,1.9-0.3,2.6-0.9
		c0.6-0.6,1-1.4,1.1-2.4h2.3c-0.2,1.7-0.9,2.9-1.9,3.8s-2.4,1.4-4.1,1.4c-1,0-1.9-0.2-2.7-0.5s-1.4-0.8-2-1.4
		c-0.5-0.6-0.9-1.3-1.2-2.2c-0.3-0.8-0.4-1.8-0.4-2.8s0.1-1.9,0.4-2.8c0.3-0.9,0.7-1.6,1.2-2.3c0.5-0.6,1.2-1.2,2-1.5
		c0.8-0.4,1.7-0.6,2.8-0.6c0.8,0,1.5,0.1,2.1,0.3c0.7,0.2,1.3,0.5,1.8,0.8s0.9,0.9,1.3,1.4c0.3,0.6,0.5,1.3,0.6,2.1h-2.3
		C68.8,471.8,68.4,471.1,67.8,470.7z"/>
	<path class="st4" d="M76,463.2v7.1l0,0c0.2-0.4,0.4-0.8,0.7-1.1c0.3-0.3,0.7-0.5,1.1-0.7s0.8-0.3,1.2-0.4c0.4-0.1,0.8-0.1,1.2-0.1
		c0.9,0,1.6,0.1,2.2,0.4c0.6,0.2,1.1,0.6,1.4,1c0.4,0.4,0.6,0.9,0.8,1.5s0.2,1.3,0.2,2v8.8h-2.2v-9.1c0-0.8-0.2-1.5-0.7-2
		s-1.2-0.7-2-0.7c-0.7,0-1.3,0.1-1.8,0.3c-0.5,0.2-0.9,0.5-1.2,0.9c-0.3,0.4-0.6,0.8-0.7,1.3c-0.2,0.5-0.2,1.1-0.2,1.7v7.6h-2.2
		v-18.6H76V463.2z"/>
	<path class="st4" d="M97.7,480.9c-1,0.8-2.3,1.1-3.8,1.1c-1.1,0-2-0.2-2.8-0.5s-1.5-0.8-2-1.5c-0.5-0.6-0.9-1.4-1.2-2.2
		c-0.3-0.9-0.4-1.8-0.5-2.8c0-1,0.2-2,0.5-2.8s0.7-1.6,1.3-2.2s1.2-1.1,2-1.5c0.8-0.3,1.6-0.5,2.5-0.5c1.2,0,2.2,0.2,3,0.7
		s1.4,1.1,1.9,1.9s0.8,1.6,1,2.5s0.3,1.8,0.2,2.6h-10c0,0.6,0.1,1.1,0.2,1.7c0.2,0.5,0.4,1,0.8,1.4s0.8,0.7,1.3,1
		c0.5,0.2,1.2,0.4,1.9,0.4c0.9,0,1.7-0.2,2.3-0.7c0.6-0.4,1-1.1,1.2-2h2.2C99.4,479,98.8,480.1,97.7,480.9z M97.2,472.3
		c-0.2-0.5-0.5-0.9-0.8-1.2c-0.3-0.3-0.7-0.6-1.2-0.8c-0.5-0.2-1-0.3-1.5-0.3c-0.6,0-1.1,0.1-1.5,0.3c-0.5,0.2-0.9,0.5-1.2,0.8
		c-0.3,0.3-0.6,0.7-0.8,1.2c-0.2,0.5-0.3,0.9-0.3,1.5h7.7C97.5,473.2,97.4,472.7,97.2,472.3z"/>
	<path class="st4" d="M21.5,509.8V508h-0.1c-0.4,0.7-0.9,1.3-1.7,1.6c-0.8,0.3-1.6,0.5-2.6,0.5s-1.9-0.2-2.7-0.6s-1.4-0.9-1.9-1.5
		s-0.9-1.4-1.2-2.2c-0.3-0.8-0.4-1.8-0.4-2.7s0.1-1.9,0.4-2.7c0.3-0.8,0.6-1.6,1.1-2.2s1.2-1.1,1.9-1.5c0.8-0.4,1.7-0.6,2.7-0.6
		c0.3,0,0.7,0,1.1,0.1s0.8,0.2,1.2,0.4c0.4,0.2,0.8,0.4,1.1,0.6c0.4,0.3,0.7,0.6,0.9,1h0.1v-6.9h2.2v18.6L21.5,509.8L21.5,509.8z
		 M13.5,505c0.2,0.6,0.4,1.1,0.8,1.6c0.3,0.5,0.8,0.8,1.3,1.1c0.5,0.3,1.1,0.4,1.9,0.4c0.7,0,1.4-0.1,1.9-0.4s0.9-0.7,1.3-1.2
		c0.3-0.5,0.6-1,0.7-1.6s0.2-1.2,0.2-1.8c0-0.7-0.1-1.3-0.2-1.9c-0.2-0.6-0.4-1.2-0.7-1.6c-0.3-0.5-0.8-0.8-1.3-1.1
		s-1.2-0.4-1.9-0.4c-0.7,0-1.4,0.1-1.9,0.4s-0.9,0.7-1.2,1.2s-0.5,1-0.7,1.7s-0.2,1.3-0.2,1.9C13.3,503.8,13.4,504.4,13.5,505z"/>
	<path class="st4" d="M36.6,508.9c-1,0.8-2.3,1.1-3.8,1.1c-1.1,0-2-0.2-2.8-0.5s-1.5-0.8-2-1.5c-0.5-0.6-0.9-1.4-1.2-2.2
		c-0.3-0.9-0.4-1.8-0.5-2.8c0-1,0.2-2,0.5-2.8s0.7-1.6,1.3-2.2s1.2-1.1,2-1.5c0.8-0.3,1.6-0.5,2.5-0.5c1.2,0,2.2,0.2,3,0.7
		s1.4,1.1,1.9,1.9s0.8,1.6,1,2.5s0.3,1.8,0.2,2.6h-10c0,0.6,0.1,1.1,0.2,1.7c0.2,0.5,0.4,1,0.8,1.4s0.8,0.7,1.3,1
		c0.5,0.2,1.2,0.4,1.9,0.4c0.9,0,1.7-0.2,2.3-0.7c0.6-0.4,1-1.1,1.2-2h2.2C38.3,507,37.6,508.1,36.6,508.9z M36.1,500.3
		c-0.2-0.5-0.5-0.9-0.8-1.2c-0.3-0.3-0.7-0.6-1.2-0.8c-0.5-0.2-1-0.3-1.5-0.3c-0.6,0-1.1,0.1-1.5,0.3c-0.5,0.2-0.9,0.5-1.2,0.8
		c-0.3,0.3-0.6,0.7-0.8,1.2c-0.2,0.5-0.3,0.9-0.3,1.5h7.7C36.4,501.2,36.3,500.7,36.1,500.3z"/>
	<path class="st4" d="M58.1,509.8V508H58c-0.4,0.7-0.9,1.3-1.7,1.6c-0.8,0.3-1.6,0.5-2.6,0.5s-1.9-0.2-2.7-0.6s-1.4-0.9-1.9-1.5
		s-0.9-1.4-1.2-2.2c-0.3-0.8-0.4-1.8-0.4-2.7s0.1-1.9,0.4-2.7c0.3-0.8,0.6-1.6,1.1-2.2s1.2-1.1,1.9-1.5c0.8-0.4,1.7-0.6,2.7-0.6
		c0.3,0,0.7,0,1.1,0.1c0.4,0.1,0.8,0.2,1.2,0.4c0.4,0.2,0.8,0.4,1.1,0.6c0.4,0.3,0.7,0.6,0.9,1H58v-6.9h2.2v18.6L58.1,509.8
		L58.1,509.8z M50.1,505c0.2,0.6,0.4,1.1,0.8,1.6c0.3,0.5,0.8,0.8,1.3,1.1c0.5,0.3,1.1,0.4,1.9,0.4c0.7,0,1.4-0.1,1.9-0.4
		s0.9-0.7,1.3-1.2c0.3-0.5,0.6-1,0.7-1.6c0.1-0.6,0.2-1.2,0.2-1.8c0-0.7-0.1-1.3-0.2-1.9c-0.2-0.6-0.4-1.2-0.7-1.6
		c-0.3-0.5-0.8-0.8-1.3-1.1s-1.2-0.4-1.9-0.4s-1.4,0.1-1.9,0.4s-0.9,0.7-1.2,1.2s-0.5,1-0.7,1.7s-0.2,1.3-0.2,1.9
		C49.9,503.8,50,504.4,50.1,505z"/>
	<path class="st4" d="M73.2,508.9c-1,0.8-2.3,1.1-3.8,1.1c-1.1,0-2-0.2-2.8-0.5s-1.5-0.8-2-1.5c-0.5-0.6-0.9-1.4-1.2-2.2
		C63.1,505,63,504,63,503s0.2-2,0.5-2.8s0.7-1.6,1.3-2.2s1.2-1.1,2-1.5c0.8-0.3,1.6-0.5,2.5-0.5c1.2,0,2.2,0.2,3,0.7
		s1.4,1.1,1.9,1.9s0.8,1.6,1,2.5s0.3,1.8,0.2,2.6H65.3c0,0.6,0.1,1.1,0.2,1.7c0.2,0.5,0.4,1,0.8,1.4s0.8,0.7,1.3,1
		c0.5,0.2,1.2,0.4,1.9,0.4c0.9,0,1.7-0.2,2.3-0.7c0.6-0.4,1-1.1,1.2-2h2.2C74.9,507,74.2,508.1,73.2,508.9z M72.7,500.3
		c-0.2-0.5-0.5-0.9-0.8-1.2c-0.3-0.3-0.7-0.6-1.2-0.8c-0.5-0.2-1-0.3-1.5-0.3c-0.6,0-1.1,0.1-1.5,0.3c-0.5,0.2-0.9,0.5-1.2,0.8
		c-0.3,0.3-0.6,0.7-0.8,1.2c-0.2,0.5-0.3,0.9-0.3,1.5H73C73,501.2,72.9,500.7,72.7,500.3z M69.9,489.7l-2.5,4.2h1.7l3.7-4.2H69.9z"
		/>
	<path class="st4" d="M87.7,513.6c-1,1.1-2.6,1.6-4.7,1.6c-0.6,0-1.3-0.1-1.9-0.2s-1.2-0.4-1.8-0.7c-0.5-0.3-1-0.7-1.3-1.2
		s-0.5-1.1-0.6-1.8h2.2c0,0.4,0.1,0.7,0.4,1s0.5,0.5,0.9,0.7c0.3,0.2,0.7,0.3,1.1,0.4c0.4,0.1,0.8,0.1,1.1,0.1
		c0.7,0,1.3-0.1,1.8-0.4c0.5-0.3,0.9-0.6,1.2-1c0.3-0.4,0.6-1,0.7-1.6s0.2-1.3,0.2-2.1v-0.9h-0.1c-0.4,0.8-1,1.4-1.7,1.8
		c-0.8,0.4-1.6,0.6-2.5,0.6c-1,0-1.9-0.2-2.6-0.5c-0.7-0.4-1.4-0.9-1.9-1.5s-0.9-1.3-1.1-2.2c-0.3-0.8-0.4-1.7-0.4-2.6
		c0-0.8,0.1-1.6,0.3-2.5c0.2-0.8,0.6-1.6,1-2.3c0.5-0.7,1.1-1.2,1.9-1.7c0.8-0.4,1.8-0.7,2.9-0.7c0.8,0,1.6,0.2,2.3,0.6
		c0.7,0.4,1.3,0.9,1.7,1.7l0,0v-1.9h2.1v12.3C89.2,510.8,88.7,512.5,87.7,513.6z M84.9,507.5c0.5-0.3,0.9-0.7,1.2-1.2
		s0.5-1.1,0.7-1.7c0.1-0.6,0.2-1.2,0.2-1.9c0-0.6-0.1-1.2-0.2-1.7c-0.1-0.6-0.4-1.1-0.7-1.5c-0.3-0.5-0.7-0.8-1.2-1.1
		c-0.5-0.3-1.1-0.4-1.8-0.4c-0.7,0-1.3,0.1-1.8,0.4s-0.9,0.6-1.2,1.1c-0.3,0.5-0.6,1-0.7,1.6s-0.2,1.2-0.2,1.8
		c0,0.6,0.1,1.2,0.2,1.8c0.1,0.6,0.3,1.2,0.6,1.7c0.3,0.5,0.7,0.9,1.2,1.2c0.5,0.3,1.1,0.5,1.8,0.5C83.8,508,84.4,507.8,84.9,507.5z
		"/>
	<path class="st4" d="M102.1,508.9c-1,0.8-2.3,1.1-3.8,1.1c-1.1,0-2-0.2-2.8-0.5s-1.5-0.8-2-1.5c-0.5-0.6-0.9-1.4-1.2-2.2
		c-0.3-0.9-0.4-1.8-0.5-2.8c0-1,0.2-2,0.5-2.8s0.7-1.6,1.3-2.2s1.2-1.1,2-1.5c0.8-0.3,1.6-0.5,2.5-0.5c1.2,0,2.2,0.2,3,0.7
		s1.4,1.1,1.9,1.9s0.8,1.6,1,2.5s0.3,1.8,0.2,2.6h-10c0,0.6,0.1,1.1,0.2,1.7c0.2,0.5,0.4,1,0.8,1.4s0.8,0.7,1.3,1
		c0.5,0.2,1.2,0.4,1.9,0.4c0.9,0,1.7-0.2,2.3-0.7c0.6-0.4,1-1.1,1.2-2h2.2C103.7,507,103.1,508.1,102.1,508.9z M101.6,500.3
		c-0.2-0.5-0.5-0.9-0.8-1.2c-0.3-0.3-0.7-0.6-1.2-0.8c-0.5-0.2-1-0.3-1.5-0.3c-0.6,0-1.1,0.1-1.5,0.3c-0.5,0.2-0.9,0.5-1.2,0.8
		c-0.3,0.3-0.6,0.7-0.8,1.2c-0.2,0.5-0.3,0.9-0.3,1.5h7.7C101.9,501.2,101.8,500.7,101.6,500.3z"/>
	<path class="st4" d="M108.9,491.2v18.6h-2.2v-18.6H108.9z"/>
</g>
<rect x="186.8" y="315.1" class="st18" width="200.4" height="89"/>
<g>
	<path class="st4" d="M23.2,646.1c-1.1,0.4-2.2,0.6-3.2,0.6c-1.4,0-2.6-0.3-3.7-0.8s-2-1.2-2.8-2.1c-0.8-0.9-1.3-1.9-1.7-3
		s-0.6-2.3-0.6-3.5c0-1.4,0.2-2.6,0.6-3.9c0.4-1.2,0.9-2.3,1.7-3.2c0.7-0.9,1.7-1.7,2.8-2.2s2.4-0.8,3.9-0.8c1,0,2,0.1,2.8,0.4
		c0.9,0.2,1.7,0.6,2.4,1.1c0.7,0.5,1.3,1.1,1.8,1.9s0.8,1.7,1,2.8h-2.5c-0.1-0.7-0.3-1.3-0.7-1.8c-0.3-0.5-0.7-0.9-1.2-1.3
		c-0.5-0.3-1-0.6-1.7-0.7s-1.3-0.2-2-0.2c-1.1,0-2.1,0.2-2.9,0.7s-1.5,1-2,1.8c-0.5,0.7-0.9,1.6-1.1,2.5c-0.2,0.9-0.4,1.9-0.4,2.9
		s0.1,1.9,0.4,2.8s0.7,1.7,1.2,2.4s1.2,1.2,2,1.6s1.7,0.6,2.7,0.6s1.8-0.2,2.6-0.5c0.7-0.3,1.4-0.7,1.9-1.3c0.5-0.5,0.9-1.2,1.2-1.9
		c0.3-0.7,0.4-1.5,0.3-2.4h-6v-2.1h8.1v9.8h-1.6l-0.6-2.3C25.2,645,24.3,645.7,23.2,646.1z"/>
	<path class="st4" d="M33.7,627.7v18.6h-2.2v-18.6H33.7z"/>
	<path class="st4" d="M49.1,646.3c-0.4,0.2-0.9,0.3-1.6,0.3c-0.6,0-1-0.2-1.4-0.5c-0.3-0.3-0.5-0.8-0.5-1.6
		c-0.6,0.7-1.3,1.3-2.1,1.6s-1.7,0.5-2.6,0.5c-0.6,0-1.2-0.1-1.7-0.2c-0.5-0.1-1-0.4-1.4-0.7s-0.7-0.7-0.9-1.2s-0.4-1.1-0.4-1.7
		c0-0.8,0.1-1.4,0.4-1.9c0.3-0.5,0.6-0.9,1-1.2s0.9-0.5,1.5-0.7s1.1-0.3,1.7-0.4c0.6-0.1,1.2-0.2,1.7-0.3s1-0.1,1.4-0.3
		c0.4-0.1,0.7-0.3,1-0.5c0.2-0.2,0.4-0.5,0.4-0.9c0-0.5-0.1-0.9-0.3-1.2s-0.4-0.5-0.7-0.7s-0.6-0.3-1-0.3c-0.4-0.1-0.7-0.1-1.1-0.1
		c-0.9,0-1.7,0.2-2.3,0.5c-0.6,0.4-1,1-1,2H37c0-0.8,0.2-1.5,0.5-2.1s0.7-1,1.2-1.4s1.1-0.6,1.8-0.8s1.4-0.2,2.1-0.2
		c0.6,0,1.2,0,1.8,0.1s1.1,0.3,1.6,0.5c0.5,0.3,0.9,0.6,1.2,1.1s0.4,1.1,0.4,1.9v6.9c0,0.5,0,0.9,0.1,1.1c0.1,0.2,0.3,0.4,0.6,0.4
		c0.2,0,0.4,0,0.7-0.1v2.1L49.1,646.3L49.1,646.3z M45.5,639.4c-0.3,0.2-0.6,0.4-1.1,0.5s-0.9,0.2-1.4,0.2s-1,0.1-1.5,0.2
		c-0.5,0.1-1,0.2-1.4,0.4s-0.7,0.4-1,0.7s-0.4,0.8-0.4,1.3c0,0.4,0.1,0.7,0.2,0.9c0.1,0.2,0.3,0.5,0.6,0.6c0.2,0.2,0.5,0.3,0.8,0.3
		c0.3,0.1,0.6,0.1,1,0.1c0.7,0,1.4-0.1,1.9-0.3s0.9-0.4,1.3-0.8c0.3-0.3,0.6-0.6,0.7-1c0.2-0.4,0.2-0.7,0.2-1v-2.1L45.5,639.4
		L45.5,639.4z"/>
	<path class="st4" d="M59.2,635.2c-0.6-0.5-1.3-0.7-2.2-0.7c-0.8,0-1.5,0.1-2,0.4c-0.5,0.3-1,0.7-1.3,1.2s-0.6,1-0.7,1.7
		s-0.2,1.3-0.2,2c0,0.6,0.1,1.2,0.2,1.8c0.1,0.6,0.4,1.1,0.7,1.6s0.7,0.8,1.2,1.1s1.1,0.4,1.8,0.4c1.1,0,1.9-0.3,2.6-0.9
		c0.6-0.6,1-1.4,1.1-2.4h2.3c-0.2,1.6-0.8,2.8-1.8,3.7c-0.9,0.9-2.2,1.4-3.8,1.5l-0.9,1.1l0.1,0.1c0.2-0.1,0.5-0.2,0.9-0.2
		c0.6,0,1.1,0.2,1.5,0.5c0.5,0.3,0.7,0.8,0.7,1.4c0,0.4-0.1,0.8-0.3,1.1s-0.5,0.5-0.8,0.7s-0.7,0.3-1,0.4c-0.4,0.1-0.8,0.1-1.1,0.1
		c-0.4,0-0.8,0-1.2-0.1s-0.8-0.2-1.2-0.4l0.5-1.1c0.2,0.1,0.5,0.2,0.7,0.2c0.3,0.1,0.6,0.1,0.8,0.1s0.4,0,0.5,0
		c0.2,0,0.4-0.1,0.5-0.1c0.2-0.1,0.3-0.2,0.4-0.2c0.1-0.1,0.2-0.2,0.2-0.4s-0.1-0.4-0.4-0.6c-0.2-0.1-0.5-0.2-0.9-0.2
		c-0.2,0-0.4,0-0.5,0.1c-0.2,0-0.3,0.1-0.5,0.2l-0.4-0.7l1.4-1.8c-0.9-0.1-1.7-0.3-2.4-0.7s-1.3-0.8-1.8-1.4
		c-0.5-0.6-0.8-1.3-1.1-2.1s-0.4-1.7-0.4-2.6c0-1,0.1-1.9,0.4-2.8c0.3-0.9,0.7-1.6,1.2-2.3c0.5-0.6,1.2-1.2,2-1.5
		c0.8-0.4,1.7-0.6,2.8-0.6c0.8,0,1.5,0.1,2.1,0.3c0.7,0.2,1.3,0.5,1.8,0.8s0.9,0.9,1.3,1.4c0.3,0.6,0.5,1.3,0.6,2.1h-2.3
		C60.1,636.3,59.7,635.7,59.2,635.2z"/>
	<path class="st4" d="M74.6,645.4c-1,0.8-2.3,1.1-3.8,1.1c-1.1,0-2-0.2-2.8-0.5s-1.5-0.8-2-1.5c-0.5-0.6-0.9-1.4-1.2-2.2
		c-0.3-0.9-0.4-1.8-0.5-2.8c0-1,0.2-2,0.5-2.8s0.7-1.6,1.3-2.2s1.2-1.1,2-1.5c0.8-0.3,1.6-0.5,2.5-0.5c1.2,0,2.2,0.2,3,0.7
		s1.4,1.1,1.9,1.9c0.5,0.8,0.8,1.6,1,2.5s0.3,1.8,0.2,2.6h-10c0,0.6,0.1,1.1,0.2,1.7c0.2,0.5,0.4,1,0.8,1.4s0.8,0.7,1.3,1
		c0.5,0.2,1.2,0.4,1.9,0.4c0.9,0,1.7-0.2,2.3-0.7c0.6-0.4,1-1.1,1.2-2h2.2C76.3,643.6,75.6,644.7,74.6,645.4z M74.1,636.8
		c-0.2-0.5-0.5-0.9-0.8-1.2s-0.7-0.6-1.2-0.8s-1-0.3-1.5-0.3c-0.6,0-1.1,0.1-1.5,0.3c-0.5,0.2-0.9,0.5-1.2,0.8
		c-0.3,0.3-0.6,0.7-0.8,1.2c-0.2,0.5-0.3,0.9-0.3,1.5h7.7C74.4,637.8,74.3,637.3,74.1,636.8z"/>
	<path class="st4" d="M94.3,635.2c-0.6-0.5-1.3-0.7-2.2-0.7c-0.8,0-1.5,0.1-2,0.4c-0.5,0.3-1,0.7-1.3,1.2s-0.6,1-0.7,1.7
		s-0.2,1.3-0.2,2c0,0.6,0.1,1.2,0.2,1.8s0.4,1.1,0.7,1.6c0.3,0.5,0.7,0.8,1.2,1.1s1.1,0.4,1.8,0.4c1.1,0,1.9-0.3,2.6-0.9
		c0.6-0.6,1-1.4,1.1-2.4h2.3c-0.2,1.7-0.9,2.9-1.9,3.8c-1,0.9-2.4,1.4-4.1,1.4c-1,0-1.9-0.2-2.7-0.5c-0.8-0.3-1.4-0.8-2-1.4
		c-0.5-0.6-0.9-1.3-1.2-2.2c-0.3-0.8-0.4-1.8-0.4-2.8s0.1-1.9,0.4-2.8c0.3-0.9,0.7-1.6,1.2-2.3c0.5-0.6,1.2-1.2,2-1.5
		c0.8-0.4,1.7-0.6,2.8-0.6c0.8,0,1.5,0.1,2.1,0.3c0.7,0.2,1.3,0.5,1.8,0.8s0.9,0.9,1.3,1.4c0.3,0.6,0.5,1.3,0.6,2.1h-2.3
		C95.2,636.3,94.9,635.7,94.3,635.2z"/>
	<path class="st4" d="M99.9,636.8c0.3-0.9,0.7-1.6,1.2-2.2c0.6-0.6,1.2-1.1,2.1-1.5s1.8-0.5,2.8-0.5c1.1,0,2,0.2,2.8,0.5
		c0.8,0.4,1.5,0.9,2,1.5c0.6,0.6,1,1.4,1.2,2.2c0.3,0.9,0.4,1.8,0.4,2.8s-0.1,1.9-0.4,2.8c-0.3,0.8-0.7,1.6-1.2,2.2
		c-0.6,0.6-1.2,1.1-2,1.5s-1.7,0.5-2.8,0.5c-1.1,0-2-0.2-2.8-0.5s-1.5-0.8-2.1-1.5c-0.6-0.6-1-1.4-1.2-2.2c-0.3-0.8-0.4-1.8-0.4-2.8
		S99.7,637.7,99.9,636.8z M102.2,641.8c0.2,0.6,0.5,1.2,0.9,1.6c0.4,0.4,0.8,0.8,1.3,1s1.1,0.3,1.6,0.3c0.6,0,1.1-0.1,1.6-0.3
		s1-0.6,1.3-1s0.7-1,0.9-1.6c0.2-0.6,0.3-1.4,0.3-2.2s-0.1-1.5-0.3-2.2c-0.2-0.6-0.5-1.2-0.9-1.6c-0.4-0.4-0.8-0.8-1.3-1
		s-1.1-0.3-1.6-0.3c-0.6,0-1.1,0.1-1.6,0.3s-1,0.6-1.3,1c-0.4,0.4-0.7,1-0.9,1.6c-0.2,0.6-0.3,1.4-0.3,2.2
		C101.9,640.4,102,641.1,102.2,641.8z"/>
	<path class="st4" d="M117.2,632.9v2.1h0.1c0.9-1.6,2.4-2.4,4.4-2.4c0.9,0,1.6,0.1,2.2,0.4c0.6,0.2,1.1,0.6,1.4,1
		c0.4,0.4,0.6,0.9,0.8,1.5s0.2,1.3,0.2,2v8.8h-2.2v-9.1c0-0.8-0.2-1.5-0.7-2s-1.2-0.7-2-0.7c-0.7,0-1.3,0.1-1.8,0.3
		s-0.9,0.5-1.2,0.9c-0.3,0.4-0.6,0.8-0.7,1.3c-0.2,0.5-0.2,1.1-0.2,1.7v7.6h-2.2v-13.4L117.2,632.9L117.2,632.9z"/>
	<path class="st4" d="M135.4,632.9v2h-2.7v8.3c0,0.3,0,0.5,0.1,0.6c0,0.2,0.1,0.3,0.2,0.4c0.1,0.1,0.3,0.1,0.5,0.2
		c0.2,0,0.5,0,0.8,0h1v2h-1.7c-0.6,0-1.1,0-1.5-0.1s-0.7-0.2-1-0.4s-0.4-0.5-0.6-0.9c-0.1-0.4-0.2-0.9-0.2-1.5v-8.6H128v-2h2.3v-4
		h2.2v4H135.4z"/>
	<path class="st4" d="M147.3,645.4c-1,0.8-2.3,1.1-3.8,1.1c-1.1,0-2-0.2-2.8-0.5s-1.5-0.8-2-1.5c-0.5-0.6-0.9-1.4-1.2-2.2
		c-0.3-0.9-0.4-1.8-0.5-2.8c0-1,0.2-2,0.5-2.8s0.7-1.6,1.3-2.2s1.2-1.1,2-1.5c0.8-0.3,1.6-0.5,2.5-0.5c1.2,0,2.2,0.2,3,0.7
		s1.4,1.1,1.9,1.9c0.5,0.8,0.8,1.6,1,2.5s0.3,1.8,0.2,2.6h-10.1c0,0.6,0.1,1.1,0.2,1.7c0.2,0.5,0.4,1,0.8,1.4s0.8,0.7,1.3,1
		c0.5,0.2,1.2,0.4,1.9,0.4c0.9,0,1.7-0.2,2.3-0.7c0.6-0.4,1-1.1,1.2-2h2.2C149,643.6,148.3,644.7,147.3,645.4z M146.8,636.8
		c-0.2-0.5-0.5-0.9-0.8-1.2s-0.7-0.6-1.2-0.8s-1-0.3-1.5-0.3c-0.6,0-1.1,0.1-1.5,0.3c-0.5,0.2-0.9,0.5-1.2,0.8s-0.6,0.7-0.8,1.2
		s-0.3,0.9-0.3,1.5h7.7C147.1,637.8,147,637.3,146.8,636.8z"/>
	<path class="st4" d="M153.9,632.9v2.1h0.1c0.9-1.6,2.4-2.4,4.4-2.4c0.9,0,1.6,0.1,2.2,0.4c0.6,0.2,1.1,0.6,1.4,1
		c0.4,0.4,0.6,0.9,0.8,1.5s0.2,1.3,0.2,2v8.8h-2.2v-9.1c0-0.8-0.2-1.5-0.7-2s-1.2-0.7-2-0.7c-0.7,0-1.3,0.1-1.8,0.3
		s-0.9,0.5-1.2,0.9s-0.6,0.8-0.7,1.3c-0.2,0.5-0.2,1.1-0.2,1.7v7.6H152v-13.4L153.9,632.9L153.9,632.9z"/>
	<path class="st4" d="M178.1,646.3c-0.4,0.2-0.9,0.3-1.6,0.3c-0.6,0-1-0.2-1.4-0.5c-0.3-0.3-0.5-0.8-0.5-1.6
		c-0.6,0.7-1.3,1.3-2.1,1.6s-1.7,0.5-2.6,0.5c-0.6,0-1.2-0.1-1.7-0.2c-0.5-0.1-1-0.4-1.4-0.7s-0.7-0.7-0.9-1.2s-0.4-1.1-0.4-1.7
		c0-0.8,0.1-1.4,0.4-1.9c0.3-0.5,0.6-0.9,1-1.2s0.9-0.5,1.5-0.7s1.1-0.3,1.7-0.4c0.6-0.1,1.2-0.2,1.7-0.3s1-0.1,1.4-0.3
		c0.4-0.1,0.7-0.3,1-0.5c0.2-0.2,0.4-0.5,0.4-0.9c0-0.5-0.1-0.9-0.3-1.2s-0.4-0.5-0.7-0.7s-0.6-0.3-1-0.3c-0.4-0.1-0.7-0.1-1.1-0.1
		c-0.9,0-1.7,0.2-2.3,0.5c-0.6,0.4-1,1-1,2H166c0-0.8,0.2-1.5,0.5-2.1s0.7-1,1.2-1.4s1.1-0.6,1.8-0.8s1.4-0.2,2.1-0.2
		c0.6,0,1.2,0,1.8,0.1s1.1,0.3,1.6,0.5c0.5,0.3,0.9,0.6,1.2,1.1s0.4,1.1,0.4,1.9v6.9c0,0.5,0,0.9,0.1,1.1c0.1,0.2,0.3,0.4,0.6,0.4
		c0.2,0,0.4,0,0.7-0.1L178.1,646.3L178.1,646.3z M174.6,639.4c-0.3,0.2-0.6,0.4-1.1,0.5s-0.9,0.2-1.4,0.2s-1,0.1-1.5,0.2
		c-0.5,0.1-1,0.2-1.4,0.4s-0.7,0.4-1,0.7s-0.4,0.8-0.4,1.3c0,0.4,0.1,0.7,0.2,0.9c0.1,0.2,0.3,0.5,0.6,0.6c0.2,0.2,0.5,0.3,0.8,0.3
		c0.3,0.1,0.6,0.1,1,0.1c0.7,0,1.4-0.1,1.9-0.3s0.9-0.4,1.3-0.8c0.3-0.3,0.6-0.6,0.7-1c0.2-0.4,0.2-0.7,0.2-1L174.6,639.4
		L174.6,639.4z"/>
	<path class="st4" d="M182.3,632.9v2.1h0.1c0.9-1.6,2.4-2.4,4.4-2.4c0.9,0,1.6,0.1,2.2,0.4c0.6,0.2,1.1,0.6,1.4,1
		c0.4,0.4,0.6,0.9,0.8,1.5s0.2,1.3,0.2,2v8.8h-2.2v-9.1c0-0.8-0.2-1.5-0.7-2s-1.2-0.7-2-0.7c-0.7,0-1.3,0.1-1.8,0.3
		s-0.9,0.5-1.2,0.9s-0.6,0.8-0.7,1.3c-0.2,0.5-0.2,1.1-0.2,1.7v7.6h-2.2v-13.4L182.3,632.9L182.3,632.9z"/>
	<path class="st4" d="M200.4,632.9v2h-2.7v8.3c0,0.3,0,0.5,0.1,0.6c0,0.2,0.1,0.3,0.2,0.4c0.1,0.1,0.3,0.1,0.5,0.2
		c0.2,0,0.5,0,0.8,0h1v2h-1.7c-0.6,0-1.1,0-1.5-0.1s-0.7-0.2-1-0.4s-0.4-0.5-0.6-0.9c-0.1-0.4-0.2-0.9-0.2-1.5v-8.6H193v-2h2.3v-4
		h2.2v4H200.4z"/>
	<path class="st4" d="M219.9,646.3v-1.8h-0.1c-0.4,0.7-0.9,1.3-1.7,1.6s-1.6,0.5-2.6,0.5s-1.9-0.2-2.7-0.6c-0.8-0.4-1.4-0.9-1.9-1.5
		s-0.9-1.4-1.2-2.2s-0.4-1.8-0.4-2.7s0.1-1.9,0.4-2.7c0.3-0.8,0.6-1.6,1.1-2.2c0.5-0.6,1.2-1.1,1.9-1.5c0.8-0.4,1.7-0.6,2.7-0.6
		c0.3,0,0.7,0,1.1,0.1c0.4,0.1,0.8,0.2,1.2,0.4s0.8,0.4,1.1,0.6c0.4,0.3,0.7,0.6,0.9,1h0.1v-6.9h2.2v18.6L219.9,646.3L219.9,646.3z
		 M211.9,641.5c0.2,0.6,0.4,1.1,0.8,1.6c0.3,0.5,0.8,0.8,1.3,1.1s1.1,0.4,1.9,0.4c0.7,0,1.4-0.1,1.9-0.4s0.9-0.7,1.3-1.2
		c0.3-0.5,0.6-1,0.7-1.6c0.1-0.6,0.2-1.2,0.2-1.8c0-0.7-0.1-1.3-0.2-1.9c-0.2-0.6-0.4-1.2-0.7-1.6c-0.3-0.5-0.8-0.8-1.3-1.1
		s-1.2-0.4-1.9-0.4s-1.4,0.1-1.9,0.4c-0.5,0.3-0.9,0.7-1.2,1.2s-0.5,1-0.7,1.7s-0.2,1.3-0.2,1.9
		C211.7,640.3,211.8,640.9,211.9,641.5z"/>
	<path class="st4" d="M235,645.4c-1,0.8-2.3,1.1-3.8,1.1c-1.1,0-2-0.2-2.8-0.5s-1.5-0.8-2-1.5c-0.5-0.6-0.9-1.4-1.2-2.2
		c-0.3-0.9-0.4-1.8-0.5-2.8c0-1,0.2-2,0.5-2.8s0.7-1.6,1.3-2.2s1.2-1.1,2-1.5c0.8-0.3,1.6-0.5,2.5-0.5c1.2,0,2.2,0.2,3,0.7
		s1.4,1.1,1.9,1.9c0.5,0.8,0.8,1.6,1,2.5s0.3,1.8,0.2,2.6H227c0,0.6,0.1,1.1,0.2,1.7c0.2,0.5,0.4,1,0.8,1.4s0.8,0.7,1.3,1
		c0.5,0.2,1.2,0.4,1.9,0.4c0.9,0,1.7-0.2,2.3-0.7c0.6-0.4,1-1.1,1.2-2h2.2C236.7,643.6,236,644.7,235,645.4z M234.5,636.8
		c-0.2-0.5-0.5-0.9-0.8-1.2s-0.7-0.6-1.2-0.8s-1-0.3-1.5-0.3c-0.6,0-1.1,0.1-1.5,0.3c-0.5,0.2-0.9,0.5-1.2,0.8s-0.6,0.7-0.8,1.2
		s-0.3,0.9-0.3,1.5h7.7C234.8,637.8,234.7,637.3,234.5,636.8z"/>
	<path class="st4" d="M249,627.7v18.6h-2.2v-18.6H249z"/>
	<path class="st4" d="M264.4,646.3c-0.4,0.2-0.9,0.3-1.6,0.3c-0.6,0-1-0.2-1.4-0.5c-0.3-0.3-0.5-0.8-0.5-1.6
		c-0.6,0.7-1.3,1.3-2.1,1.6c-0.8,0.3-1.7,0.5-2.6,0.5c-0.6,0-1.2-0.1-1.7-0.2c-0.5-0.1-1-0.4-1.4-0.7s-0.7-0.7-0.9-1.2
		s-0.4-1.1-0.4-1.7c0-0.8,0.1-1.4,0.4-1.9c0.3-0.5,0.6-0.9,1-1.2s0.9-0.5,1.5-0.7s1.1-0.3,1.7-0.4c0.6-0.1,1.2-0.2,1.7-0.3
		s1-0.1,1.4-0.3c0.4-0.1,0.7-0.3,1-0.5c0.2-0.2,0.4-0.5,0.4-0.9c0-0.5-0.1-0.9-0.3-1.2c-0.2-0.3-0.4-0.5-0.7-0.7
		c-0.3-0.2-0.6-0.3-1-0.3c-0.4-0.1-0.7-0.1-1.1-0.1c-0.9,0-1.7,0.2-2.3,0.5c-0.6,0.4-1,1-1,2h-2.2c0-0.8,0.2-1.5,0.5-2.1
		s0.7-1,1.2-1.4s1.1-0.6,1.8-0.8c0.7-0.2,1.4-0.2,2.1-0.2c0.6,0,1.2,0,1.8,0.1s1.1,0.3,1.6,0.5c0.5,0.3,0.9,0.6,1.2,1.1
		c0.3,0.5,0.4,1.1,0.4,1.9v6.9c0,0.5,0,0.9,0.1,1.1c0.1,0.2,0.3,0.4,0.6,0.4c0.2,0,0.4,0,0.7-0.1L264.4,646.3L264.4,646.3z
		 M260.8,639.4c-0.3,0.2-0.6,0.4-1.1,0.5s-0.9,0.2-1.4,0.2s-1,0.1-1.5,0.2c-0.5,0.1-1,0.2-1.4,0.4s-0.7,0.4-1,0.7s-0.4,0.8-0.4,1.3
		c0,0.4,0.1,0.7,0.2,0.9c0.1,0.2,0.3,0.5,0.6,0.6c0.2,0.2,0.5,0.3,0.8,0.3c0.3,0.1,0.6,0.1,1,0.1c0.7,0,1.4-0.1,1.9-0.3
		s0.9-0.4,1.3-0.8c0.3-0.3,0.6-0.6,0.7-1c0.2-0.4,0.2-0.7,0.2-1L260.8,639.4L260.8,639.4z"/>
	<path class="st4" d="M275.6,632.9v2.8h0.1c0.5-1.1,1.2-1.9,2-2.4s1.8-0.8,3-0.7v2.3c-0.9,0-1.6,0.1-2.3,0.4s-1.1,0.6-1.5,1.1
		s-0.7,1-0.8,1.7c-0.2,0.7-0.3,1.4-0.3,2.3v6h-2.2V633L275.6,632.9L275.6,632.9z"/>
	<path class="st4" d="M281.5,636.8c0.3-0.9,0.7-1.6,1.2-2.2c0.6-0.6,1.2-1.1,2.1-1.5s1.8-0.5,2.8-0.5c1.1,0,2,0.2,2.8,0.5
		c0.8,0.4,1.5,0.9,2,1.5c0.6,0.6,1,1.4,1.2,2.2c0.3,0.9,0.4,1.8,0.4,2.8s-0.1,1.9-0.4,2.8c-0.3,0.8-0.7,1.6-1.2,2.2
		c-0.6,0.6-1.2,1.1-2,1.5s-1.7,0.5-2.8,0.5c-1.1,0-2-0.2-2.8-0.5s-1.5-0.8-2.1-1.5c-0.6-0.6-1-1.4-1.2-2.2c-0.3-0.8-0.4-1.8-0.4-2.8
		S281.2,637.7,281.5,636.8z M283.8,641.8c0.2,0.6,0.5,1.2,0.9,1.6c0.4,0.4,0.8,0.8,1.3,1s1.1,0.3,1.6,0.3c0.6,0,1.1-0.1,1.6-0.3
		s1-0.6,1.3-1s0.7-1,0.9-1.6c0.2-0.6,0.3-1.4,0.3-2.2s-0.1-1.5-0.3-2.2c-0.2-0.6-0.5-1.2-0.9-1.6c-0.4-0.4-0.8-0.8-1.3-1
		s-1.1-0.3-1.6-0.3c-0.6,0-1.1,0.1-1.6,0.3s-1,0.6-1.3,1c-0.4,0.4-0.7,1-0.9,1.6c-0.2,0.6-0.3,1.4-0.3,2.2
		C283.4,640.4,283.5,641.1,283.8,641.8z"/>
	<path class="st4" d="M304.8,635.2c-0.6-0.5-1.3-0.7-2.2-0.7c-0.8,0-1.5,0.1-2,0.4c-0.5,0.3-1,0.7-1.3,1.2s-0.6,1-0.7,1.7
		s-0.2,1.3-0.2,2c0,0.6,0.1,1.2,0.2,1.8s0.4,1.1,0.7,1.6c0.3,0.5,0.7,0.8,1.2,1.1s1.1,0.4,1.8,0.4c1.1,0,1.9-0.3,2.6-0.9
		c0.6-0.6,1-1.4,1.1-2.4h2.3c-0.2,1.7-0.9,2.9-1.9,3.8c-1,0.9-2.4,1.4-4.1,1.4c-1,0-1.9-0.2-2.7-0.5c-0.8-0.3-1.4-0.8-2-1.4
		c-0.5-0.6-0.9-1.3-1.2-2.2c-0.3-0.8-0.4-1.8-0.4-2.8s0.1-1.9,0.4-2.8c0.3-0.9,0.7-1.6,1.2-2.3c0.5-0.6,1.2-1.2,2-1.5
		c0.8-0.4,1.7-0.6,2.8-0.6c0.8,0,1.5,0.1,2.1,0.3c0.7,0.2,1.3,0.5,1.8,0.8s0.9,0.9,1.3,1.4c0.3,0.6,0.5,1.3,0.6,2.1h-2.3
		C305.7,636.3,305.3,635.7,304.8,635.2z"/>
	<path class="st4" d="M312.9,627.7v7.1h0.1c0.2-0.4,0.4-0.8,0.7-1.1c0.3-0.3,0.7-0.5,1.1-0.7s0.8-0.3,1.2-0.4
		c0.4-0.1,0.8-0.1,1.2-0.1c0.9,0,1.6,0.1,2.2,0.4c0.6,0.2,1.1,0.6,1.4,1c0.4,0.4,0.6,0.9,0.8,1.5s0.2,1.3,0.2,2v8.8h-2.2v-9.1
		c0-0.8-0.2-1.5-0.7-2s-1.2-0.7-2-0.7c-0.7,0-1.3,0.1-1.8,0.3s-0.9,0.5-1.2,0.9c-0.3,0.4-0.6,0.8-0.7,1.3c-0.2,0.5-0.2,1.1-0.2,1.7
		v7.6h-2.2v-18.6L312.9,627.7L312.9,627.7z"/>
	<path class="st4" d="M334.7,645.4c-1,0.8-2.3,1.1-3.8,1.1c-1.1,0-2-0.2-2.8-0.5s-1.5-0.8-2-1.5c-0.5-0.6-0.9-1.4-1.2-2.2
		c-0.3-0.9-0.4-1.8-0.5-2.8c0-1,0.2-2,0.5-2.8s0.7-1.6,1.3-2.2s1.2-1.1,2-1.5c0.8-0.3,1.6-0.5,2.5-0.5c1.2,0,2.2,0.2,3,0.7
		s1.4,1.1,1.9,1.9c0.5,0.8,0.8,1.6,1,2.5s0.3,1.8,0.2,2.6h-10.1c0,0.6,0.1,1.1,0.2,1.7c0.2,0.5,0.4,1,0.8,1.4s0.8,0.7,1.3,1
		c0.5,0.2,1.2,0.4,1.9,0.4c0.9,0,1.7-0.2,2.3-0.7c0.6-0.4,1-1.1,1.2-2h2.2C336.3,643.6,335.7,644.7,334.7,645.4z M334.1,636.8
		c-0.2-0.5-0.5-0.9-0.8-1.2s-0.7-0.6-1.2-0.8s-1-0.3-1.5-0.3c-0.6,0-1.1,0.1-1.5,0.3c-0.5,0.2-0.9,0.5-1.2,0.8
		c-0.3,0.3-0.6,0.7-0.8,1.2c-0.2,0.5-0.3,0.9-0.3,1.5h7.7C334.5,637.8,334.3,637.3,334.1,636.8z"/>
</g>
<rect x="665.5" y="514.6" class="st18" width="251.7" height="157.7"/>
<g>
	<rect x="124.3" y="546.2" class="st18" width="299" height="89"/>
</g>
<rect x="8.1" y="18" class="st18" width="592" height="80"/>
<text transform="matrix(1 0 0 1 8.05 36.5635)"><tspan x="0" y="0" class="st4 st19 st12">Effet des variations du volume des terrains </tspan><tspan x="0" y="31.2" class="st4 st19 st12">constructibles lies au dgel du permafrost</tspan></text>
</svg>
