<?xml version="1.0" encoding="utf-8"?>
<!-- Generator: Adobe Illustrator 21.1.0, SVG Export Plug-In . SVG Version: 6.00 Build 0)  -->
<svg version="1.1" id="Ebene_1" xmlns="http://www.w3.org/2000/svg" xmlns:xlink="http://www.w3.org/1999/xlink" x="0px" y="0px"
	 viewBox="0 0 921 666" style="enable-background:new 0 0 921 666;" xml:space="preserve">
<style type="text/css">
	.st0{fill:none;stroke:#FFFFFF;stroke-width:15;stroke-linecap:round;stroke-miterlimit:10;}
	.st1{fill:none;stroke:#5799CC;stroke-width:10;stroke-linecap:round;stroke-miterlimit:10;}
	.st2{font-family:'HelveticaNeue';}
	.st3{font-size:22px;}
	.st4{letter-spacing:-1;}
	.st5{fill:#5D5D5C;}
	.st6{fill:none;stroke:#FFFFFF;stroke-width:15;stroke-linecap:round;stroke-linejoin:round;stroke-miterlimit:10;}
	.st7{fill:none;stroke:#A3C1E1;stroke-width:10;stroke-linecap:round;stroke-linejoin:round;stroke-miterlimit:10;}
	.st8{fill:none;stroke:#8F8F8F;stroke-miterlimit:10;}
	.st9{fill:#FFFFFF;}
	.st10{fill:#A3C1E1;}
	.st11{fill:#5799CC;}
	.st12{fill:#8F8F8F;}
	.st13{font-family:'HelveticaNeueLTStd-Cn';}
	.st14{font-size:26px;}
</style>
<polyline class="st0" points="15.5,478.9 156.5,447.1 297.5,415.4 438.4,423.3 578,332.1 719,296.4 861.4,288.5 "/>
<polyline class="st1" points="15.5,478.9 156.5,447.1 297.5,415.4 438.4,423.3 578,332.1 719,296.4 861.4,288.5 "/>
<text transform="matrix(1 0 0 1 16.9155 592.6338)"><tspan x="0" y="0" class="st2 st3">2</tspan><tspan x="12.4" y="0" class="st2 st3">0</tspan><tspan x="24.6" y="0" class="st2 st3">1</tspan><tspan x="35.8" y="0" class="st2 st3">0</tspan></text>
<text transform="matrix(1 0 0 1 157.8877 592.6338)"><tspan x="0" y="0" class="st2 st3">2</tspan><tspan x="12.4" y="0" class="st2 st3">0</tspan><tspan x="24.6" y="0" class="st2 st3 st4">1</tspan><tspan x="35.2" y="0" class="st2 st3">1</tspan></text>
<text transform="matrix(1 0 0 1 440.8716 592.6338)"><tspan x="0" y="0" class="st2 st3">2</tspan><tspan x="12.4" y="0" class="st2 st3">0</tspan><tspan x="24.6" y="0" class="st2 st3 st4">1</tspan><tspan x="35.6" y="0" class="st2 st3">3</tspan></text>
<text transform="matrix(1 0 0 1 299.2495 592.6338)"><tspan x="0" y="0" class="st2 st3">2</tspan><tspan x="12.4" y="0" class="st2 st3">0</tspan><tspan x="24.6" y="0" class="st2 st3 st4">1</tspan><tspan x="35.5" y="0" class="st2 st3">2</tspan></text>
<text transform="matrix(1 0 0 1 582 592.6338)"><tspan x="0" y="0" class="st2 st3">2</tspan><tspan x="12.4" y="0" class="st2 st3">0</tspan><tspan x="24.6" y="0" class="st2 st3 st4">1</tspan><tspan x="35.6" y="0" class="st2 st3">4</tspan></text>
<text transform="matrix(1 0 0 1 723.3613 592.6338)"><tspan x="0" y="0" class="st2 st3">2</tspan><tspan x="12.4" y="0" class="st2 st3">0</tspan><tspan x="24.6" y="0" class="st2 st3 st4">1</tspan><tspan x="35.6" y="0" class="st2 st3">5</tspan></text>
<text transform="matrix(1 0 0 1 864.7236 592.6338)"><tspan x="0" y="0" class="st2 st3">2</tspan><tspan x="12.4" y="0" class="st2 st3">0</tspan><tspan x="24.6" y="0" class="st2 st3">1</tspan><tspan x="35.8" y="0" class="st2 st3">6</tspan></text>
<text transform="matrix(1 0 0 1 19.6196 193.6895)"><tspan x="0" y="0" class="st5 st2 st3">-</tspan><tspan x="9" y="0" class="st5 st2 st3">0</tspan><tspan x="21.2" y="0" class="st5 st2 st3 st4">,</tspan><tspan x="25.9" y="0" class="st5 st2 st3 st4">1</tspan><tspan x="37.1" y="0" class="st5 st2 st3">7</tspan></text>
<text transform="matrix(1 0 0 1 19.6196 510.7334)"><tspan x="0" y="0" class="st5 st2 st3">-</tspan><tspan x="8.7" y="0" class="st5 st2 st3">5</tspan><tspan x="20.9" y="0" class="st5 st2 st3">,</tspan><tspan x="26.4" y="0" class="st5 st2 st3">7</tspan><tspan x="39" y="0" class="st5 st2 st3">7</tspan></text>
<text transform="matrix(1 0 0 1 161.1895 193.6895)"><tspan x="0" y="0" class="st5 st2 st3">-</tspan><tspan x="9" y="0" class="st5 st2 st3">0</tspan><tspan x="21.2" y="0" class="st5 st2 st3 st4">,</tspan><tspan x="25.9" y="0" class="st5 st2 st3">1</tspan><tspan x="37.2" y="0" class="st5 st2 st3">4</tspan></text>
<text transform="matrix(1 0 0 1 161.1895 480.5215)"><tspan x="0" y="0" class="st5 st2 st3">-</tspan><tspan x="8.7" y="0" class="st5 st2 st3">5</tspan><tspan x="20.9" y="0" class="st5 st2 st3">,</tspan><tspan x="27" y="0" class="st5 st2 st3">6</tspan><tspan x="39.8" y="0" class="st5 st2 st3">6</tspan></text>
<text transform="matrix(1 0 0 1 301.7197 207.7295)"><tspan x="0" y="0" class="st5 st2 st3">-</tspan><tspan x="9" y="0" class="st5 st2 st3">0</tspan><tspan x="21.2" y="0" class="st5 st2 st3">,</tspan><tspan x="27.6" y="0" class="st5 st2 st3">2</tspan><tspan x="40.1" y="0" class="st5 st2 st3">3</tspan></text>
<text transform="matrix(1 0 0 1 301.7197 452.416)"><tspan x="0" y="0" class="st5 st2 st3">-</tspan><tspan x="8.7" y="0" class="st5 st2 st3">5</tspan><tspan x="20.9" y="0" class="st5 st2 st3">,</tspan><tspan x="27.1" y="0" class="st5 st2 st3">5</tspan><tspan x="39.8" y="0" class="st5 st2 st3">4</tspan></text>
<text transform="matrix(1 0 0 1 443.2896 190.5435)"><tspan x="0" y="0" class="st5 st2 st3">-</tspan><tspan x="9" y="0" class="st5 st2 st3">0</tspan><tspan x="21.2" y="0" class="st5 st2 st3 st4">,</tspan><tspan x="25.9" y="0" class="st5 st2 st3 st4">1</tspan><tspan x="37.1" y="0" class="st5 st2 st3">7</tspan></text>
<text transform="matrix(1 0 0 1 443.2896 457.0957)"><tspan x="0" y="0" class="st5 st2 st3">-</tspan><tspan x="8.7" y="0" class="st5 st2 st3">5</tspan><tspan x="20.9" y="0" class="st5 st2 st3">,</tspan><tspan x="27.1" y="0" class="st5 st2 st3">5</tspan><tspan x="39.8" y="0" class="st5 st2 st3">6</tspan></text>
<text transform="matrix(1 0 0 1 584.8594 174.9434)"><tspan x="0" y="0" class="st5 st2 st3">-</tspan><tspan x="9" y="0" class="st5 st2 st3">0</tspan><tspan x="21.2" y="0" class="st5 st2 st3 st4">,</tspan><tspan x="25.9" y="0" class="st5 st2 st3 st4">1</tspan><tspan x="37.1" y="0" class="st5 st2 st3">2</tspan></text>
<text transform="matrix(1 0 0 1 584.8594 365.498)"><tspan x="0" y="0" class="st5 st2 st3">-</tspan><tspan x="8.7" y="0" class="st5 st2 st3">5</tspan><tspan x="20.9" y="0" class="st5 st2 st3">,</tspan><tspan x="27.3" y="0" class="st5 st2 st3">2</tspan><tspan x="39.7" y="0" class="st5 st2 st3">1</tspan></text>
<text transform="matrix(1 0 0 1 725.9092 177.0234)"><tspan x="0" y="0" class="st5 st2 st3">-</tspan><tspan x="9" y="0" class="st5 st2 st3">0</tspan><tspan x="21.2" y="0" class="st5 st2 st3 st4">,</tspan><tspan x="25.9" y="0" class="st5 st2 st3 st4">1</tspan><tspan x="36.9" y="0" class="st5 st2 st3">1</tspan></text>
<text transform="matrix(1 0 0 1 725.9092 329.5918)"><tspan x="0" y="0" class="st5 st2 st3">-</tspan><tspan x="8.7" y="0" class="st5 st2 st3">5,</tspan><tspan x="27" y="0" class="st5 st2 st3">0</tspan><tspan x="39.4" y="0" class="st5 st2 st3">7</tspan></text>
<text transform="matrix(1 0 0 1 866.96 182.2236)"><tspan x="0" y="0" class="st5 st2 st3">-</tspan><tspan x="9" y="0" class="st5 st2 st3">0</tspan><tspan x="21.2" y="0" class="st5 st2 st3 st4">,</tspan><tspan x="25.9" y="0" class="st5 st2 st3">1</tspan><tspan x="37.2" y="0" class="st5 st2 st3">4</tspan></text>
<text transform="matrix(1 0 0 1 866.96 318.126)"><tspan x="0" y="0" class="st5 st2 st3">-</tspan><tspan x="8.7" y="0" class="st5 st2 st3">5,</tspan><tspan x="27" y="0" class="st5 st2 st3">0</tspan><tspan x="39.6" y="0" class="st5 st2 st3">3</tspan></text>
<polyline class="st6" points="15.5,159 156.5,146.9 297.5,175.3 438.4,159 578,142.8 719,142.8 861.4,150.9 "/>
<polyline class="st7" points="15.5,159 156.5,146.9 297.5,175.3 438.4,159 578,142.8 719,142.8 861.4,150.9 "/>
<line class="st8" x1="14.6" y1="5" x2="14.6" y2="594.6"/>
<line class="st8" x1="155.9" y1="5" x2="155.9" y2="594.6"/>
<line class="st8" x1="297.2" y1="5" x2="297.2" y2="594.6"/>
<line class="st8" x1="438.5" y1="5" x2="438.5" y2="594.6"/>
<line class="st8" x1="579.9" y1="5" x2="579.9" y2="594.6"/>
<line class="st8" x1="721.2" y1="5" x2="721.2" y2="594.6"/>
<line class="st8" x1="862.5" y1="5" x2="862.5" y2="594.6"/>
<polygon class="st9" points="158.3,376.9 158.3,440.7 18.4,440.7 18.4,301.4 218,301.4 215.4,376.9 "/>
<rect x="15.7" y="5" class="st9" width="138.2" height="123.8"/>
<g>
	<path class="st9" d="M14.7,171.2c-6.3,0-11.5-5.2-11.5-11.5s5.2-11.5,11.5-11.5c6.3,0,11.5,5.2,11.5,11.5S21.1,171.2,14.7,171.2"/>
	<path class="st10" d="M14.7,149.7c5.5,0,10,4.5,10,10c0,5.5-4.5,10-10,10c-5.5,0-10-4.5-10-10C4.7,154.2,9.2,149.7,14.7,149.7
		 M14.7,146.7c-7.2,0-13,5.8-13,13c0,7.2,5.8,13,13,13c7.2,0,13-5.8,13-13C27.7,152.5,21.9,146.7,14.7,146.7"/>
	<path class="st9" d="M156.2,158.8c-6.3,0-11.5-5.2-11.5-11.5c0-6.3,5.2-11.5,11.5-11.5c6.3,0,11.5,5.2,11.5,11.5
		C167.7,153.7,162.5,158.8,156.2,158.8"/>
	<path class="st10" d="M156.2,137.3c5.5,0,10,4.5,10,10c0,5.5-4.5,10-10,10c-5.5,0-10-4.5-10-10
		C146.2,141.8,150.6,137.3,156.2,137.3 M156.2,134.3c-7.2,0-13,5.8-13,13c0,7.2,5.8,13,13,13c7.2,0,13-5.8,13-13
		C169.2,140.2,163.3,134.3,156.2,134.3"/>
	<path class="st9" d="M298,187c-6.3,0-11.5-5.2-11.5-11.5c0-6.3,5.2-11.5,11.5-11.5c6.3,0,11.5,5.2,11.5,11.5
		C309.5,181.9,304.4,187,298,187"/>
	<path class="st10" d="M298,165.5c5.5,0,10,4.5,10,10c0,5.5-4.5,10-10,10c-5.5,0-10-4.5-10-10C288,170,292.5,165.5,298,165.5
		 M298,162.5c-7.2,0-13,5.8-13,13c0,7.2,5.8,13,13,13c7.2,0,13-5.8,13-13C311,168.4,305.2,162.5,298,162.5"/>
	<path class="st9" d="M438.6,170.7c-6.3,0-11.5-5.2-11.5-11.5c0-6.3,5.2-11.5,11.5-11.5c6.3,0,11.5,5.2,11.5,11.5
		C450.1,165.6,444.9,170.7,438.6,170.7"/>
	<path class="st10" d="M438.6,149.2c5.5,0,10,4.5,10,10c0,5.5-4.5,10-10,10c-5.5,0-10-4.5-10-10
		C428.6,153.7,433.1,149.2,438.6,149.2 M438.6,146.2c-7.2,0-13,5.8-13,13s5.8,13,13,13c7.2,0,13-5.8,13-13S445.8,146.2,438.6,146.2"
		/>
	<path class="st9" d="M579.8,155c-6.3,0-11.5-5.2-11.5-11.5c0-6.3,5.2-11.5,11.5-11.5c6.3,0,11.5,5.2,11.5,11.5
		C591.3,149.8,586.1,155,579.8,155"/>
	<path class="st10" d="M579.8,133.5c5.5,0,10,4.5,10,10c0,5.5-4.5,10-10,10c-5.5,0-10-4.5-10-10
		C569.8,137.9,574.2,133.5,579.8,133.5 M579.8,130.5c-7.2,0-13,5.8-13,13c0,7.2,5.8,13,13,13c7.2,0,13-5.8,13-13
		C592.8,136.3,586.9,130.5,579.8,130.5"/>
	<path class="st9" d="M721.4,155c-6.3,0-11.5-5.2-11.5-11.5c0-6.3,5.2-11.5,11.5-11.5c6.3,0,11.5,5.2,11.5,11.5
		C732.9,149.8,727.7,155,721.4,155"/>
	<path class="st10" d="M721.4,133.5c5.5,0,10,4.5,10,10c0,5.5-4.5,10-10,10c-5.5,0-10-4.5-10-10
		C711.4,137.9,715.8,133.5,721.4,133.5 M721.4,130.5c-7.2,0-13,5.8-13,13c0,7.2,5.8,13,13,13c7.2,0,13-5.8,13-13
		C734.4,136.3,728.5,130.5,721.4,130.5"/>
	<path class="st9" d="M862.4,162.2c-6.3,0-11.5-5.2-11.5-11.5c0-6.3,5.2-11.5,11.5-11.5s11.5,5.2,11.5,11.5
		C873.9,157,868.7,162.2,862.4,162.2"/>
	<path class="st10" d="M862.4,140.7c5.5,0,10,4.5,10,10c0,5.5-4.5,10-10,10c-5.5,0-10-4.5-10-10
		C852.4,145.1,856.8,140.7,862.4,140.7 M862.4,137.7c-7.2,0-13,5.8-13,13c0,7.2,5.8,13,13,13c7.2,0,13-5.8,13-13
		C875.4,143.5,869.5,137.7,862.4,137.7"/>
	<path class="st9" d="M14.7,489.9c-6.3,0-11.5-5.2-11.5-11.5s5.2-11.5,11.5-11.5c6.3,0,11.5,5.2,11.5,11.5S21.1,489.9,14.7,489.9"/>
	<path class="st11" d="M14.7,468.4c5.5,0,10,4.5,10,10c0,5.5-4.5,10-10,10c-5.5,0-10-4.5-10-10C4.7,472.9,9.2,468.4,14.7,468.4
		 M14.7,465.4c-7.2,0-13,5.8-13,13c0,7.2,5.8,13,13,13c7.2,0,13-5.8,13-13C27.7,471.2,21.9,465.4,14.7,465.4"/>
	<path class="st9" d="M156.4,459.1c-6.3,0-11.5-5.2-11.5-11.5c0-6.3,5.2-11.5,11.5-11.5c6.3,0,11.5,5.2,11.5,11.5
		C167.9,453.9,162.8,459.1,156.4,459.1"/>
	<path class="st11" d="M156.4,437.6c5.5,0,10,4.5,10,10c0,5.5-4.5,10-10,10c-5.5,0-10-4.5-10-10
		C146.4,442.1,150.9,437.6,156.4,437.6 M156.4,434.6c-7.2,0-13,5.8-13,13c0,7.2,5.8,13,13,13c7.2,0,13-5.8,13-13
		C169.4,440.4,163.6,434.6,156.4,434.6"/>
	<path class="st9" d="M297.2,427c-6.3,0-11.5-5.2-11.5-11.5c0-6.3,5.2-11.5,11.5-11.5c6.3,0,11.5,5.2,11.5,11.5
		C308.7,421.8,303.5,427,297.2,427"/>
	<path class="st11" d="M297.2,405.5c5.5,0,10,4.5,10,10c0,5.5-4.5,10-10,10c-5.5,0-10-4.5-10-10C287.2,410,291.7,405.5,297.2,405.5
		 M297.2,402.5c-7.2,0-13,5.8-13,13c0,7.2,5.8,13,13,13c7.2,0,13-5.8,13-13C310.2,408.3,304.4,402.5,297.2,402.5"/>
	<path class="st9" d="M438.8,434.9c-6.3,0-11.5-5.2-11.5-11.5c0-6.3,5.2-11.5,11.5-11.5c6.3,0,11.5,5.2,11.5,11.5
		C450.3,429.7,445.1,434.9,438.8,434.9"/>
	<path class="st11" d="M438.8,413.4c5.5,0,10,4.5,10,10c0,5.5-4.5,10-10,10c-5.5,0-10-4.5-10-10
		C428.8,417.8,433.2,413.4,438.8,413.4 M438.8,410.4c-7.2,0-13,5.8-13,13c0,7.2,5.8,13,13,13c7.2,0,13-5.8,13-13
		C451.8,416.2,445.9,410.4,438.8,410.4"/>
	<path class="st9" d="M579.9,343.8c-6.3,0-11.5-5.2-11.5-11.5s5.2-11.5,11.5-11.5c6.3,0,11.5,5.2,11.5,11.5S586.2,343.8,579.9,343.8
		"/>
	<path class="st11" d="M579.9,322.3c5.5,0,10,4.5,10,10c0,5.5-4.5,10-10,10c-5.5,0-10-4.5-10-10
		C569.9,326.8,574.4,322.3,579.9,322.3 M579.9,319.3c-7.2,0-13,5.8-13,13c0,7.2,5.8,13,13,13c7.2,0,13-5.8,13-13
		C592.9,325.1,587.1,319.3,579.9,319.3"/>
	<path class="st9" d="M721.3,308c-6.3,0-11.5-5.2-11.5-11.5c0-6.3,5.2-11.5,11.5-11.5s11.5,5.2,11.5,11.5
		C732.8,302.9,727.6,308,721.3,308"/>
	<path class="st11" d="M721.3,286.5c5.5,0,10,4.5,10,10c0,5.5-4.5,10-10,10c-5.5,0-10-4.5-10-10C711.3,291,715.8,286.5,721.3,286.5
		 M721.3,283.5c-7.2,0-13,5.8-13,13c0,7.2,5.8,13,13,13c7.2,0,13-5.8,13-13C734.3,289.4,728.5,283.5,721.3,283.5"/>
	<path class="st9" d="M861.7,299.4c-6.3,0-11.5-5.2-11.5-11.5c0-6.3,5.2-11.5,11.5-11.5s11.5,5.2,11.5,11.5
		C873.2,294.3,868.1,299.4,861.7,299.4"/>
	<path class="st11" d="M861.7,277.9c5.5,0,10,4.5,10,10c0,5.5-4.5,10-10,10c-5.5,0-10-4.5-10-10
		C851.7,282.4,856.2,277.9,861.7,277.9 M861.7,274.9c-7.2,0-13,5.8-13,13c0,7.2,5.8,13,13,13c7.2,0,13-5.8,13-13
		C874.7,280.8,868.9,274.9,861.7,274.9"/>
</g>
<text transform="matrix(1 0 0 1.0047 15.2705 646.6758)"><tspan x="0" y="0" class="st12 st2 st3">Source:</tspan><tspan x="76.8" y="0" class="st12 st2 st3"> </tspan><tspan x="83.1" y="0" class="st12 st2 st3">P</tspan><tspan x="97.7" y="0" class="st12 st2 st3">E</tspan><tspan x="111.5" y="0" class="st12 st2 st3">R</tspan><tspan x="126.9" y="0" class="st12 st2 st3">M</tspan><tspan x="146.3" y="0" class="st12 st2 st3">O</tspan><tspan x="163.3" y="0" class="st12 st2 st3">S </tspan><tspan x="184.1" y="0" class="st12 st2 st3">B</tspan><tspan x="199.5" y="0" class="st12 st2 st3">o</tspan><tspan x="212.1" y="0" class="st12 st2 st3">r</tspan><tspan x="219.5" y="0" class="st12 st2 st3">e</tspan><tspan x="231.2" y="0" class="st12 st2 st3">ho</tspan><tspan x="256.1" y="0" class="st12 st2 st3">l</tspan><tspan x="260.9" y="0" class="st12 st2 st3">e </tspan><tspan x="279.2" y="0" class="st12 st2 st3">D</tspan><tspan x="294.8" y="0" class="st12 st2 st3">a</tspan><tspan x="306.6" y="0" class="st12 st2 st3">t</tspan><tspan x="313.9" y="0" class="st12 st2 st3">a </tspan><tspan x="332.3" y="0" class="st12 st2 st3">B</tspan><tspan x="347.4" y="0" class="st12 st2 st3">r</tspan><tspan x="354.9" y="0" class="st12 st2 st3">o</tspan><tspan x="367.5" y="0" class="st12 st2 st3">ws</tspan><tspan x="395.3" y="0" class="st12 st2 st3">e</tspan><tspan x="407.1" y="0" class="st12 st2 st3">r, Graphique: Ringier Infographics</tspan></text>
<text transform="matrix(1 0 0 1 19.5806 25.876)"><tspan x="0" y="0" class="st2 st3">S</tspan><tspan x="14.5" y="0" class="st2 st3">c</tspan><tspan x="26.4" y="0" class="st2 st3">h</tspan><tspan x="38.7" y="0" class="st2 st3">a</tspan><tspan x="50.6" y="0" class="st2 st3">f</tspan><tspan x="57.3" y="0" class="st2 st3">b</tspan><tspan x="70.4" y="0" class="st2 st3">e</tspan><tspan x="82.4" y="0" class="st2 st3">r</tspan><tspan x="89.9" y="0" class="st2 st3">g</tspan></text>
<text transform="matrix(1 0 0 1 126.6748 25.876)" class="st13 st14"> </text>
<text transform="matrix(1 0 0 1 19.5806 53.8799)"><tspan x="0" y="0" class="st2 st3">E</tspan><tspan x="13.5" y="0" class="st2 st3">n</tspan><tspan x="25.7" y="0" class="st2 st3">g</tspan><tspan x="38.3" y="0" class="st2 st3">a</tspan><tspan x="50" y="0" class="st2 st3">d</tspan><tspan x="62.8" y="0" class="st2 st3">i</tspan><tspan x="67.5" y="0" class="st2 st3">n </tspan><tspan x="86.3" y="0" class="st2 st3">G</tspan><tspan x="103.4" y="0" class="st2 st3">R</tspan><tspan x="118.6" y="0" class="st2 st3"> </tspan></text>
<text transform="matrix(1 0 0 1 19.5806 82.8779)"><tspan x="0" y="0" class="st2 st3">B</tspan><tspan x="15.3" y="0" class="st2 st3">o</tspan><tspan x="28" y="0" class="st2 st3">h</tspan><tspan x="40.1" y="0" class="st2 st3">r</tspan><tspan x="47.5" y="0" class="st2 st3">l</tspan><tspan x="52.3" y="0" class="st2 st3">o</tspan><tspan x="65.1" y="0" class="st2 st3">c</tspan><tspan x="76.8" y="0" class="st2 st3">h </tspan><tspan x="95.5" y="0" class="st2 st3">a</tspan><tspan x="107.3" y="0" class="st2 st3">u</tspan><tspan x="119.7" y="0" class="st2 st3">f</tspan></text>
<text transform="matrix(1 0 0 1 141.9106 92.8779)" class="st13 st14"> </text>
<text transform="matrix(1 0 0 1 19.5806 111.8818)"><tspan x="0" y="0" class="st2 st3">2</tspan><tspan x="12.3" y="0" class="st2 st3">73</tspan><tspan x="36.8" y="0" class="st2 st3">2 m </tspan><tspan x="80.9" y="0" class="st2 st3">ü</tspan><tspan x="93" y="0" class="st2 st3">. </tspan><tspan x="105.6" y="0" class="st2 st3">M</tspan><tspan x="124.9" y="0" class="st2 st3">.</tspan></text>
<text transform="matrix(1 0 0 1 19.5806 332.3877)"><tspan x="0" y="0" class="st2 st3">J</tspan><tspan x="11.5" y="0" class="st2 st3">u</tspan><tspan x="23.8" y="0" class="st2 st3">n</tspan><tspan x="36.1" y="0" class="st2 st3">g</tspan><tspan x="48.8" y="0" class="st2 st3">f</tspan><tspan x="55.5" y="0" class="st2 st3">r</tspan><tspan x="63.1" y="0" class="st2 st3">a</tspan><tspan x="74.8" y="0" class="st2 st3">u </tspan><tspan x="93.6" y="0" class="st2 st3">O</tspan><tspan x="110.5" y="0" class="st2 st3">s</tspan><tspan x="121.8" y="0" class="st2 st3">t</tspan><tspan x="128.9" y="0" class="st2 st3">g</tspan><tspan x="141.5" y="0" class="st2 st3">r</tspan><tspan x="149" y="0" class="st2 st3">a</tspan><tspan x="160.9" y="0" class="st2 st3">t</tspan></text>
<text transform="matrix(1 0 0 1 197.0044 330.3877)" class="st13 st14"> </text>
<text transform="matrix(1 0 0 1 19.5806 360.3916)"><tspan x="0" y="0" class="st2 st3">B</tspan><tspan x="15.2" y="0" class="st2 st3">e</tspan><tspan x="27" y="0" class="st2 st3">r</tspan><tspan x="34.5" y="0" class="st2 st3">ne</tspan><tspan x="58.4" y="0" class="st2 st3">r</tspan><tspan x="65.9" y="0" class="st2 st3"> </tspan><tspan x="72.2" y="0" class="st2 st3">O</tspan><tspan x="89" y="0" class="st2 st3">b</tspan><tspan x="102" y="0" class="st2 st3">e</tspan><tspan x="113.8" y="0" class="st2 st3">r</tspan><tspan x="121.2" y="0" class="st2 st3">l</tspan><tspan x="126" y="0" class="st2 st3">a</tspan><tspan x="137.8" y="0" class="st2 st3">n</tspan><tspan x="150" y="0" class="st2 st3">d</tspan><tspan x="163.3" y="0" class="st2 st3"> </tspan><tspan x="169.6" y="0" class="st2 st3">B</tspan><tspan x="184.9" y="0" class="st2 st3">E</tspan><tspan x="198.5" y="0" class="st2 st3"> </tspan></text>
<text transform="matrix(1 0 0 1 19.5806 388.3896)"><tspan x="0" y="0" class="st2 st3">B</tspan><tspan x="15.3" y="0" class="st2 st3">o</tspan><tspan x="28" y="0" class="st2 st3">h</tspan><tspan x="40.1" y="0" class="st2 st3">r</tspan><tspan x="47.5" y="0" class="st2 st3">l</tspan><tspan x="52.3" y="0" class="st2 st3">o</tspan><tspan x="65" y="0" class="st2 st3">c</tspan><tspan x="76.7" y="0" class="st2 st3">h</tspan><tspan x="89.2" y="0" class="st2 st3"> </tspan><tspan x="95.5" y="0" class="st2 st3">a</tspan><tspan x="107.2" y="0" class="st2 st3">u</tspan><tspan x="119.6" y="0" class="st2 st3">f</tspan></text>
<text transform="matrix(1 0 0 1 141.9106 397.3896)" class="st13 st14"> </text>
<text transform="matrix(1 0 0 1 19.5806 417.3936)"><tspan x="0" y="0" class="st2 st3">3</tspan><tspan x="12.5" y="0" class="st2 st3">5</tspan><tspan x="24.9" y="0" class="st2 st3">9</tspan><tspan x="37.5" y="0" class="st2 st3">0</tspan><tspan x="49.9" y="0" class="st2 st3"> m </tspan><tspan x="81.6" y="0" class="st2 st3">ü</tspan><tspan x="93.7" y="0" class="st2 st3">. </tspan><tspan x="106.4" y="0" class="st2 st3">M</tspan><tspan x="125.6" y="0" class="st2 st3">.</tspan></text>
</svg>
