<?xml version="1.0" encoding="utf-8"?>
<!-- Generator: Adobe Illustrator 21.1.0, SVG Export Plug-In . SVG Version: 6.00 Build 0)  -->
<svg version="1.1" xmlns="http://www.w3.org/2000/svg" xmlns:xlink="http://www.w3.org/1999/xlink" x="0px" y="0px"
	 viewBox="0 0 921.7 750.2" style="enable-background:new 0 0 921.7 750.2;" xml:space="preserve">
<style type="text/css">
	.st0{display:none;}
	.st1{fill:#E2EAF6;}
	.st2{fill:#C3D6EC;}
	.st3{fill:#DEDEDE;}
	.st4{display:inline;}
	.st5{fill:#5799CC;}
	.st6{display:inline;fill:#5799CC;}
	.st7{font-family:'HelveticaNeue';}
	.st8{font-size:26px;}
	.st9{fill:#666666;}
	.st10{font-size:22px;}
	.st11{fill:#333333;}
	.st12{fill:none;stroke:#6A6A69;stroke-width:2;stroke-miterlimit:10;}
	.st13{fill:#6A6A69;}
	.st14{fill:#CBCCCC;stroke:#000000;stroke-miterlimit:10;}
	.st15{fill:none;stroke:#FFFFFF;stroke-width:12;stroke-linecap:round;stroke-linejoin:round;stroke-miterlimit:10;}
	.st16{fill:#FFFFFF;}
	.st17{fill:none;stroke:#5799CC;stroke-width:6;stroke-linecap:round;stroke-linejoin:round;stroke-miterlimit:10;}
	.st18{fill:none;stroke:#FFFFFF;stroke-width:14;stroke-linecap:round;stroke-linejoin:round;stroke-miterlimit:10;}
</style>
<g id="HG">
</g>
<g id="Bergrestaurant_inkl._Kriechen">
	<g id="Vorlage_Kopie_2" class="st0">
	</g>
	<g id="Ebene_31_Kopie_Kopie">
		<polygon class="st1" points="915.7,662 4.3,662 4.3,442.2 501.7,442 915.7,53.2 		"/>
		<polygon class="st2" points="915.7,662 4.3,662 4.3,536.8 532.8,536.8 915.7,176.3 		"/>
	</g>
	<g id="Ebene_43_Kopie_Kopie">
		<polygon class="st3" points="428.3,462.8 119,462.8 119,204.9 273.7,113.4 428.3,204.9 		"/>
		<g id="Ebene_86" class="st0">
		</g>
		<g id="Bergrestaurant_inkl._Kriechen_Kopie">
		</g>
	</g>
	<text transform="matrix(0.9954 0 0 1 17.1591 478.2383)"><tspan x="0" y="0" class="st7 st8">Auftau-</tspan><tspan x="0" y="30" class="st7 st8">schicht</tspan></text>
	<text transform="matrix(0.9954 0 0 1 16.9521 617.0468)"><tspan x="0" y="0" class="st7 st8">Eishaltiger,</tspan><tspan x="0" y="30" class="st7 st8">zerklüfteter Fels</tspan></text>
	<text transform="matrix(0.9954 0 0 1 196.7934 277.0019)" class="st7 st8">Bergrestaurant</text>
	<g id="Ebene_44_Kopie">
	</g>
	<g>
		<defs>
			<rect id="SVGID_1_" x="616.7" width="299.3" height="273.2"/>
		</defs>
		<clipPath id="SVGID_2_">
			<use xlink:href="#SVGID_1_"  style="overflow:visible;"/>
		</clipPath>
	</g>
	<g id="Kriechbewegung_Kopie_Kopie">
	</g>
	<g id="Kriechbewegung_Kopie_Kopie_Kopie">
	</g>
	<text transform="matrix(0.9954 0 0 1 17.9521 701.4413)"><tspan x="0" y="0" class="st9 st7 st10">Source: fig. 42, Bommer et al., 2009: Bauen im Permafrost. SLF/WSL.</tspan><tspan x="0" y="26" class="st9 st7 st10">Grafique: Mathias Bader, Ringier Infographics</tspan></text>
</g>
<g id="Calque_11" class="st0">
	<g class="st4">
		<path class="st3" d="M427.2,522.2l-308.8-16.3l13.5-256.5l159.2-83.3l149.6,99.6c0,0-3.8,72.7-5.4,103.3
			c-1.6,30.5-17.7,44.1-19.4,76.3C414.2,477.5,429.1,485.5,427.2,522.2z"/>
		<g>
			<g>
				<line class="st12" x1="617" y1="296.2" x2="546.4" y2="359.3"/>
				<g>
					<polygon class="st13" points="541.9,349.9 535.7,368.8 555.2,364.8 					"/>
				</g>
			</g>
		</g>
		<g>
			<path class="st5" d="M289.9,179.9l138,91.8l-5.1,96.4c-0.7,13.1-4.4,22.4-8.7,33.3c-4.6,11.6-9.8,24.8-10.7,43.1
				c-0.9,17.7,2.6,29,5.9,40c2.4,7.6,4.6,14.9,5.3,25l-284.2-15L143,256.7L289.9,179.9 M290.6,166l-159.2,83.3l-13.5,256.5
				l308.8,16.3c1.9-36.7-13-44.7-11.3-76.9c1.7-32.3,17.8-45.8,19.4-76.3c1.6-30.5,5.4-103.3,5.4-103.3L290.6,166L290.6,166z"/>
		</g>
		<polygon class="st5" points="155.3,507.4 163.3,469.8 178,461.3 183.1,423.5 189.9,418.8 194,385.4 197.4,421 189.7,430.1 
			188.9,467.6 172.7,481.5 173.3,508.2 		"/>
		<polygon class="st5" points="411.7,416.9 397.1,408.6 395.5,401.5 380.8,394.6 379.8,391.2 366.7,385.3 381.6,388.4 384.3,392.7 
			399.5,397.9 403.1,406.2 414.5,409.5 		"/>
		<polygon class="st5" points="404.3,450.8 381.1,446.2 375.9,437.4 353,434.7 350.2,430.6 330,428.4 351.4,426 357,430.6 
			379.6,430.8 388.1,440.4 404.8,439.7 		"/>
		<polygon class="st5" points="414.2,483.6 398.1,488.4 391.9,484.7 376.7,490.6 373.6,489 360.2,494.4 372.9,485.7 377.8,486.7 
			392,479.3 400.6,482.5 410.8,476.5 		"/>
		<text transform="matrix(0.7262 -0.6807 0.6839 0.7296 629.4107 296.6172)" class="st11 st7 st8">Steinschlag</text>
		<text transform="matrix(0.7262 -0.6807 0.6839 0.7296 691.3736 332.5367)" class="st5 st7 st8">Kriechbewegung</text>
		<text transform="matrix(0.9954 0 0 1 197.0306 308.4987)"><tspan x="0" y="0" class="st7 st8">Risse, Tragwerk-</tspan><tspan x="0" y="28" class="st7 st8">versagen</tspan></text>
		<path class="st14" d="M895.5,90.7c-3.1-0.7-14.7-0.9-19-2.6c-4.3-1.7-13.4-3.3-16.9-6c-3.5-2.8-5.9-7-6-11.1
			c-0.1-4.1-2.4-9.9-2.2-13.7c0.2-3.8-1.3-8.4-1-11.6c0.3-3.2,2.6-8.2,3.8-11.9c1.2-3.6,5-6.3,7.7-10.4c2.7-4.1,1.9-5.9,8.1-9.5
			c6.3-3.6,8.8-6.1,15.3-5.5c6.4,0.6,20.4,3.7,23.6,6.3c3.1,2.5,11,13.4,13,19.5c2,6.1,9.4,21.8,7.3,28.1
			c-2.2,6.3-5.3,20.9-9.5,23.3c-4.2,2.4-16.5,5.7-18.1,5.5C900,90.9,897.5,91.2,895.5,90.7z"/>
		<path class="st14" d="M765.1,152.2c2.9,2.1,3.7,5.9,3.1,11.4c-0.6,5.4-1,12.9-4.9,15.3c-3.8,2.4-5.7,1.5-12.6-1.7
			c-6.9-3.2-12.3-3.9-14.7-10.3c-2.3-6.4-1.4-6.8,4.8-12.7c6.2-5.9,10.3-7.4,13.3-6.4C757.1,148.9,762.3,150.1,765.1,152.2z"/>
		<path class="st14" d="M899.7,112c0.3,3.6-2,6.7-6.5,9.8c-4.5,3.1-10.4,7.7-14.7,6.5c-4.3-1.3-4.9-3.3-7.1-10.6
			c-2.1-7.3-5.3-11.8-2-17.8c3.3-6,4.2-5.5,12.7-4.8c8.5,0.8,12.4,2.9,13.6,5.8C897,103.7,899.4,108.4,899.7,112z"/>
		<path class="st14" d="M801.1,96.5c-1.4,2.6-4.8,6.3-8.2,7c-3.4,0.7-5.8,2.3-9.2,1.7c-3.4-0.6-7.6-2-11.2-3.2
			c-3.6-1.2-7.5-1.2-8.1-3.5c-0.6-2.3-0.4-2.5,2.6-3.6c3-1.1,5.7-1.7,8.3-2.8c2.6-1,4-2.3,7.9-3.1c3.8-0.8,6.8-1.5,11.1-0.1
			C798.4,90.3,803.3,92.6,801.1,96.5z"/>
		<path class="st14" d="M838.1,62.2c-2.4,0.3-5.1,4.9-7.3,6.9c-2.2,2-7.2,6.2-7.8,8.9c-0.5,2.7-2.4,9.2-2.2,12.2
			c0.2,3.1,1.7,8.9,5.5,10.9c4,2.2,8.4,6.9,13.3,4.6c4.9-2.3,7.8-13.8,5.7-19c-2.2-5.2-2.2-8.5-0.9-11.5c1.3-3,1-9.7,0-10.9
			C843.2,63.1,840.7,61.8,838.1,62.2z"/>
		<path class="st14" d="M800.4,140.7c-2.7-0.6-8.8-4.9-12.3-8.3c-3.4-3.4-7.4-8.1-8.3-10c-1-2,1-4.2,2.7-5.1c1.7-1,3.2-2.2,5.9-1.2
			c2.7,1,14.5,3.2,18.9,2.9c4.4-0.2,22.5,0.2,27.2,1c4.7,0.7,12,8.8,11,12c-1,3.2-3.6,7.4-4.5,8.7c-0.9,1.3-8,2.6-11.9,3.3
			c-3.9,0.7-9.3,2.9-13.5,1.7C811.4,144.4,806.3,141.9,800.4,140.7z"/>
		<path class="st14" d="M765.7,146.1c-1.4-1.6-2.3-2.3-2.3-5.4c0-3.1-1.2-6.8-0.8-9.4c0.4-2.6,0.5-3.9,1.8-5.1
			c1.3-1.2,3.9-0.8,5.2,0.1c1.3,0.9,3.7,5.9,4.3,7.8c0.6,2.3,0.4,2.7-0.5,4.6c-1.1,2.1-0.9,2.5-2.3,5
			C769.7,146.2,767.5,148.1,765.7,146.1z"/>
		<path class="st14" d="M795,152.7c1.3-0.1,6.5-0.3,5,1.6c-1.5,1.9-1.7,4.2-3,4.3c-1.3,0.1-2.7-0.1-4-1.3S792.5,152.9,795,152.7z"/>
		<path class="st14" d="M799.5,68.5c0.8-1.3,3.2-2.6,4.9-1.3c1.7,1.2,5.2,3.5,5.9,4.4s1.2,1.7,0.1,2.5c-1.1,0.8-2.5,0.1-4,0.3
			c-1.6,0.2-2.6,0.7-4.1,0.4C800.8,74.5,798.2,70.7,799.5,68.5z"/>
		<path class="st14" d="M803.4,108.9c1.6,1.1,5.6,2.8,6.9,2.8c1.3,0,2.5-0.5,3.3-1.3c0.8-0.8,0-1.6-1.3-3.3
			c-1.3-1.7-0.9-4.2-1.9-4.9c-0.9-0.6-2.3-1.4-3.8-0.8c-1.4,0.6-1.1,1.1-2.2,2.3C803.4,105.1,801.1,107.2,803.4,108.9z"/>
		<text transform="matrix(0.9954 0 0 1 213.2259 565.2311)"><tspan x="0" y="0" class="st5 st7 st8">Heben und</tspan><tspan x="20.9" y="30" class="st5 st7 st8">Senken</tspan></text>
		<line class="st15" x1="273.8" y1="435.2" x2="273.8" y2="512.4"/>
		<g>
			<polygon class="st5" points="256.2,498.6 291.3,498.6 273.9,529 			"/>
			<path class="st16" d="M288.7,500.1l-14.9,26l-15-26H288.7 M293.9,497.1h-5.2h-29.9h-5.2l2.6,4.5l15,26l2.6,4.5l2.6-4.5l14.9-26
				L293.9,497.1L293.9,497.1z"/>
		</g>
		<g>
			<polygon class="st5" points="256.2,446 273.7,415.6 291.3,446 			"/>
			<path class="st16" d="M273.7,418.6l15,26h-29.9L273.7,418.6 M273.7,412.6l-2.6,4.5l-14.9,26l-2.6,4.5h5.2h29.9h5.2l-2.6-4.5
				l-15-26L273.7,412.6L273.7,412.6z"/>
		</g>
		<line class="st17" x1="273.8" y1="435.2" x2="273.8" y2="512.4"/>
		<g>
			<path class="st18" d="M676,335.9L525.5,476.5c-6,5.6-17.7,10.2-26,10.2h-29.6"/>
		</g>
		<g>
			<polygon class="st5" points="456,486.3 486.4,468.6 486.4,503.7 			"/>
			<path class="st16" d="M484.9,471.2v29.9l-26-14.9L484.9,471.2 M487.9,466l-4.5,2.6l-26,15l-4.5,2.6l4.5,2.6l26,14.9l4.5,2.6v-5.2
				v-29.9V466L487.9,466z"/>
		</g>
		<g>
			<path class="st17" d="M676,335.9L525.5,476.5c-6,5.6-17.7,10.2-26,10.2h-29.6"/>
		</g>
	</g>
	<text transform="matrix(1 0 0 1 636.1685 508.2429)" class="st4"><tspan x="0" y="0" class="st7 st8">Steinschlagrisiko </tspan><tspan x="0" y="30" class="st7 st8">Durch Auftauen von </tspan><tspan x="0" y="60" class="st7 st8">Permafrosteis werden </tspan><tspan x="0" y="90" class="st7 st8">Hänge, Schutthalden </tspan><tspan x="0" y="120" class="st7 st8">und Felswände instabil.</tspan></text>
</g>
</svg>
