<?xml version="1.0" encoding="utf-8"?>
<!-- Generator: Adobe Illustrator 21.1.0, SVG Export Plug-In . SVG Version: 6.00 Build 0)  -->
<svg version="1.1" id="Calque_1" xmlns="http://www.w3.org/2000/svg" xmlns:xlink="http://www.w3.org/1999/xlink" x="0px" y="0px"
	 viewBox="0 0 921.7 422" style="enable-background:new 0 0 921.7 422;" xml:space="preserve">
<style type="text/css">
	.st0{fill:none;stroke:#FFFFFF;stroke-width:10;stroke-linecap:round;stroke-linejoin:round;stroke-miterlimit:10;}
	.st1{fill:none;stroke:#5799CC;stroke-width:4;stroke-linecap:round;stroke-linejoin:round;stroke-miterlimit:10;}
</style>
<g id="courbe">
	<g>
		<path class="st0" d="M2.6,96.5c17.6-26.8,37-50.5,71-50.1l0,0c77.8,0.9,76.3,126.1,154.1,127s79.2-78,157-77.1s76.3,61,154.1,61.9
			c77.8,0.9,79.2-37.8,157-36.9s76.4,47.5,154.1,48.4l0,0"/>
		<path class="st1" d="M2.6,96.5c17.6-26.8,37-50.5,71-50.1l0,0c77.8,0.9,76.3,126.1,154.1,127s79.2-78,157-77.1s76.3,61,154.1,61.9
			c77.8,0.9,79.2-37.8,157-36.9s76.4,47.5,154.1,48.4l0,0"/>
	</g>
</g>
</svg>
